<?xml version="1.0" encoding="UTF-8" standalone="no"?><svg xmlns="http://www.w3.org/2000/svg" xmlns:xlink="http://www.w3.org/1999/xlink" contentScriptType="application/ecmascript" contentStyleType="text/css" height="408px" preserveAspectRatio="none" style="width:4366px;height:408px;" version="1.1" viewBox="0 0 4366 408" width="4366.5px" zoomAndPan="magnify"><defs><filter height="300%" id="f1quik6yy6x3cu" width="300%" x="-1" y="-1"><feGaussianBlur result="blurOut" stdDeviation="3.0"/><feColorMatrix in="blurOut" result="blurOut2" type="matrix" values="0 0 0 0 0 0 0 0 0 0 0 0 0 0 0 0 0 0 .4 0"/><feOffset dx="6.0" dy="6.0" in="blurOut2" result="blurOut3"/><feBlend in="SourceGraphic" in2="blurOut3" mode="normal"/></filter></defs><g><!--MD5=[9794efcb7ae1910c4bbb271a97a787d8]
cluster componentproviderImpl--><polygon fill="#FFFFFF" filter="url(#f1quik6yy6x3cu)" points="272.25,36,534.75,36,545.25,71.4141,2834.25,71.4141,2834.25,390,272.25,390,272.25,36" style="stroke: #000000; stroke-width: 2.25;"/><line style="stroke: #000000; stroke-width: 2.25;" x1="272.25" x2="545.25" y1="71.4141" y2="71.4141"/><text fill="#000000" font-family="sans-serif" font-size="21" font-weight="bold" lengthAdjust="spacingAndGlyphs" textLength="253.5" x="278.25" y="60.7998">componentproviderImpl</text><!--MD5=[28805ba9b4e849822e432837abf09cd1]
class componentproviderImpl.Apache--><rect fill="#FEFECE" filter="url(#f1quik6yy6x3cu)" height="113.5078" id="componentproviderImpl.Apache" style="stroke: #A80036; stroke-width: 2.25;" width="316.5" x="666" y="252"/><ellipse cx="787.125" cy="276" fill="#ADD1B2" rx="16.5" ry="16.5" style="stroke: #A80036; stroke-width: 1.5;"/><path d="M790.125,270.75 Q790.4297,270 790.7813,269.625 Q791.1328,269.25 791.5313,269.25 Q792.2344,269.25 792.6797,269.6719 Q793.125,270.0938 793.125,271.0781 L793.125,273.4219 Q793.125,274.4063 792.7031,274.8281 Q792.2813,275.25 791.625,275.25 Q791.0391,275.25 790.6641,274.9922 Q790.2891,274.7344 790.125,274.0547 Q790.0547,273.5859 789.7969,273.3281 Q789.3281,272.8359 788.4844,272.5547 Q787.6406,272.25 786.7969,272.25 Q785.7422,272.25 784.8516,272.6719 Q783.9844,273.0938 783.3047,274.0313 Q782.625,274.9688 782.625,276.2578 L782.625,277.6406 Q782.625,279.1875 783.8906,280.2188 Q785.1563,281.25 787.4063,281.25 Q788.7422,281.25 789.6797,280.9453 Q790.2188,280.7813 790.8281,280.2422 Q791.2266,279.9375 791.4375,279.8438 Q791.6484,279.75 791.9063,279.75 Q792.3984,279.75 792.75,280.1484 Q793.125,280.5234 793.125,281.0625 Q793.125,281.5781 792.6094,282.1875 Q791.8594,283.0781 790.6641,283.5703 Q789.0938,284.25 787.1719,284.25 Q784.9219,284.25 783.1172,283.3594 Q781.6641,282.6563 780.6328,281.1328 Q779.625,279.6094 779.625,277.8047 L779.625,276.1641 Q779.625,274.2891 780.5156,272.6484 Q781.4297,271.0078 783,270.1406 Q784.5938,269.25 786.375,269.25 Q787.4531,269.25 788.3906,269.625 Q789.3281,270 790.125,270.75 Z "/><text fill="#000000" font-family="sans-serif" font-size="18" lengthAdjust="spacingAndGlyphs" textLength="61.5" x="817.875" y="283.3652">Apache</text><line style="stroke: #A80036; stroke-width: 2.25;" x1="667.5" x2="981" y1="300" y2="300"/><line style="stroke: #A80036; stroke-width: 2.25;" x1="667.5" x2="981" y1="312" y2="312"/><ellipse cx="682.5" cy="328.5" fill="#84BE84" rx="4.5" ry="4.5" style="stroke: #038048; stroke-width: 1.5;"/><text fill="#000000" font-family="sans-serif" font-size="16.5" lengthAdjust="spacingAndGlyphs" textLength="154.5" x="696" y="335.1284">Apache(String name)</text><ellipse cx="682.5" cy="349.2539" fill="#84BE84" rx="4.5" ry="4.5" style="stroke: #038048; stroke-width: 1.5;"/><text fill="#000000" font-family="sans-serif" font-size="16.5" lengthAdjust="spacingAndGlyphs" textLength="277.5" x="696" y="355.8823">getComponentType() :ComponentType</text><!--MD5=[d378ae02ecdbb38086d3d2ca35af0bc8]
class ComponentImpl--><rect fill="#FEFECE" filter="url(#f1quik6yy6x3cu)" height="72" id="ComponentImpl" style="stroke: #A80036; stroke-width: 2.25;" width="181.5" x="1470" y="90"/><ellipse cx="1492.5" cy="114" fill="#ADD1B2" rx="16.5" ry="16.5" style="stroke: #A80036; stroke-width: 1.5;"/><path d="M1495.5,108.75 Q1495.8047,108 1496.1563,107.625 Q1496.5078,107.25 1496.9063,107.25 Q1497.6094,107.25 1498.0547,107.6719 Q1498.5,108.0938 1498.5,109.0781 L1498.5,111.4219 Q1498.5,112.4063 1498.0781,112.8281 Q1497.6563,113.25 1497,113.25 Q1496.4141,113.25 1496.0391,112.9922 Q1495.6641,112.7344 1495.5,112.0547 Q1495.4297,111.5859 1495.1719,111.3281 Q1494.7031,110.8359 1493.8594,110.5547 Q1493.0156,110.25 1492.1719,110.25 Q1491.1172,110.25 1490.2266,110.6719 Q1489.3594,111.0938 1488.6797,112.0313 Q1488,112.9688 1488,114.2578 L1488,115.6406 Q1488,117.1875 1489.2656,118.2188 Q1490.5313,119.25 1492.7813,119.25 Q1494.1172,119.25 1495.0547,118.9453 Q1495.5938,118.7813 1496.2031,118.2422 Q1496.6016,117.9375 1496.8125,117.8438 Q1497.0234,117.75 1497.2813,117.75 Q1497.7734,117.75 1498.125,118.1484 Q1498.5,118.5234 1498.5,119.0625 Q1498.5,119.5781 1497.9844,120.1875 Q1497.2344,121.0781 1496.0391,121.5703 Q1494.4688,122.25 1492.5469,122.25 Q1490.2969,122.25 1488.4922,121.3594 Q1487.0391,120.6563 1486.0078,119.1328 Q1485,117.6094 1485,115.8047 L1485,114.1641 Q1485,112.2891 1485.8906,110.6484 Q1486.8047,109.0078 1488.375,108.1406 Q1489.9688,107.25 1491.75,107.25 Q1492.8281,107.25 1493.7656,107.625 Q1494.7031,108 1495.5,108.75 Z "/><text fill="#000000" font-family="sans-serif" font-size="18" lengthAdjust="spacingAndGlyphs" textLength="133.5" x="1513.5" y="121.3652">ComponentImpl</text><line style="stroke: #A80036; stroke-width: 2.25;" x1="1471.5" x2="1650" y1="138" y2="138"/><line style="stroke: #A80036; stroke-width: 2.25;" x1="1471.5" x2="1650" y1="150" y2="150"/><!--MD5=[075aa6de4f00bd763b4891e9079ea7e2]
class ApacheComponentType--><rect fill="#FEFECE" filter="url(#f1quik6yy6x3cu)" height="72" id="ApacheComponentType" style="stroke: #A80036; stroke-width: 2.25;" width="249" x="699.75" y="90"/><ellipse cx="722.25" cy="114" fill="#B4A7E5" rx="16.5" ry="16.5" style="stroke: #A80036; stroke-width: 1.5;"/><path d="M723.75,109.5 L723.75,118.5 L726.75,118.5 L727.4766,118.5 L728.25,119.4375 L728.25,120 L728.25,120.5625 L727.4766,121.5 L726.75,121.5 L717.75,121.5 L717.0234,121.5 L716.25,120.5625 L716.25,120 L716.25,119.4375 L717.0234,118.5 L717.75,118.5 L720.75,118.5 L720.75,109.5 L717.75,109.5 L717.0234,109.5 L716.25,108.5625 L716.25,108 L716.25,107.4375 L717.0234,106.5 L717.75,106.5 L726.75,106.5 L727.4766,106.5 L728.25,107.4375 L728.25,108 L728.25,108.5625 L727.4766,109.5 L726.75,109.5 L723.75,109.5 Z "/><text fill="#000000" font-family="sans-serif" font-size="18" font-style="italic" lengthAdjust="spacingAndGlyphs" textLength="201" x="743.25" y="121.3652">ApacheComponentType</text><line style="stroke: #A80036; stroke-width: 2.25;" x1="701.25" x2="947.25" y1="138" y2="138"/><line style="stroke: #A80036; stroke-width: 2.25;" x1="701.25" x2="947.25" y1="150" y2="150"/><!--MD5=[d15bd87f927c9135722a2c0f62a77765]
class componentproviderImpl.Flume--><rect fill="#FEFECE" filter="url(#f1quik6yy6x3cu)" height="113.5078" id="componentproviderImpl.Flume" style="stroke: #A80036; stroke-width: 2.25;" width="316.5" x="297" y="252"/><ellipse cx="422.625" cy="276" fill="#ADD1B2" rx="16.5" ry="16.5" style="stroke: #A80036; stroke-width: 1.5;"/><path d="M425.625,270.75 Q425.9297,270 426.2813,269.625 Q426.6328,269.25 427.0313,269.25 Q427.7344,269.25 428.1797,269.6719 Q428.625,270.0938 428.625,271.0781 L428.625,273.4219 Q428.625,274.4063 428.2031,274.8281 Q427.7813,275.25 427.125,275.25 Q426.5391,275.25 426.1641,274.9922 Q425.7891,274.7344 425.625,274.0547 Q425.5547,273.5859 425.2969,273.3281 Q424.8281,272.8359 423.9844,272.5547 Q423.1406,272.25 422.2969,272.25 Q421.2422,272.25 420.3516,272.6719 Q419.4844,273.0938 418.8047,274.0313 Q418.125,274.9688 418.125,276.2578 L418.125,277.6406 Q418.125,279.1875 419.3906,280.2188 Q420.6563,281.25 422.9063,281.25 Q424.2422,281.25 425.1797,280.9453 Q425.7188,280.7813 426.3281,280.2422 Q426.7266,279.9375 426.9375,279.8438 Q427.1484,279.75 427.4063,279.75 Q427.8984,279.75 428.25,280.1484 Q428.625,280.5234 428.625,281.0625 Q428.625,281.5781 428.1094,282.1875 Q427.3594,283.0781 426.1641,283.5703 Q424.5938,284.25 422.6719,284.25 Q420.4219,284.25 418.6172,283.3594 Q417.1641,282.6563 416.1328,281.1328 Q415.125,279.6094 415.125,277.8047 L415.125,276.1641 Q415.125,274.2891 416.0156,272.6484 Q416.9297,271.0078 418.5,270.1406 Q420.0938,269.25 421.875,269.25 Q422.9531,269.25 423.8906,269.625 Q424.8281,270 425.625,270.75 Z "/><text fill="#000000" font-family="sans-serif" font-size="18" lengthAdjust="spacingAndGlyphs" textLength="52.5" x="453.375" y="283.3652">Flume</text><line style="stroke: #A80036; stroke-width: 2.25;" x1="298.5" x2="612" y1="300" y2="300"/><line style="stroke: #A80036; stroke-width: 2.25;" x1="298.5" x2="612" y1="312" y2="312"/><ellipse cx="313.5" cy="328.5" fill="#84BE84" rx="4.5" ry="4.5" style="stroke: #038048; stroke-width: 1.5;"/><text fill="#000000" font-family="sans-serif" font-size="16.5" lengthAdjust="spacingAndGlyphs" textLength="139.5" x="327" y="335.1284">Flume(String name)</text><ellipse cx="313.5" cy="349.2539" fill="#84BE84" rx="4.5" ry="4.5" style="stroke: #038048; stroke-width: 1.5;"/><text fill="#000000" font-family="sans-serif" font-size="16.5" lengthAdjust="spacingAndGlyphs" textLength="277.5" x="327" y="355.8823">getComponentType() :ComponentType</text><!--MD5=[14f1142a75e02861adfd729d8afce049]
class componentproviderImpl.MongoDb--><rect fill="#FEFECE" filter="url(#f1quik6yy6x3cu)" height="113.5078" id="componentproviderImpl.MongoDb" style="stroke: #A80036; stroke-width: 2.25;" width="316.5" x="1035" y="252"/><ellipse cx="1147.125" cy="276" fill="#ADD1B2" rx="16.5" ry="16.5" style="stroke: #A80036; stroke-width: 1.5;"/><path d="M1150.125,270.75 Q1150.4297,270 1150.7813,269.625 Q1151.1328,269.25 1151.5313,269.25 Q1152.2344,269.25 1152.6797,269.6719 Q1153.125,270.0938 1153.125,271.0781 L1153.125,273.4219 Q1153.125,274.4063 1152.7031,274.8281 Q1152.2813,275.25 1151.625,275.25 Q1151.0391,275.25 1150.6641,274.9922 Q1150.2891,274.7344 1150.125,274.0547 Q1150.0547,273.5859 1149.7969,273.3281 Q1149.3281,272.8359 1148.4844,272.5547 Q1147.6406,272.25 1146.7969,272.25 Q1145.7422,272.25 1144.8516,272.6719 Q1143.9844,273.0938 1143.3047,274.0313 Q1142.625,274.9688 1142.625,276.2578 L1142.625,277.6406 Q1142.625,279.1875 1143.8906,280.2188 Q1145.1563,281.25 1147.4063,281.25 Q1148.7422,281.25 1149.6797,280.9453 Q1150.2188,280.7813 1150.8281,280.2422 Q1151.2266,279.9375 1151.4375,279.8438 Q1151.6484,279.75 1151.9063,279.75 Q1152.3984,279.75 1152.75,280.1484 Q1153.125,280.5234 1153.125,281.0625 Q1153.125,281.5781 1152.6094,282.1875 Q1151.8594,283.0781 1150.6641,283.5703 Q1149.0938,284.25 1147.1719,284.25 Q1144.9219,284.25 1143.1172,283.3594 Q1141.6641,282.6563 1140.6328,281.1328 Q1139.625,279.6094 1139.625,277.8047 L1139.625,276.1641 Q1139.625,274.2891 1140.5156,272.6484 Q1141.4297,271.0078 1143,270.1406 Q1144.5938,269.25 1146.375,269.25 Q1147.4531,269.25 1148.3906,269.625 Q1149.3281,270 1150.125,270.75 Z "/><text fill="#000000" font-family="sans-serif" font-size="18" lengthAdjust="spacingAndGlyphs" textLength="79.5" x="1177.875" y="283.3652">MongoDb</text><line style="stroke: #A80036; stroke-width: 2.25;" x1="1036.5" x2="1350" y1="300" y2="300"/><line style="stroke: #A80036; stroke-width: 2.25;" x1="1036.5" x2="1350" y1="312" y2="312"/><ellipse cx="1051.5" cy="328.5" fill="#84BE84" rx="4.5" ry="4.5" style="stroke: #038048; stroke-width: 1.5;"/><text fill="#000000" font-family="sans-serif" font-size="16.5" lengthAdjust="spacingAndGlyphs" textLength="165" x="1065" y="335.1284">MongoDb(String name)</text><ellipse cx="1051.5" cy="349.2539" fill="#84BE84" rx="4.5" ry="4.5" style="stroke: #038048; stroke-width: 1.5;"/><text fill="#000000" font-family="sans-serif" font-size="16.5" lengthAdjust="spacingAndGlyphs" textLength="277.5" x="1065" y="355.8823">getComponentType() :ComponentType</text><!--MD5=[4262f07864845370058f239702f146e5]
class componentproviderImpl.MySQL--><rect fill="#FEFECE" filter="url(#f1quik6yy6x3cu)" height="113.5078" id="componentproviderImpl.MySQL" style="stroke: #A80036; stroke-width: 2.25;" width="312" x="1404.75" y="252"/><ellipse cx="1525.875" cy="276" fill="#ADD1B2" rx="16.5" ry="16.5" style="stroke: #A80036; stroke-width: 1.5;"/><path d="M1528.875,270.75 Q1529.1797,270 1529.5313,269.625 Q1529.8828,269.25 1530.2813,269.25 Q1530.9844,269.25 1531.4297,269.6719 Q1531.875,270.0938 1531.875,271.0781 L1531.875,273.4219 Q1531.875,274.4063 1531.4531,274.8281 Q1531.0313,275.25 1530.375,275.25 Q1529.7891,275.25 1529.4141,274.9922 Q1529.0391,274.7344 1528.875,274.0547 Q1528.8047,273.5859 1528.5469,273.3281 Q1528.0781,272.8359 1527.2344,272.5547 Q1526.3906,272.25 1525.5469,272.25 Q1524.4922,272.25 1523.6016,272.6719 Q1522.7344,273.0938 1522.0547,274.0313 Q1521.375,274.9688 1521.375,276.2578 L1521.375,277.6406 Q1521.375,279.1875 1522.6406,280.2188 Q1523.9063,281.25 1526.1563,281.25 Q1527.4922,281.25 1528.4297,280.9453 Q1528.9688,280.7813 1529.5781,280.2422 Q1529.9766,279.9375 1530.1875,279.8438 Q1530.3984,279.75 1530.6563,279.75 Q1531.1484,279.75 1531.5,280.1484 Q1531.875,280.5234 1531.875,281.0625 Q1531.875,281.5781 1531.3594,282.1875 Q1530.6094,283.0781 1529.4141,283.5703 Q1527.8438,284.25 1525.9219,284.25 Q1523.6719,284.25 1521.8672,283.3594 Q1520.4141,282.6563 1519.3828,281.1328 Q1518.375,279.6094 1518.375,277.8047 L1518.375,276.1641 Q1518.375,274.2891 1519.2656,272.6484 Q1520.1797,271.0078 1521.75,270.1406 Q1523.3438,269.25 1525.125,269.25 Q1526.2031,269.25 1527.1406,269.625 Q1528.0781,270 1528.875,270.75 Z "/><text fill="#000000" font-family="sans-serif" font-size="18" lengthAdjust="spacingAndGlyphs" textLength="57" x="1556.625" y="283.3652">MySQL</text><line style="stroke: #A80036; stroke-width: 2.25;" x1="1406.25" x2="1715.25" y1="300" y2="300"/><line style="stroke: #A80036; stroke-width: 2.25;" x1="1406.25" x2="1715.25" y1="312" y2="312"/><ellipse cx="1421.25" cy="328.5" fill="#84BE84" rx="4.5" ry="4.5" style="stroke: #038048; stroke-width: 1.5;"/><text fill="#000000" font-family="sans-serif" font-size="16.5" lengthAdjust="spacingAndGlyphs" textLength="150" x="1434.75" y="335.1284">MySQL(String name)</text><ellipse cx="1421.25" cy="349.2539" fill="#84BE84" rx="4.5" ry="4.5" style="stroke: #038048; stroke-width: 1.5;"/><text fill="#000000" font-family="sans-serif" font-size="16.5" lengthAdjust="spacingAndGlyphs" textLength="273" x="1434.75" y="355.8823">getComponentType():ComponentType</text><!--MD5=[33c86405abe97437137bb606c0887f26]
class componentproviderImpl.Nginx--><rect fill="#FEFECE" filter="url(#f1quik6yy6x3cu)" height="113.5078" id="componentproviderImpl.Nginx" style="stroke: #A80036; stroke-width: 2.25;" width="312" x="1769.25" y="252"/><ellipse cx="1895.625" cy="276" fill="#ADD1B2" rx="16.5" ry="16.5" style="stroke: #A80036; stroke-width: 1.5;"/><path d="M1898.625,270.75 Q1898.9297,270 1899.2813,269.625 Q1899.6328,269.25 1900.0313,269.25 Q1900.7344,269.25 1901.1797,269.6719 Q1901.625,270.0938 1901.625,271.0781 L1901.625,273.4219 Q1901.625,274.4063 1901.2031,274.8281 Q1900.7813,275.25 1900.125,275.25 Q1899.5391,275.25 1899.1641,274.9922 Q1898.7891,274.7344 1898.625,274.0547 Q1898.5547,273.5859 1898.2969,273.3281 Q1897.8281,272.8359 1896.9844,272.5547 Q1896.1406,272.25 1895.2969,272.25 Q1894.2422,272.25 1893.3516,272.6719 Q1892.4844,273.0938 1891.8047,274.0313 Q1891.125,274.9688 1891.125,276.2578 L1891.125,277.6406 Q1891.125,279.1875 1892.3906,280.2188 Q1893.6563,281.25 1895.9063,281.25 Q1897.2422,281.25 1898.1797,280.9453 Q1898.7188,280.7813 1899.3281,280.2422 Q1899.7266,279.9375 1899.9375,279.8438 Q1900.1484,279.75 1900.4063,279.75 Q1900.8984,279.75 1901.25,280.1484 Q1901.625,280.5234 1901.625,281.0625 Q1901.625,281.5781 1901.1094,282.1875 Q1900.3594,283.0781 1899.1641,283.5703 Q1897.5938,284.25 1895.6719,284.25 Q1893.4219,284.25 1891.6172,283.3594 Q1890.1641,282.6563 1889.1328,281.1328 Q1888.125,279.6094 1888.125,277.8047 L1888.125,276.1641 Q1888.125,274.2891 1889.0156,272.6484 Q1889.9297,271.0078 1891.5,270.1406 Q1893.0938,269.25 1894.875,269.25 Q1895.9531,269.25 1896.8906,269.625 Q1897.8281,270 1898.625,270.75 Z "/><text fill="#000000" font-family="sans-serif" font-size="18" lengthAdjust="spacingAndGlyphs" textLength="46.5" x="1926.375" y="283.3652">Nginx</text><line style="stroke: #A80036; stroke-width: 2.25;" x1="1770.75" x2="2079.75" y1="300" y2="300"/><line style="stroke: #A80036; stroke-width: 2.25;" x1="1770.75" x2="2079.75" y1="312" y2="312"/><ellipse cx="1785.75" cy="328.5" fill="#84BE84" rx="4.5" ry="4.5" style="stroke: #038048; stroke-width: 1.5;"/><text fill="#000000" font-family="sans-serif" font-size="16.5" lengthAdjust="spacingAndGlyphs" textLength="138" x="1799.25" y="335.1284">Nginx(String name)</text><ellipse cx="1785.75" cy="349.2539" fill="#84BE84" rx="4.5" ry="4.5" style="stroke: #038048; stroke-width: 1.5;"/><text fill="#000000" font-family="sans-serif" font-size="16.5" lengthAdjust="spacingAndGlyphs" textLength="273" x="1799.25" y="355.8823">getComponentType():ComponentType</text><!--MD5=[4b6c96a47f5d15b9594b86da99454b6c]
class componentproviderImpl.Prometheus--><rect fill="#FEFECE" filter="url(#f1quik6yy6x3cu)" height="113.5078" id="componentproviderImpl.Prometheus" style="stroke: #A80036; stroke-width: 2.25;" width="312" x="2133.75" y="252"/><ellipse cx="2232.375" cy="276" fill="#ADD1B2" rx="16.5" ry="16.5" style="stroke: #A80036; stroke-width: 1.5;"/><path d="M2235.375,270.75 Q2235.6797,270 2236.0313,269.625 Q2236.3828,269.25 2236.7813,269.25 Q2237.4844,269.25 2237.9297,269.6719 Q2238.375,270.0938 2238.375,271.0781 L2238.375,273.4219 Q2238.375,274.4063 2237.9531,274.8281 Q2237.5313,275.25 2236.875,275.25 Q2236.2891,275.25 2235.9141,274.9922 Q2235.5391,274.7344 2235.375,274.0547 Q2235.3047,273.5859 2235.0469,273.3281 Q2234.5781,272.8359 2233.7344,272.5547 Q2232.8906,272.25 2232.0469,272.25 Q2230.9922,272.25 2230.1016,272.6719 Q2229.2344,273.0938 2228.5547,274.0313 Q2227.875,274.9688 2227.875,276.2578 L2227.875,277.6406 Q2227.875,279.1875 2229.1406,280.2188 Q2230.4063,281.25 2232.6563,281.25 Q2233.9922,281.25 2234.9297,280.9453 Q2235.4688,280.7813 2236.0781,280.2422 Q2236.4766,279.9375 2236.6875,279.8438 Q2236.8984,279.75 2237.1563,279.75 Q2237.6484,279.75 2238,280.1484 Q2238.375,280.5234 2238.375,281.0625 Q2238.375,281.5781 2237.8594,282.1875 Q2237.1094,283.0781 2235.9141,283.5703 Q2234.3438,284.25 2232.4219,284.25 Q2230.1719,284.25 2228.3672,283.3594 Q2226.9141,282.6563 2225.8828,281.1328 Q2224.875,279.6094 2224.875,277.8047 L2224.875,276.1641 Q2224.875,274.2891 2225.7656,272.6484 Q2226.6797,271.0078 2228.25,270.1406 Q2229.8438,269.25 2231.625,269.25 Q2232.7031,269.25 2233.6406,269.625 Q2234.5781,270 2235.375,270.75 Z "/><text fill="#000000" font-family="sans-serif" font-size="18" lengthAdjust="spacingAndGlyphs" textLength="102" x="2263.125" y="283.3652">Prometheus</text><line style="stroke: #A80036; stroke-width: 2.25;" x1="2135.25" x2="2444.25" y1="300" y2="300"/><line style="stroke: #A80036; stroke-width: 2.25;" x1="2135.25" x2="2444.25" y1="312" y2="312"/><ellipse cx="2150.25" cy="328.5" fill="#84BE84" rx="4.5" ry="4.5" style="stroke: #038048; stroke-width: 1.5;"/><text fill="#000000" font-family="sans-serif" font-size="16.5" lengthAdjust="spacingAndGlyphs" textLength="183" x="2163.75" y="335.1284">Prometheus(String name)</text><ellipse cx="2150.25" cy="349.2539" fill="#84BE84" rx="4.5" ry="4.5" style="stroke: #038048; stroke-width: 1.5;"/><text fill="#000000" font-family="sans-serif" font-size="16.5" lengthAdjust="spacingAndGlyphs" textLength="273" x="2163.75" y="355.8823">getComponentType():ComponentType</text><!--MD5=[669388944a295aac4728ce98c7b4ff68]
class componentproviderImpl.Tomcat--><rect fill="#FEFECE" filter="url(#f1quik6yy6x3cu)" height="113.5078" id="componentproviderImpl.Tomcat" style="stroke: #A80036; stroke-width: 2.25;" width="312" x="2498.25" y="252"/><ellipse cx="2617.125" cy="276" fill="#ADD1B2" rx="16.5" ry="16.5" style="stroke: #A80036; stroke-width: 1.5;"/><path d="M2620.125,270.75 Q2620.4297,270 2620.7813,269.625 Q2621.1328,269.25 2621.5313,269.25 Q2622.2344,269.25 2622.6797,269.6719 Q2623.125,270.0938 2623.125,271.0781 L2623.125,273.4219 Q2623.125,274.4063 2622.7031,274.8281 Q2622.2813,275.25 2621.625,275.25 Q2621.0391,275.25 2620.6641,274.9922 Q2620.2891,274.7344 2620.125,274.0547 Q2620.0547,273.5859 2619.7969,273.3281 Q2619.3281,272.8359 2618.4844,272.5547 Q2617.6406,272.25 2616.7969,272.25 Q2615.7422,272.25 2614.8516,272.6719 Q2613.9844,273.0938 2613.3047,274.0313 Q2612.625,274.9688 2612.625,276.2578 L2612.625,277.6406 Q2612.625,279.1875 2613.8906,280.2188 Q2615.1563,281.25 2617.4063,281.25 Q2618.7422,281.25 2619.6797,280.9453 Q2620.2188,280.7813 2620.8281,280.2422 Q2621.2266,279.9375 2621.4375,279.8438 Q2621.6484,279.75 2621.9063,279.75 Q2622.3984,279.75 2622.75,280.1484 Q2623.125,280.5234 2623.125,281.0625 Q2623.125,281.5781 2622.6094,282.1875 Q2621.8594,283.0781 2620.6641,283.5703 Q2619.0938,284.25 2617.1719,284.25 Q2614.9219,284.25 2613.1172,283.3594 Q2611.6641,282.6563 2610.6328,281.1328 Q2609.625,279.6094 2609.625,277.8047 L2609.625,276.1641 Q2609.625,274.2891 2610.5156,272.6484 Q2611.4297,271.0078 2613,270.1406 Q2614.5938,269.25 2616.375,269.25 Q2617.4531,269.25 2618.3906,269.625 Q2619.3281,270 2620.125,270.75 Z "/><text fill="#000000" font-family="sans-serif" font-size="18" lengthAdjust="spacingAndGlyphs" textLength="61.5" x="2647.875" y="283.3652">Tomcat</text><line style="stroke: #A80036; stroke-width: 2.25;" x1="2499.75" x2="2808.75" y1="300" y2="300"/><line style="stroke: #A80036; stroke-width: 2.25;" x1="2499.75" x2="2808.75" y1="312" y2="312"/><ellipse cx="2514.75" cy="328.5" fill="#84BE84" rx="4.5" ry="4.5" style="stroke: #038048; stroke-width: 1.5;"/><text fill="#000000" font-family="sans-serif" font-size="16.5" lengthAdjust="spacingAndGlyphs" textLength="150" x="2528.25" y="335.1284">Tomcat(String name)</text><ellipse cx="2514.75" cy="349.2539" fill="#84BE84" rx="4.5" ry="4.5" style="stroke: #038048; stroke-width: 1.5;"/><text fill="#000000" font-family="sans-serif" font-size="16.5" lengthAdjust="spacingAndGlyphs" textLength="273" x="2528.25" y="355.8823">getComponentType():ComponentType</text><!--MD5=[2c15e22271967746aa234cb33ed16f50]
class FlumeComponentType--><rect fill="#FEFECE" filter="url(#f1quik6yy6x3cu)" height="72" id="FlumeComponentType" style="stroke: #A80036; stroke-width: 2.25;" width="238.5" x="9" y="90"/><ellipse cx="31.5" cy="114" fill="#B4A7E5" rx="16.5" ry="16.5" style="stroke: #A80036; stroke-width: 1.5;"/><path d="M33,109.5 L33,118.5 L36,118.5 L36.7266,118.5 L37.5,119.4375 L37.5,120 L37.5,120.5625 L36.7266,121.5 L36,121.5 L27,121.5 L26.2734,121.5 L25.5,120.5625 L25.5,120 L25.5,119.4375 L26.2734,118.5 L27,118.5 L30,118.5 L30,109.5 L27,109.5 L26.2734,109.5 L25.5,108.5625 L25.5,108 L25.5,107.4375 L26.2734,106.5 L27,106.5 L36,106.5 L36.7266,106.5 L37.5,107.4375 L37.5,108 L37.5,108.5625 L36.7266,109.5 L36,109.5 L33,109.5 Z "/><text fill="#000000" font-family="sans-serif" font-size="18" font-style="italic" lengthAdjust="spacingAndGlyphs" textLength="190.5" x="52.5" y="121.3652">FlumeComponentType</text><line style="stroke: #A80036; stroke-width: 2.25;" x1="10.5" x2="246" y1="138" y2="138"/><line style="stroke: #A80036; stroke-width: 2.25;" x1="10.5" x2="246" y1="150" y2="150"/><!--MD5=[6865ed2062be672ee311744b780953f8]
class MongoDBComponentType--><rect fill="#FEFECE" filter="url(#f1quik6yy6x3cu)" height="72" id="MongoDBComponentType" style="stroke: #A80036; stroke-width: 2.25;" width="267" x="2858.25" y="90"/><ellipse cx="2880.75" cy="114" fill="#B4A7E5" rx="16.5" ry="16.5" style="stroke: #A80036; stroke-width: 1.5;"/><path d="M2882.25,109.5 L2882.25,118.5 L2885.25,118.5 L2885.9766,118.5 L2886.75,119.4375 L2886.75,120 L2886.75,120.5625 L2885.9766,121.5 L2885.25,121.5 L2876.25,121.5 L2875.5234,121.5 L2874.75,120.5625 L2874.75,120 L2874.75,119.4375 L2875.5234,118.5 L2876.25,118.5 L2879.25,118.5 L2879.25,109.5 L2876.25,109.5 L2875.5234,109.5 L2874.75,108.5625 L2874.75,108 L2874.75,107.4375 L2875.5234,106.5 L2876.25,106.5 L2885.25,106.5 L2885.9766,106.5 L2886.75,107.4375 L2886.75,108 L2886.75,108.5625 L2885.9766,109.5 L2885.25,109.5 L2882.25,109.5 Z "/><text fill="#000000" font-family="sans-serif" font-size="18" font-style="italic" lengthAdjust="spacingAndGlyphs" textLength="219" x="2901.75" y="121.3652">MongoDBComponentType</text><line style="stroke: #A80036; stroke-width: 2.25;" x1="2859.75" x2="3123.75" y1="138" y2="138"/><line style="stroke: #A80036; stroke-width: 2.25;" x1="2859.75" x2="3123.75" y1="150" y2="150"/><!--MD5=[d9c25b037857f786f9571b78f5523ada]
class MySQLComponentType--><rect fill="#FEFECE" filter="url(#f1quik6yy6x3cu)" height="72" id="MySQLComponentType" style="stroke: #A80036; stroke-width: 2.25;" width="244.5" x="3178.5" y="90"/><ellipse cx="3201" cy="114" fill="#B4A7E5" rx="16.5" ry="16.5" style="stroke: #A80036; stroke-width: 1.5;"/><path d="M3202.5,109.5 L3202.5,118.5 L3205.5,118.5 L3206.2266,118.5 L3207,119.4375 L3207,120 L3207,120.5625 L3206.2266,121.5 L3205.5,121.5 L3196.5,121.5 L3195.7734,121.5 L3195,120.5625 L3195,120 L3195,119.4375 L3195.7734,118.5 L3196.5,118.5 L3199.5,118.5 L3199.5,109.5 L3196.5,109.5 L3195.7734,109.5 L3195,108.5625 L3195,108 L3195,107.4375 L3195.7734,106.5 L3196.5,106.5 L3205.5,106.5 L3206.2266,106.5 L3207,107.4375 L3207,108 L3207,108.5625 L3206.2266,109.5 L3205.5,109.5 L3202.5,109.5 Z "/><text fill="#000000" font-family="sans-serif" font-size="18" font-style="italic" lengthAdjust="spacingAndGlyphs" textLength="196.5" x="3222" y="121.3652">MySQLComponentType</text><line style="stroke: #A80036; stroke-width: 2.25;" x1="3180" x2="3421.5" y1="138" y2="138"/><line style="stroke: #A80036; stroke-width: 2.25;" x1="3180" x2="3421.5" y1="150" y2="150"/><!--MD5=[e8ddf895a8f5338125f9aca9fed822b7]
class NginxComponentType--><rect fill="#FEFECE" filter="url(#f1quik6yy6x3cu)" height="72" id="NginxComponentType" style="stroke: #A80036; stroke-width: 2.25;" width="234" x="3476.25" y="90"/><ellipse cx="3498.75" cy="114" fill="#B4A7E5" rx="16.5" ry="16.5" style="stroke: #A80036; stroke-width: 1.5;"/><path d="M3500.25,109.5 L3500.25,118.5 L3503.25,118.5 L3503.9766,118.5 L3504.75,119.4375 L3504.75,120 L3504.75,120.5625 L3503.9766,121.5 L3503.25,121.5 L3494.25,121.5 L3493.5234,121.5 L3492.75,120.5625 L3492.75,120 L3492.75,119.4375 L3493.5234,118.5 L3494.25,118.5 L3497.25,118.5 L3497.25,109.5 L3494.25,109.5 L3493.5234,109.5 L3492.75,108.5625 L3492.75,108 L3492.75,107.4375 L3493.5234,106.5 L3494.25,106.5 L3503.25,106.5 L3503.9766,106.5 L3504.75,107.4375 L3504.75,108 L3504.75,108.5625 L3503.9766,109.5 L3503.25,109.5 L3500.25,109.5 Z "/><text fill="#000000" font-family="sans-serif" font-size="18" font-style="italic" lengthAdjust="spacingAndGlyphs" textLength="186" x="3519.75" y="121.3652">NginxComponentType</text><line style="stroke: #A80036; stroke-width: 2.25;" x1="3477.75" x2="3708.75" y1="138" y2="138"/><line style="stroke: #A80036; stroke-width: 2.25;" x1="3477.75" x2="3708.75" y1="150" y2="150"/><!--MD5=[e62c55004cdcb7790739d1e1a63fda53]
class PrometheusComponentType--><rect fill="#FEFECE" filter="url(#f1quik6yy6x3cu)" height="72" id="PrometheusComponentType" style="stroke: #A80036; stroke-width: 2.25;" width="286.5" x="3763.5" y="90"/><ellipse cx="3786" cy="114" fill="#B4A7E5" rx="16.5" ry="16.5" style="stroke: #A80036; stroke-width: 1.5;"/><path d="M3787.5,109.5 L3787.5,118.5 L3790.5,118.5 L3791.2266,118.5 L3792,119.4375 L3792,120 L3792,120.5625 L3791.2266,121.5 L3790.5,121.5 L3781.5,121.5 L3780.7734,121.5 L3780,120.5625 L3780,120 L3780,119.4375 L3780.7734,118.5 L3781.5,118.5 L3784.5,118.5 L3784.5,109.5 L3781.5,109.5 L3780.7734,109.5 L3780,108.5625 L3780,108 L3780,107.4375 L3780.7734,106.5 L3781.5,106.5 L3790.5,106.5 L3791.2266,106.5 L3792,107.4375 L3792,108 L3792,108.5625 L3791.2266,109.5 L3790.5,109.5 L3787.5,109.5 Z "/><text fill="#000000" font-family="sans-serif" font-size="18" font-style="italic" lengthAdjust="spacingAndGlyphs" textLength="238.5" x="3807" y="121.3652">PrometheusComponentType</text><line style="stroke: #A80036; stroke-width: 2.25;" x1="3765" x2="4048.5" y1="138" y2="138"/><line style="stroke: #A80036; stroke-width: 2.25;" x1="3765" x2="4048.5" y1="150" y2="150"/><!--MD5=[6e388ed35fc820a4e1f6edfb890f3f7f]
class TomcatComponentType--><rect fill="#FEFECE" filter="url(#f1quik6yy6x3cu)" height="72" id="TomcatComponentType" style="stroke: #A80036; stroke-width: 2.25;" width="247.5" x="4102.5" y="90"/><ellipse cx="4125" cy="114" fill="#B4A7E5" rx="16.5" ry="16.5" style="stroke: #A80036; stroke-width: 1.5;"/><path d="M4126.5,109.5 L4126.5,118.5 L4129.5,118.5 L4130.2266,118.5 L4131,119.4375 L4131,120 L4131,120.5625 L4130.2266,121.5 L4129.5,121.5 L4120.5,121.5 L4119.7734,121.5 L4119,120.5625 L4119,120 L4119,119.4375 L4119.7734,118.5 L4120.5,118.5 L4123.5,118.5 L4123.5,109.5 L4120.5,109.5 L4119.7734,109.5 L4119,108.5625 L4119,108 L4119,107.4375 L4119.7734,106.5 L4120.5,106.5 L4129.5,106.5 L4130.2266,106.5 L4131,107.4375 L4131,108 L4131,108.5625 L4130.2266,109.5 L4129.5,109.5 L4126.5,109.5 Z "/><text fill="#000000" font-family="sans-serif" font-size="18" font-style="italic" lengthAdjust="spacingAndGlyphs" textLength="199.5" x="4146" y="121.3652">TomcatComponentType</text><line style="stroke: #A80036; stroke-width: 2.25;" x1="4104" x2="4348.5" y1="138" y2="138"/><line style="stroke: #A80036; stroke-width: 2.25;" x1="4104" x2="4348.5" y1="150" y2="150"/><!--MD5=[397bfb2ccbdac6e5efe89b428dc6ed14]
reverse link ComponentImpl to componentproviderImpl.Apache--><path d="M1439.91,152.19 C1327.68,175.74 1156.17,213.255 1008.75,252 C1000.17,254.25 991.395,256.635 982.56,259.095 " fill="none" id="ComponentImpl&lt;-componentproviderImpl.Apache" style="stroke: #A80036; stroke-width: 1.5;"/><polygon fill="none" points="1438.41,141.78,1469.925,145.935,1442.7,162.345,1438.41,141.78" style="stroke: #A80036; stroke-width: 1.5;"/><!--MD5=[f6ebd92417a74a7fcb6438a7c8792fe1]
reverse link ApacheComponentType to componentproviderImpl.Apache--><path d="M824.25,192.51 C824.25,211.89 824.25,232.935 824.25,251.655 " fill="none" id="ApacheComponentType&lt;-componentproviderImpl.Apache" style="stroke: #A80036; stroke-width: 1.5; stroke-dasharray: 7.0,7.0;"/><polygon fill="none" points="813.75,192.21,824.25,162.21,834.75,192.21,813.75,192.21" style="stroke: #A80036; stroke-width: 1.5;"/><!--MD5=[46c5b1eaf955663a9a8f2b744779fe0a]
reverse link ComponentImpl to componentproviderImpl.Flume--><path d="M1439.625,137.73 C1262.52,154.065 923.145,190.62 639.75,252 C631.245,253.845 622.575,255.885 613.845,258.06 " fill="none" id="ComponentImpl&lt;-componentproviderImpl.Flume" style="stroke: #A80036; stroke-width: 1.5;"/><polygon fill="none" points="1438.905,127.245,1469.73,135,1440.795,148.17,1438.905,127.245" style="stroke: #A80036; stroke-width: 1.5;"/><!--MD5=[80909cb88771fd8f44be0ea3b356c971]
reverse link FlumeComponentType to componentproviderImpl.Flume--><path d="M217.635,176.7 C259.77,199.89 310.23,227.67 353.805,251.655 " fill="none" id="FlumeComponentType&lt;-componentproviderImpl.Flume" style="stroke: #A80036; stroke-width: 1.5; stroke-dasharray: 7.0,7.0;"/><polygon fill="none" points="212.52,185.865,191.295,162.21,222.645,167.475,212.52,185.865" style="stroke: #A80036; stroke-width: 1.5;"/><!--MD5=[05950841e52e537ec6ff3f902025bcfc]
reverse link ComponentImpl to componentproviderImpl.MongoDb--><path d="M1462.32,175.71 C1414.56,199.095 1356.93,227.34 1307.265,251.655 " fill="none" id="ComponentImpl&lt;-componentproviderImpl.MongoDb" style="stroke: #A80036; stroke-width: 1.5;"/><polygon fill="none" points="1458.33,165.975,1489.89,162.21,1467.57,184.83,1458.33,165.975" style="stroke: #A80036; stroke-width: 1.5;"/><!--MD5=[b52503a1f0ee1c568545a6474c95f507]
reverse link MongoDBComponentType to componentproviderImpl.MongoDb--><path d="M2828.085,162.375 C2187.15,248.22 2007.495,140.355 1379.25,252 C1370.295,253.59 1361.16,255.465 1351.98,257.55 " fill="none" id="MongoDBComponentType&lt;-componentproviderImpl.MongoDb" style="stroke: #A80036; stroke-width: 1.5; stroke-dasharray: 7.0,7.0;"/><polygon fill="none" points="2826.81,151.95,2857.965,158.28,2829.66,172.755,2826.81,151.95" style="stroke: #A80036; stroke-width: 1.5;"/><!--MD5=[bcf7aa504e4aa3abbac0ee5fe5077f37]
reverse link ComponentImpl to componentproviderImpl.MySQL--><path d="M1560.75,192.51 C1560.75,211.89 1560.75,232.935 1560.75,251.655 " fill="none" id="ComponentImpl&lt;-componentproviderImpl.MySQL" style="stroke: #A80036; stroke-width: 1.5;"/><polygon fill="none" points="1550.25,192.21,1560.75,162.21,1571.25,192.21,1550.25,192.21" style="stroke: #A80036; stroke-width: 1.5;"/><!--MD5=[10af347cdac0cd8e4434288200f6d04b]
reverse link MySQLComponentType to componentproviderImpl.MySQL--><path d="M3148.32,161.94 C2526.21,249.81 2351.34,141.975 1743.75,252 C1734.93,253.59 1725.93,255.48 1716.9,257.55 " fill="none" id="MySQLComponentType&lt;-componentproviderImpl.MySQL" style="stroke: #A80036; stroke-width: 1.5; stroke-dasharray: 7.0,7.0;"/><polygon fill="none" points="3147.09,151.515,3178.29,157.605,3150.09,172.29,3147.09,151.515" style="stroke: #A80036; stroke-width: 1.5;"/><!--MD5=[09e3a83ac7e70157ed85bd1eff2374d8]
reverse link ComponentImpl to componentproviderImpl.Nginx--><path d="M1658.37,175.71 C1705.74,199.095 1762.905,227.34 1812.165,251.655 " fill="none" id="ComponentImpl&lt;-componentproviderImpl.Nginx" style="stroke: #A80036; stroke-width: 1.5;"/><polygon fill="none" points="1653.285,184.905,1631.025,162.21,1662.57,166.08,1653.285,184.905" style="stroke: #A80036; stroke-width: 1.5;"/><!--MD5=[569b2e7eab70e970135125a32be0183c]
reverse link NginxComponentType to componentproviderImpl.Nginx--><path d="M3446.145,161.775 C2853.27,248.445 2686.245,146.385 2108.25,252 C2099.43,253.605 2090.445,255.495 2081.4,257.595 " fill="none" id="NginxComponentType&lt;-componentproviderImpl.Nginx" style="stroke: #A80036; stroke-width: 1.5; stroke-dasharray: 7.0,7.0;"/><polygon fill="none" points="3444.855,151.35,3476.085,157.29,3447.975,172.125,3444.855,151.35" style="stroke: #A80036; stroke-width: 1.5;"/><!--MD5=[82f91f06b2cfb3473e564a76a9fd29e9]
reverse link ComponentImpl to componentproviderImpl.Prometheus--><path d="M1681.62,152.325 C1792.98,175.83 1962.525,213.21 2108.25,252 C2116.53,254.205 2125.005,256.53 2133.54,258.945 " fill="none" id="ComponentImpl&lt;-componentproviderImpl.Prometheus" style="stroke: #A80036; stroke-width: 1.5;"/><polygon fill="none" points="1679.04,162.51,1651.83,146.085,1683.345,141.96,1679.04,162.51" style="stroke: #A80036; stroke-width: 1.5;"/><!--MD5=[ee8c01ad6dfde9208a89aff61fc78f36]
reverse link PrometheusComponentType to componentproviderImpl.Prometheus--><path d="M3733.185,162.09 C3173.625,235.335 3017.19,151.38 2472.75,252 C2463.93,253.635 2454.945,255.525 2445.915,257.64 " fill="none" id="PrometheusComponentType&lt;-componentproviderImpl.Prometheus" style="stroke: #A80036; stroke-width: 1.5; stroke-dasharray: 7.0,7.0;"/><polygon fill="none" points="3732.045,151.65,3763.17,158.07,3734.835,172.455,3732.045,151.65" style="stroke: #A80036; stroke-width: 1.5;"/><!--MD5=[0ffc7be17b492308e5b2d5118f161dab]
reverse link ComponentImpl to componentproviderImpl.Tomcat--><path d="M1681.965,137.775 C1857.72,154.095 2192.91,190.53 2472.75,252 C2481.12,253.845 2489.655,255.87 2498.25,258.045 " fill="none" id="ComponentImpl&lt;-componentproviderImpl.Tomcat" style="stroke: #A80036; stroke-width: 1.5;"/><polygon fill="none" points="1680.495,148.185,1651.56,135.015,1682.385,127.275,1680.495,148.185" style="stroke: #A80036; stroke-width: 1.5;"/><!--MD5=[13b882ad75fca03208e20ecdbe2ceaa4]
reverse link TomcatComponentType to componentproviderImpl.Tomcat--><path d="M4072.68,162.135 C3597.03,239.355 3067.5,280.68 2810.28,297.9 " fill="none" id="TomcatComponentType&lt;-componentproviderImpl.Tomcat" style="stroke: #A80036; stroke-width: 1.5; stroke-dasharray: 7.0,7.0;"/><polygon fill="none" points="4071.18,151.74,4102.485,157.23,4074.585,172.455,4071.18,151.74" style="stroke: #A80036; stroke-width: 1.5;"/><!--MD5=[8f57819b6f71b07aeda2a7eec2b64bda]
@startuml

package componentproviderImpl {
    class componentproviderImpl.Apache extends ComponentImpl implements ApacheComponentType  {
        + Apache(String name)
        + getComponentType() :ComponentType
    }
  }



    class componentproviderImpl.Flume extends ComponentImpl implements FlumeComponentType {
        + Flume(String name)
        + getComponentType() :ComponentType
    }




    class componentproviderImpl.MongoDb extends ComponentImpl implements MongoDBComponentType  {
        + MongoDb(String name)
        + getComponentType() :ComponentType
    }




    class componentproviderImpl.MySQL extends ComponentImpl implements MySQLComponentType{
        + MySQL(String name)
        + getComponentType():ComponentType
    }




    class componentproviderImpl.Nginx extends ComponentImpl implements NginxComponentType{
        + Nginx(String name)
        + getComponentType():ComponentType
    }




    class componentproviderImpl.Prometheus extends ComponentImpl implements PrometheusComponentType{
        + Prometheus(String name)
        + getComponentType():ComponentType
    }




    class componentproviderImpl.Tomcat extends ComponentImpl implements TomcatComponentType {
        + Tomcat(String name)
        + getComponentType():ComponentType
    }


@enduml

PlantUML version 1.2020.09(Sun May 10 12:51:06 CEST 2020)
(GPL source distribution)
Java Runtime: OpenJDK Runtime Environment
JVM: OpenJDK 64-Bit Server VM
Java Version: 11.0.8+10-b944.31
Operating System: Windows 10
Default Encoding: Cp1252
Language: fr
Country: FR
--></g></svg>