<?xml version="1.0" encoding="UTF-8" standalone="no"?><svg xmlns="http://www.w3.org/2000/svg" xmlns:xlink="http://www.w3.org/1999/xlink" contentScriptType="application/ecmascript" contentStyleType="text/css" height="429px" preserveAspectRatio="none" style="width:2901px;height:429px;" version="1.1" viewBox="0 0 2901 429" width="2901px" zoomAndPan="magnify"><defs><filter height="300%" id="foqbmhbbxwtfw" width="300%" x="-1" y="-1"><feGaussianBlur result="blurOut" stdDeviation="3.0"/><feColorMatrix in="blurOut" result="blurOut2" type="matrix" values="0 0 0 0 0 0 0 0 0 0 0 0 0 0 0 0 0 0 .4 0"/><feOffset dx="6.0" dy="6.0" in="blurOut2" result="blurOut3"/><feBlend in="SourceGraphic" in2="blurOut3" mode="normal"/></filter></defs><g><!--MD5=[04c119fcf3f753606689d454d6cc3672]
cluster componentprovider.api--><polygon fill="#FFFFFF" filter="url(#foqbmhbbxwtfw)" points="33,36,289.5,36,300,71.4141,2868,71.4141,2868,411,33,411,33,36" style="stroke: #000000; stroke-width: 2.25;"/><line style="stroke: #000000; stroke-width: 2.25;" x1="33" x2="300" y1="71.4141" y2="71.4141"/><text fill="#000000" font-family="sans-serif" font-size="21" font-weight="bold" lengthAdjust="spacingAndGlyphs" textLength="247.5" x="39" y="60.7998">componentprovider.api</text><!--MD5=[1bec4ddb6067ad1f5f4205f0a54c7fb2]
class componentprovider.api.ApacheComponentType--><rect fill="#FEFECE" filter="url(#foqbmhbbxwtfw)" height="134.2617" id="componentprovider.api.ApacheComponentType" style="stroke: #A80036; stroke-width: 2.25;" width="354" x="57" y="252"/><ellipse cx="127.125" cy="276" fill="#B4A7E5" rx="16.5" ry="16.5" style="stroke: #A80036; stroke-width: 1.5;"/><path d="M128.625,271.5 L128.625,280.5 L131.625,280.5 L132.3516,280.5 L133.125,281.4375 L133.125,282 L133.125,282.5625 L132.3516,283.5 L131.625,283.5 L122.625,283.5 L121.8984,283.5 L121.125,282.5625 L121.125,282 L121.125,281.4375 L121.8984,280.5 L122.625,280.5 L125.625,280.5 L125.625,271.5 L122.625,271.5 L121.8984,271.5 L121.125,270.5625 L121.125,270 L121.125,269.4375 L121.8984,268.5 L122.625,268.5 L131.625,268.5 L132.3516,268.5 L133.125,269.4375 L133.125,270 L133.125,270.5625 L132.3516,271.5 L131.625,271.5 L128.625,271.5 Z "/><text fill="#000000" font-family="sans-serif" font-size="18" font-style="italic" lengthAdjust="spacingAndGlyphs" textLength="201" x="157.875" y="283.3652">ApacheComponentType</text><line style="stroke: #A80036; stroke-width: 2.25;" x1="58.5" x2="409.5" y1="300" y2="300"/><rect fill="none" height="9" style="stroke: #C82930; stroke-width: 1.5;" width="9" x="69" y="312"/><text fill="#000000" font-family="sans-serif" font-size="16.5" lengthAdjust="spacingAndGlyphs" textLength="118.5" x="87" y="323.1284">APACHE : String</text><line style="stroke: #A80036; stroke-width: 2.25;" x1="58.5" x2="409.5" y1="332.7539" y2="332.7539"/><ellipse cx="73.5" cy="349.2539" fill="#84BE84" rx="4.5" ry="4.5" style="stroke: #038048; stroke-width: 1.5;"/><text fill="#000000" font-family="sans-serif" font-size="16.5" lengthAdjust="spacingAndGlyphs" textLength="207" x="87" y="355.8823">componentTypeKey() :String</text><ellipse cx="73.5" cy="370.0078" fill="#84BE84" rx="4.5" ry="4.5" style="stroke: #038048; stroke-width: 1.5;"/><text fill="#000000" font-family="sans-serif" font-size="16.5" lengthAdjust="spacingAndGlyphs" textLength="315" x="87" y="376.6362">createComponent(String name) :Component</text><!--MD5=[6aab0676cf34802cefb399a4f3777211]
class ComponentType--><rect fill="#FEFECE" filter="url(#foqbmhbbxwtfw)" height="72" id="ComponentType" style="stroke: #A80036; stroke-width: 2.25;" width="186" x="1359" y="90"/><ellipse cx="1381.5" cy="114" fill="#B4A7E5" rx="16.5" ry="16.5" style="stroke: #A80036; stroke-width: 1.5;"/><path d="M1383,109.5 L1383,118.5 L1386,118.5 L1386.7266,118.5 L1387.5,119.4375 L1387.5,120 L1387.5,120.5625 L1386.7266,121.5 L1386,121.5 L1377,121.5 L1376.2734,121.5 L1375.5,120.5625 L1375.5,120 L1375.5,119.4375 L1376.2734,118.5 L1377,118.5 L1380,118.5 L1380,109.5 L1377,109.5 L1376.2734,109.5 L1375.5,108.5625 L1375.5,108 L1375.5,107.4375 L1376.2734,106.5 L1377,106.5 L1386,106.5 L1386.7266,106.5 L1387.5,107.4375 L1387.5,108 L1387.5,108.5625 L1386.7266,109.5 L1386,109.5 L1383,109.5 Z "/><text fill="#000000" font-family="sans-serif" font-size="18" font-style="italic" lengthAdjust="spacingAndGlyphs" textLength="138" x="1402.5" y="121.3652">ComponentType</text><line style="stroke: #A80036; stroke-width: 2.25;" x1="1360.5" x2="1543.5" y1="138" y2="138"/><line style="stroke: #A80036; stroke-width: 2.25;" x1="1360.5" x2="1543.5" y1="150" y2="150"/><!--MD5=[e586d98c131636e258566b52a392c1ff]
class componentprovider.api.FlumeComponentType--><rect fill="#FEFECE" filter="url(#foqbmhbbxwtfw)" height="134.2617" id="componentprovider.api.FlumeComponentType" style="stroke: #A80036; stroke-width: 2.25;" width="358.5" x="464.25" y="252"/><ellipse cx="541.875" cy="276" fill="#B4A7E5" rx="16.5" ry="16.5" style="stroke: #A80036; stroke-width: 1.5;"/><path d="M543.375,271.5 L543.375,280.5 L546.375,280.5 L547.1016,280.5 L547.875,281.4375 L547.875,282 L547.875,282.5625 L547.1016,283.5 L546.375,283.5 L537.375,283.5 L536.6484,283.5 L535.875,282.5625 L535.875,282 L535.875,281.4375 L536.6484,280.5 L537.375,280.5 L540.375,280.5 L540.375,271.5 L537.375,271.5 L536.6484,271.5 L535.875,270.5625 L535.875,270 L535.875,269.4375 L536.6484,268.5 L537.375,268.5 L546.375,268.5 L547.1016,268.5 L547.875,269.4375 L547.875,270 L547.875,270.5625 L547.1016,271.5 L546.375,271.5 L543.375,271.5 Z "/><text fill="#000000" font-family="sans-serif" font-size="18" font-style="italic" lengthAdjust="spacingAndGlyphs" textLength="190.5" x="572.625" y="283.3652">FlumeComponentType</text><line style="stroke: #A80036; stroke-width: 2.25;" x1="465.75" x2="821.25" y1="300" y2="300"/><rect fill="none" height="9" style="stroke: #C82930; stroke-width: 1.5;" width="9" x="476.25" y="312"/><text fill="#000000" font-family="sans-serif" font-size="16.5" lengthAdjust="spacingAndGlyphs" textLength="105" x="494.25" y="323.1284">FLUME : String</text><line style="stroke: #A80036; stroke-width: 2.25;" x1="465.75" x2="821.25" y1="332.7539" y2="332.7539"/><ellipse cx="480.75" cy="349.2539" fill="#84BE84" rx="4.5" ry="4.5" style="stroke: #038048; stroke-width: 1.5;"/><text fill="#000000" font-family="sans-serif" font-size="16.5" lengthAdjust="spacingAndGlyphs" textLength="207" x="494.25" y="355.8823">componentTypeKey() :String</text><ellipse cx="480.75" cy="370.0078" fill="#84BE84" rx="4.5" ry="4.5" style="stroke: #038048; stroke-width: 1.5;"/><text fill="#000000" font-family="sans-serif" font-size="16.5" lengthAdjust="spacingAndGlyphs" textLength="319.5" x="494.25" y="376.6362">createComponent(String name)  :Component</text><!--MD5=[2c0d052348b616115a450c7ce4d115bc]
class componentprovider.api.MongoDBComponentType--><rect fill="#FEFECE" filter="url(#foqbmhbbxwtfw)" height="134.2617" id="componentprovider.api.MongoDBComponentType" style="stroke: #A80036; stroke-width: 2.25;" width="349.5" x="875.25" y="252"/><ellipse cx="934.875" cy="276" fill="#B4A7E5" rx="16.5" ry="16.5" style="stroke: #A80036; stroke-width: 1.5;"/><path d="M936.375,271.5 L936.375,280.5 L939.375,280.5 L940.1016,280.5 L940.875,281.4375 L940.875,282 L940.875,282.5625 L940.1016,283.5 L939.375,283.5 L930.375,283.5 L929.6484,283.5 L928.875,282.5625 L928.875,282 L928.875,281.4375 L929.6484,280.5 L930.375,280.5 L933.375,280.5 L933.375,271.5 L930.375,271.5 L929.6484,271.5 L928.875,270.5625 L928.875,270 L928.875,269.4375 L929.6484,268.5 L930.375,268.5 L939.375,268.5 L940.1016,268.5 L940.875,269.4375 L940.875,270 L940.875,270.5625 L940.1016,271.5 L939.375,271.5 L936.375,271.5 Z "/><text fill="#000000" font-family="sans-serif" font-size="18" font-style="italic" lengthAdjust="spacingAndGlyphs" textLength="219" x="964.125" y="283.3652">MongoDBComponentType</text><line style="stroke: #A80036; stroke-width: 2.25;" x1="876.75" x2="1223.25" y1="300" y2="300"/><rect fill="none" height="9" style="stroke: #C82930; stroke-width: 1.5;" width="9" x="887.25" y="312"/><text fill="#000000" font-family="sans-serif" font-size="16.5" lengthAdjust="spacingAndGlyphs" textLength="135" x="905.25" y="323.1284">MONGODB : String</text><line style="stroke: #A80036; stroke-width: 2.25;" x1="876.75" x2="1223.25" y1="332.7539" y2="332.7539"/><ellipse cx="891.75" cy="349.2539" fill="#84BE84" rx="4.5" ry="4.5" style="stroke: #038048; stroke-width: 1.5;"/><text fill="#000000" font-family="sans-serif" font-size="16.5" lengthAdjust="spacingAndGlyphs" textLength="207" x="905.25" y="355.8823">componentTypeKey() :String</text><ellipse cx="891.75" cy="370.0078" fill="#84BE84" rx="4.5" ry="4.5" style="stroke: #038048; stroke-width: 1.5;"/><text fill="#000000" font-family="sans-serif" font-size="16.5" lengthAdjust="spacingAndGlyphs" textLength="310.5" x="905.25" y="376.6362">createComponent(String name):Component</text><!--MD5=[ea09301ba3cd8b6f1e5fcf5f251e2103]
class componentprovider.api.MySQLComponentType--><rect fill="#FEFECE" filter="url(#foqbmhbbxwtfw)" height="134.2617" id="componentprovider.api.MySQLComponentType" style="stroke: #A80036; stroke-width: 2.25;" width="349.5" x="1277.25" y="252"/><ellipse cx="1347.375" cy="276" fill="#B4A7E5" rx="16.5" ry="16.5" style="stroke: #A80036; stroke-width: 1.5;"/><path d="M1348.875,271.5 L1348.875,280.5 L1351.875,280.5 L1352.6016,280.5 L1353.375,281.4375 L1353.375,282 L1353.375,282.5625 L1352.6016,283.5 L1351.875,283.5 L1342.875,283.5 L1342.1484,283.5 L1341.375,282.5625 L1341.375,282 L1341.375,281.4375 L1342.1484,280.5 L1342.875,280.5 L1345.875,280.5 L1345.875,271.5 L1342.875,271.5 L1342.1484,271.5 L1341.375,270.5625 L1341.375,270 L1341.375,269.4375 L1342.1484,268.5 L1342.875,268.5 L1351.875,268.5 L1352.6016,268.5 L1353.375,269.4375 L1353.375,270 L1353.375,270.5625 L1352.6016,271.5 L1351.875,271.5 L1348.875,271.5 Z "/><text fill="#000000" font-family="sans-serif" font-size="18" font-style="italic" lengthAdjust="spacingAndGlyphs" textLength="196.5" x="1378.125" y="283.3652">MySQLComponentType</text><line style="stroke: #A80036; stroke-width: 2.25;" x1="1278.75" x2="1625.25" y1="300" y2="300"/><rect fill="none" height="9" style="stroke: #C82930; stroke-width: 1.5;" width="9" x="1289.25" y="312"/><text fill="#000000" font-family="sans-serif" font-size="16.5" lengthAdjust="spacingAndGlyphs" textLength="111" x="1307.25" y="323.1284">MYSQL : String</text><line style="stroke: #A80036; stroke-width: 2.25;" x1="1278.75" x2="1625.25" y1="332.7539" y2="332.7539"/><ellipse cx="1293.75" cy="349.2539" fill="#84BE84" rx="4.5" ry="4.5" style="stroke: #038048; stroke-width: 1.5;"/><text fill="#000000" font-family="sans-serif" font-size="16.5" lengthAdjust="spacingAndGlyphs" textLength="207" x="1307.25" y="355.8823">componentTypeKey() :String</text><ellipse cx="1293.75" cy="370.0078" fill="#84BE84" rx="4.5" ry="4.5" style="stroke: #038048; stroke-width: 1.5;"/><text fill="#000000" font-family="sans-serif" font-size="16.5" lengthAdjust="spacingAndGlyphs" textLength="310.5" x="1307.25" y="376.6362">createComponent(String name):Component</text><!--MD5=[e3a1671e570ad0a4c69142262c1c49d6]
class componentprovider.api.NginxComponentType--><rect fill="#FEFECE" filter="url(#foqbmhbbxwtfw)" height="134.2617" id="componentprovider.api.NginxComponentType" style="stroke: #A80036; stroke-width: 2.25;" width="354" x="1680" y="252"/><ellipse cx="1757.625" cy="276" fill="#B4A7E5" rx="16.5" ry="16.5" style="stroke: #A80036; stroke-width: 1.5;"/><path d="M1759.125,271.5 L1759.125,280.5 L1762.125,280.5 L1762.8516,280.5 L1763.625,281.4375 L1763.625,282 L1763.625,282.5625 L1762.8516,283.5 L1762.125,283.5 L1753.125,283.5 L1752.3984,283.5 L1751.625,282.5625 L1751.625,282 L1751.625,281.4375 L1752.3984,280.5 L1753.125,280.5 L1756.125,280.5 L1756.125,271.5 L1753.125,271.5 L1752.3984,271.5 L1751.625,270.5625 L1751.625,270 L1751.625,269.4375 L1752.3984,268.5 L1753.125,268.5 L1762.125,268.5 L1762.8516,268.5 L1763.625,269.4375 L1763.625,270 L1763.625,270.5625 L1762.8516,271.5 L1762.125,271.5 L1759.125,271.5 Z "/><text fill="#000000" font-family="sans-serif" font-size="18" font-style="italic" lengthAdjust="spacingAndGlyphs" textLength="186" x="1788.375" y="283.3652">NginxComponentType</text><line style="stroke: #A80036; stroke-width: 2.25;" x1="1681.5" x2="2032.5" y1="300" y2="300"/><rect fill="none" height="9" style="stroke: #C82930; stroke-width: 1.5;" width="9" x="1692" y="312"/><text fill="#000000" font-family="sans-serif" font-size="16.5" lengthAdjust="spacingAndGlyphs" textLength="102" x="1710" y="323.1284">NGINX : String</text><line style="stroke: #A80036; stroke-width: 2.25;" x1="1681.5" x2="2032.5" y1="332.7539" y2="332.7539"/><ellipse cx="1696.5" cy="349.2539" fill="#84BE84" rx="4.5" ry="4.5" style="stroke: #038048; stroke-width: 1.5;"/><text fill="#000000" font-family="sans-serif" font-size="16.5" lengthAdjust="spacingAndGlyphs" textLength="207" x="1710" y="355.8823">componentTypeKey() :String</text><ellipse cx="1696.5" cy="370.0078" fill="#84BE84" rx="4.5" ry="4.5" style="stroke: #038048; stroke-width: 1.5;"/><text fill="#000000" font-family="sans-serif" font-size="16.5" lengthAdjust="spacingAndGlyphs" textLength="315" x="1710" y="376.6362">createComponent(String name) :Component</text><!--MD5=[38d8a122f60d0152bdaf4f3e4cf42782]
class componentprovider.api.PrometheusComponentType--><rect fill="#FEFECE" filter="url(#foqbmhbbxwtfw)" height="134.2617" id="componentprovider.api.PrometheusComponentType" style="stroke: #A80036; stroke-width: 2.25;" width="354" x="2086.5" y="252"/><ellipse cx="2139.375" cy="276" fill="#B4A7E5" rx="16.5" ry="16.5" style="stroke: #A80036; stroke-width: 1.5;"/><path d="M2140.875,271.5 L2140.875,280.5 L2143.875,280.5 L2144.6016,280.5 L2145.375,281.4375 L2145.375,282 L2145.375,282.5625 L2144.6016,283.5 L2143.875,283.5 L2134.875,283.5 L2134.1484,283.5 L2133.375,282.5625 L2133.375,282 L2133.375,281.4375 L2134.1484,280.5 L2134.875,280.5 L2137.875,280.5 L2137.875,271.5 L2134.875,271.5 L2134.1484,271.5 L2133.375,270.5625 L2133.375,270 L2133.375,269.4375 L2134.1484,268.5 L2134.875,268.5 L2143.875,268.5 L2144.6016,268.5 L2145.375,269.4375 L2145.375,270 L2145.375,270.5625 L2144.6016,271.5 L2143.875,271.5 L2140.875,271.5 Z "/><text fill="#000000" font-family="sans-serif" font-size="18" font-style="italic" lengthAdjust="spacingAndGlyphs" textLength="238.5" x="2167.125" y="283.3652">PrometheusComponentType</text><line style="stroke: #A80036; stroke-width: 2.25;" x1="2088" x2="2439" y1="300" y2="300"/><rect fill="none" height="9" style="stroke: #C82930; stroke-width: 1.5;" width="9" x="2098.5" y="312"/><text fill="#000000" font-family="sans-serif" font-size="16.5" lengthAdjust="spacingAndGlyphs" textLength="157.5" x="2116.5" y="323.1284">PROMETHEUS : String</text><line style="stroke: #A80036; stroke-width: 2.25;" x1="2088" x2="2439" y1="332.7539" y2="332.7539"/><ellipse cx="2103" cy="349.2539" fill="#84BE84" rx="4.5" ry="4.5" style="stroke: #038048; stroke-width: 1.5;"/><text fill="#000000" font-family="sans-serif" font-size="16.5" lengthAdjust="spacingAndGlyphs" textLength="207" x="2116.5" y="355.8823">componentTypeKey() :String</text><ellipse cx="2103" cy="370.0078" fill="#84BE84" rx="4.5" ry="4.5" style="stroke: #038048; stroke-width: 1.5;"/><text fill="#000000" font-family="sans-serif" font-size="16.5" lengthAdjust="spacingAndGlyphs" textLength="315" x="2116.5" y="376.6362">createComponent(String name) :Component</text><!--MD5=[b1aa488a525eece3e05367be98297507]
class componentprovider.api.TomcatComponentType--><rect fill="#FEFECE" filter="url(#foqbmhbbxwtfw)" height="134.2617" id="componentprovider.api.TomcatComponentType" style="stroke: #A80036; stroke-width: 2.25;" width="349.5" x="2493.75" y="252"/><ellipse cx="2562.375" cy="276" fill="#B4A7E5" rx="16.5" ry="16.5" style="stroke: #A80036; stroke-width: 1.5;"/><path d="M2563.875,271.5 L2563.875,280.5 L2566.875,280.5 L2567.6016,280.5 L2568.375,281.4375 L2568.375,282 L2568.375,282.5625 L2567.6016,283.5 L2566.875,283.5 L2557.875,283.5 L2557.1484,283.5 L2556.375,282.5625 L2556.375,282 L2556.375,281.4375 L2557.1484,280.5 L2557.875,280.5 L2560.875,280.5 L2560.875,271.5 L2557.875,271.5 L2557.1484,271.5 L2556.375,270.5625 L2556.375,270 L2556.375,269.4375 L2557.1484,268.5 L2557.875,268.5 L2566.875,268.5 L2567.6016,268.5 L2568.375,269.4375 L2568.375,270 L2568.375,270.5625 L2567.6016,271.5 L2566.875,271.5 L2563.875,271.5 Z "/><text fill="#000000" font-family="sans-serif" font-size="18" font-style="italic" lengthAdjust="spacingAndGlyphs" textLength="199.5" x="2593.125" y="283.3652">TomcatComponentType</text><line style="stroke: #A80036; stroke-width: 2.25;" x1="2495.25" x2="2841.75" y1="300" y2="300"/><rect fill="none" height="9" style="stroke: #C82930; stroke-width: 1.5;" width="9" x="2505.75" y="312"/><text fill="#000000" font-family="sans-serif" font-size="16.5" lengthAdjust="spacingAndGlyphs" textLength="120" x="2523.75" y="323.1284">TOMCAT : String</text><line style="stroke: #A80036; stroke-width: 2.25;" x1="2495.25" x2="2841.75" y1="332.7539" y2="332.7539"/><ellipse cx="2510.25" cy="349.2539" fill="#84BE84" rx="4.5" ry="4.5" style="stroke: #038048; stroke-width: 1.5;"/><text fill="#000000" font-family="sans-serif" font-size="16.5" lengthAdjust="spacingAndGlyphs" textLength="202.5" x="2523.75" y="355.8823">componentTypeKey():String</text><ellipse cx="2510.25" cy="370.0078" fill="#84BE84" rx="4.5" ry="4.5" style="stroke: #038048; stroke-width: 1.5;"/><text fill="#000000" font-family="sans-serif" font-size="16.5" lengthAdjust="spacingAndGlyphs" textLength="310.5" x="2523.75" y="376.6362">createComponent(String name):Component</text><!--MD5=[a86d784f18e59cd104fa2d4ba92ef93a]
reverse link ComponentType to componentprovider.api.ApacheComponentType--><path d="M1328.415,135.045 C1136.16,148.5 754.62,182.01 438,252 C429.27,253.935 420.39,256.08 411.465,258.375 " fill="none" id="ComponentType&lt;-componentprovider.api.ApacheComponentType" style="stroke: #A80036; stroke-width: 1.5;"/><polygon fill="none" points="1328.085,124.545,1358.73,132.99,1329.51,145.5,1328.085,124.545" style="stroke: #A80036; stroke-width: 1.5;"/><!--MD5=[437b130d2b66ad5c972dc8bdf808a37b]
reverse link ComponentType to componentprovider.api.FlumeComponentType--><path d="M1329.27,148.845 C1206.795,171.09 1013.64,208.695 849,252 C840.48,254.235 831.795,256.62 823.05,259.11 " fill="none" id="ComponentType&lt;-componentprovider.api.FlumeComponentType" style="stroke: #A80036; stroke-width: 1.5;"/><polygon fill="none" points="1327.44,138.51,1358.82,143.535,1331.16,159.18,1327.44,138.51" style="stroke: #A80036; stroke-width: 1.5;"/><!--MD5=[661d668f18fb62c8a70d66153e0f5838]
reverse link ComponentType to componentprovider.api.MongoDBComponentType--><path d="M1351.275,175.23 C1302.315,198.435 1242.705,226.68 1189.455,251.91 " fill="none" id="ComponentType&lt;-componentprovider.api.MongoDBComponentType" style="stroke: #A80036; stroke-width: 1.5;"/><polygon fill="none" points="1347.135,165.585,1378.74,162.225,1356.12,184.56,1347.135,165.585" style="stroke: #A80036; stroke-width: 1.5;"/><!--MD5=[9e6abf01f9ba0125b4da9243cc632800]
reverse link ComponentType to componentprovider.api.MySQLComponentType--><path d="M1452,193.005 C1452,211.965 1452,232.665 1452,251.67 " fill="none" id="ComponentType&lt;-componentprovider.api.MySQLComponentType" style="stroke: #A80036; stroke-width: 1.5;"/><polygon fill="none" points="1441.5,192.435,1452,162.435,1462.5,192.435,1441.5,192.435" style="stroke: #A80036; stroke-width: 1.5;"/><!--MD5=[c09c212e347825e073be4c527fa2a6cd]
reverse link ComponentType to componentprovider.api.NginxComponentType--><path d="M1553.475,175.23 C1602.795,198.435 1662.87,226.68 1716.51,251.91 " fill="none" id="ComponentType&lt;-componentprovider.api.NginxComponentType" style="stroke: #A80036; stroke-width: 1.5;"/><polygon fill="none" points="1548.495,184.485,1525.815,162.225,1557.435,165.48,1548.495,184.485" style="stroke: #A80036; stroke-width: 1.5;"/><!--MD5=[912090ec67baf06bc7be8bbe66d9920c]
reverse link ComponentType to componentprovider.api.PrometheusComponentType--><path d="M1574.925,148.395 C1698.6,170.415 1894.365,207.96 2061,252 C2069.22,254.175 2077.605,256.485 2086.05,258.9 " fill="none" id="ComponentType&lt;-componentprovider.api.PrometheusComponentType" style="stroke: #A80036; stroke-width: 1.5;"/><polygon fill="none" points="1572.825,158.685,1545.105,143.145,1576.47,138.015,1572.825,158.685" style="stroke: #A80036; stroke-width: 1.5;"/><!--MD5=[fd97a167771f62dd02e48ad5048da913]
reverse link ComponentType to componentprovider.api.TomcatComponentType--><path d="M1575.81,134.865 C1768.395,148.05 2150.565,181.245 2467.5,252 C2476.11,253.92 2484.855,256.065 2493.66,258.36 " fill="none" id="ComponentType&lt;-componentprovider.api.TomcatComponentType" style="stroke: #A80036; stroke-width: 1.5;"/><polygon fill="none" points="1574.685,145.305,1545.45,132.84,1576.08,124.35,1574.685,145.305" style="stroke: #A80036; stroke-width: 1.5;"/><!--MD5=[63908c82418c99f647c70143dc0d5561]
@startuml
  package componentprovider.api {


    interface componentprovider.api.ApacheComponentType extends ComponentType {
        - APACHE : String
        + componentTypeKey() :String
        + createComponent(String name) :Component
    }




    interface componentprovider.api.FlumeComponentType extends ComponentType {
        - FLUME : String
        + componentTypeKey() :String
        + createComponent(String name)  :Component
    }




    interface componentprovider.api.MongoDBComponentType extends ComponentType{
        - MONGODB : String
        + componentTypeKey() :String
        + createComponent(String name):Component
    }




    interface componentprovider.api.MySQLComponentType extends ComponentType{
        - MYSQL : String
        + componentTypeKey() :String
        + createComponent(String name):Component
    }




    interface componentprovider.api.NginxComponentType  extends ComponentType{
        - NGINX : String
        + componentTypeKey() :String
        + createComponent(String name) :Component
    }




    interface componentprovider.api.PrometheusComponentType extends ComponentType{
        - PROMETHEUS : String
        + componentTypeKey() :String
        + createComponent(String name) :Component
    }




    interface componentprovider.api.TomcatComponentType extends ComponentType {
        - TOMCAT : String
        + componentTypeKey():String
        + createComponent(String name):Component
    }


  }


@enduml

PlantUML version 1.2020.09(Sun May 10 12:51:06 CEST 2020)
(GPL source distribution)
Java Runtime: OpenJDK Runtime Environment
JVM: OpenJDK 64-Bit Server VM
Java Version: 11.0.8+10-b944.31
Operating System: Windows 10
Default Encoding: Cp1252
Language: fr
Country: FR
--></g></svg>