<?xml version="1.0" encoding="UTF-8" standalone="no"?><svg xmlns="http://www.w3.org/2000/svg" xmlns:xlink="http://www.w3.org/1999/xlink" contentScriptType="application/ecmascript" contentStyleType="text/css" height="697.5px" preserveAspectRatio="none" style="width:1299px;height:697px;" version="1.1" viewBox="0 0 1299 697" width="1299px" zoomAndPan="magnify"><defs><filter height="300%" id="f1box59b4v2gcp" width="300%" x="-1" y="-1"><feGaussianBlur result="blurOut" stdDeviation="3.0"/><feColorMatrix in="blurOut" result="blurOut2" type="matrix" values="0 0 0 0 0 0 0 0 0 0 0 0 0 0 0 0 0 0 .4 0"/><feOffset dx="6.0" dy="6.0" in="blurOut2" result="blurOut3"/><feBlend in="SourceGraphic" in2="blurOut3" mode="normal"/></filter></defs><g><!--MD5=[88ba79ad046eb76f8927318853783fd0]
cluster creation.cloudproviders.amiazon--><polygon fill="#FFFFFF" filter="url(#f1box59b4v2gcp)" points="33,36,388.5,36,399,71.4141,1266,71.4141,1266,679.5,33,679.5,33,36" style="stroke: #000000; stroke-width: 2.25;"/><line style="stroke: #000000; stroke-width: 2.25;" x1="33" x2="399" y1="71.4141" y2="71.4141"/><text fill="#000000" font-family="sans-serif" font-size="21" font-weight="bold" lengthAdjust="spacingAndGlyphs" textLength="346.5" x="39" y="60.7998">creation.cloudproviders.amiazon</text><!--MD5=[2bb80c086c56786eaffbcb62361e43b5]
class creation.cloudproviders.amiazon.AmiazonCloud--><rect fill="#FEFECE" filter="url(#f1box59b4v2gcp)" height="92.7539" id="creation.cloudproviders.amiazon.AmiazonCloud" style="stroke: #A80036; stroke-width: 2.25;" width="240" x="1002" y="407.25"/><ellipse cx="1056.9" cy="431.25" fill="#ADD1B2" rx="16.5" ry="16.5" style="stroke: #A80036; stroke-width: 1.5;"/><path d="M1059.9,426 Q1060.2047,425.25 1060.5563,424.875 Q1060.9078,424.5 1061.3063,424.5 Q1062.0094,424.5 1062.4547,424.9219 Q1062.9,425.3438 1062.9,426.3281 L1062.9,428.6719 Q1062.9,429.6563 1062.4781,430.0781 Q1062.0563,430.5 1061.4,430.5 Q1060.8141,430.5 1060.4391,430.2422 Q1060.0641,429.9844 1059.9,429.3047 Q1059.8297,428.8359 1059.5719,428.5781 Q1059.1031,428.0859 1058.2594,427.8047 Q1057.4156,427.5 1056.5719,427.5 Q1055.5172,427.5 1054.6266,427.9219 Q1053.7594,428.3438 1053.0797,429.2813 Q1052.4,430.2188 1052.4,431.5078 L1052.4,432.8906 Q1052.4,434.4375 1053.6656,435.4688 Q1054.9313,436.5 1057.1813,436.5 Q1058.5172,436.5 1059.4547,436.1953 Q1059.9938,436.0313 1060.6031,435.4922 Q1061.0016,435.1875 1061.2125,435.0938 Q1061.4234,435 1061.6813,435 Q1062.1734,435 1062.525,435.3984 Q1062.9,435.7734 1062.9,436.3125 Q1062.9,436.8281 1062.3844,437.4375 Q1061.6344,438.3281 1060.4391,438.8203 Q1058.8688,439.5 1056.9469,439.5 Q1054.6969,439.5 1052.8922,438.6094 Q1051.4391,437.9063 1050.4078,436.3828 Q1049.4,434.8594 1049.4,433.0547 L1049.4,431.4141 Q1049.4,429.5391 1050.2906,427.8984 Q1051.2047,426.2578 1052.775,425.3906 Q1054.3688,424.5 1056.15,424.5 Q1057.2281,424.5 1058.1656,424.875 Q1059.1031,425.25 1059.9,426 Z "/><text fill="#000000" font-family="sans-serif" font-size="18" lengthAdjust="spacingAndGlyphs" textLength="120" x="1085.1" y="438.6152">AmiazonCloud</text><line style="stroke: #A80036; stroke-width: 2.25;" x1="1003.5" x2="1240.5" y1="455.25" y2="455.25"/><line style="stroke: #A80036; stroke-width: 2.25;" x1="1003.5" x2="1240.5" y1="467.25" y2="467.25"/><ellipse cx="1018.5" cy="483.75" fill="#84BE84" rx="4.5" ry="4.5" style="stroke: #038048; stroke-width: 1.5;"/><text fill="#000000" font-family="sans-serif" font-size="16.5" lengthAdjust="spacingAndGlyphs" textLength="201" x="1032" y="490.3784">AmiazonCloud(String name)</text><!--MD5=[58d2c3daaf8e42dc796cbdf6e12085f3]
class CloudImpl--><rect fill="#FEFECE" filter="url(#f1box59b4v2gcp)" height="72" id="CloudImpl" style="stroke: #A80036; stroke-width: 2.25;" width="133.5" x="1055.25" y="90"/><ellipse cx="1077.75" cy="114" fill="#ADD1B2" rx="16.5" ry="16.5" style="stroke: #A80036; stroke-width: 1.5;"/><path d="M1080.75,108.75 Q1081.0547,108 1081.4063,107.625 Q1081.7578,107.25 1082.1563,107.25 Q1082.8594,107.25 1083.3047,107.6719 Q1083.75,108.0938 1083.75,109.0781 L1083.75,111.4219 Q1083.75,112.4063 1083.3281,112.8281 Q1082.9063,113.25 1082.25,113.25 Q1081.6641,113.25 1081.2891,112.9922 Q1080.9141,112.7344 1080.75,112.0547 Q1080.6797,111.5859 1080.4219,111.3281 Q1079.9531,110.8359 1079.1094,110.5547 Q1078.2656,110.25 1077.4219,110.25 Q1076.3672,110.25 1075.4766,110.6719 Q1074.6094,111.0938 1073.9297,112.0313 Q1073.25,112.9688 1073.25,114.2578 L1073.25,115.6406 Q1073.25,117.1875 1074.5156,118.2188 Q1075.7813,119.25 1078.0313,119.25 Q1079.3672,119.25 1080.3047,118.9453 Q1080.8438,118.7813 1081.4531,118.2422 Q1081.8516,117.9375 1082.0625,117.8438 Q1082.2734,117.75 1082.5313,117.75 Q1083.0234,117.75 1083.375,118.1484 Q1083.75,118.5234 1083.75,119.0625 Q1083.75,119.5781 1083.2344,120.1875 Q1082.4844,121.0781 1081.2891,121.5703 Q1079.7188,122.25 1077.7969,122.25 Q1075.5469,122.25 1073.7422,121.3594 Q1072.2891,120.6563 1071.2578,119.1328 Q1070.25,117.6094 1070.25,115.8047 L1070.25,114.1641 Q1070.25,112.2891 1071.1406,110.6484 Q1072.0547,109.0078 1073.625,108.1406 Q1075.2188,107.25 1077,107.25 Q1078.0781,107.25 1079.0156,107.625 Q1079.9531,108 1080.75,108.75 Z "/><text fill="#000000" font-family="sans-serif" font-size="18" lengthAdjust="spacingAndGlyphs" textLength="85.5" x="1098.75" y="121.3652">CloudImpl</text><line style="stroke: #A80036; stroke-width: 2.25;" x1="1056.75" x2="1187.25" y1="138" y2="138"/><line style="stroke: #A80036; stroke-width: 2.25;" x1="1056.75" x2="1187.25" y1="150" y2="150"/><!--MD5=[d8c44d8f42bb483f30c80d0c7e026641]
class creation.cloudproviders.amiazon.AmiazonCloudProvider--><rect fill="#FEFECE" filter="url(#f1box59b4v2gcp)" height="155.0156" id="creation.cloudproviders.amiazon.AmiazonCloudProvider" style="stroke: #A80036; stroke-width: 2.25;" width="420" x="529.5" y="376.5"/><ellipse cx="639.375" cy="400.5" fill="#ADD1B2" rx="16.5" ry="16.5" style="stroke: #A80036; stroke-width: 1.5;"/><path d="M642.375,395.25 Q642.6797,394.5 643.0313,394.125 Q643.3828,393.75 643.7813,393.75 Q644.4844,393.75 644.9297,394.1719 Q645.375,394.5938 645.375,395.5781 L645.375,397.9219 Q645.375,398.9063 644.9531,399.3281 Q644.5313,399.75 643.875,399.75 Q643.2891,399.75 642.9141,399.4922 Q642.5391,399.2344 642.375,398.5547 Q642.3047,398.0859 642.0469,397.8281 Q641.5781,397.3359 640.7344,397.0547 Q639.8906,396.75 639.0469,396.75 Q637.9922,396.75 637.1016,397.1719 Q636.2344,397.5938 635.5547,398.5313 Q634.875,399.4688 634.875,400.7578 L634.875,402.1406 Q634.875,403.6875 636.1406,404.7188 Q637.4063,405.75 639.6563,405.75 Q640.9922,405.75 641.9297,405.4453 Q642.4688,405.2813 643.0781,404.7422 Q643.4766,404.4375 643.6875,404.3438 Q643.8984,404.25 644.1563,404.25 Q644.6484,404.25 645,404.6484 Q645.375,405.0234 645.375,405.5625 Q645.375,406.0781 644.8594,406.6875 Q644.1094,407.5781 642.9141,408.0703 Q641.3438,408.75 639.4219,408.75 Q637.1719,408.75 635.3672,407.8594 Q633.9141,407.1563 632.8828,405.6328 Q631.875,404.1094 631.875,402.3047 L631.875,400.6641 Q631.875,398.7891 632.7656,397.1484 Q633.6797,395.5078 635.25,394.6406 Q636.8438,393.75 638.625,393.75 Q639.7031,393.75 640.6406,394.125 Q641.5781,394.5 642.375,395.25 Z "/><text fill="#000000" font-family="sans-serif" font-size="18" lengthAdjust="spacingAndGlyphs" textLength="187.5" x="670.125" y="407.8652">AmiazonCloudProvider</text><line style="stroke: #A80036; stroke-width: 2.25;" x1="531" x2="948" y1="424.5" y2="424.5"/><rect fill="none" height="9" style="stroke: #C82930; stroke-width: 1.5;" width="9" x="541.5" y="436.5"/><text fill="#000000" font-family="sans-serif" font-size="16.5" lengthAdjust="spacingAndGlyphs" textLength="127.5" x="559.5" y="447.6284">AMIAZON : String</text><line style="stroke: #A80036; stroke-width: 2.25;" x1="531" x2="948" y1="457.2539" y2="457.2539"/><ellipse cx="546" cy="473.7539" fill="#84BE84" rx="4.5" ry="4.5" style="stroke: #038048; stroke-width: 1.5;"/><text fill="#000000" font-family="sans-serif" font-size="16.5" lengthAdjust="spacingAndGlyphs" textLength="234" x="559.5" y="480.3823">createCloud(String name) :Cloud</text><ellipse cx="546" cy="494.5078" fill="#84BE84" rx="4.5" ry="4.5" style="stroke: #038048; stroke-width: 1.5;"/><text fill="#000000" font-family="sans-serif" font-size="16.5" lengthAdjust="spacingAndGlyphs" textLength="381" x="559.5" y="501.1362">createDeploymentPlan(String name) :DeploymentPlan</text><ellipse cx="546" cy="515.2617" fill="#84BE84" rx="4.5" ry="4.5" style="stroke: #038048; stroke-width: 1.5;"/><text fill="#000000" font-family="sans-serif" font-size="16.5" lengthAdjust="spacingAndGlyphs" textLength="126" x="559.5" y="521.8901">getName() :String</text><!--MD5=[39248902141859dc38e6fa0976e425ea]
class CloudProvider--><rect fill="#FEFECE" filter="url(#f1box59b4v2gcp)" height="72" id="CloudProvider" style="stroke: #A80036; stroke-width: 2.25;" width="166.5" x="656.25" y="90"/><ellipse cx="678.75" cy="114" fill="#B4A7E5" rx="16.5" ry="16.5" style="stroke: #A80036; stroke-width: 1.5;"/><path d="M680.25,109.5 L680.25,118.5 L683.25,118.5 L683.9766,118.5 L684.75,119.4375 L684.75,120 L684.75,120.5625 L683.9766,121.5 L683.25,121.5 L674.25,121.5 L673.5234,121.5 L672.75,120.5625 L672.75,120 L672.75,119.4375 L673.5234,118.5 L674.25,118.5 L677.25,118.5 L677.25,109.5 L674.25,109.5 L673.5234,109.5 L672.75,108.5625 L672.75,108 L672.75,107.4375 L673.5234,106.5 L674.25,106.5 L683.25,106.5 L683.9766,106.5 L684.75,107.4375 L684.75,108 L684.75,108.5625 L683.9766,109.5 L683.25,109.5 L680.25,109.5 Z "/><text fill="#000000" font-family="sans-serif" font-size="18" font-style="italic" lengthAdjust="spacingAndGlyphs" textLength="118.5" x="699.75" y="121.3652">CloudProvider</text><line style="stroke: #A80036; stroke-width: 2.25;" x1="657.75" x2="821.25" y1="138" y2="138"/><line style="stroke: #A80036; stroke-width: 2.25;" x1="657.75" x2="821.25" y1="150" y2="150"/><!--MD5=[764874e9d605a9b07811504ba26dda57]
class creation.cloudproviders.amiazon.AmiazonDeploymentPlanCreator--><rect fill="#FEFECE" filter="url(#f1box59b4v2gcp)" height="404.0625" id="creation.cloudproviders.amiazon.AmiazonDeploymentPlanCreator" style="stroke: #A80036; stroke-width: 2.25;" width="420" x="57" y="252"/><ellipse cx="126.375" cy="276" fill="#ADD1B2" rx="16.5" ry="16.5" style="stroke: #A80036; stroke-width: 1.5;"/><path d="M129.375,270.75 Q129.6797,270 130.0313,269.625 Q130.3828,269.25 130.7813,269.25 Q131.4844,269.25 131.9297,269.6719 Q132.375,270.0938 132.375,271.0781 L132.375,273.4219 Q132.375,274.4063 131.9531,274.8281 Q131.5313,275.25 130.875,275.25 Q130.2891,275.25 129.9141,274.9922 Q129.5391,274.7344 129.375,274.0547 Q129.3047,273.5859 129.0469,273.3281 Q128.5781,272.8359 127.7344,272.5547 Q126.8906,272.25 126.0469,272.25 Q124.9922,272.25 124.1016,272.6719 Q123.2344,273.0938 122.5547,274.0313 Q121.875,274.9688 121.875,276.2578 L121.875,277.6406 Q121.875,279.1875 123.1406,280.2188 Q124.4063,281.25 126.6563,281.25 Q127.9922,281.25 128.9297,280.9453 Q129.4688,280.7813 130.0781,280.2422 Q130.4766,279.9375 130.6875,279.8438 Q130.8984,279.75 131.1563,279.75 Q131.6484,279.75 132,280.1484 Q132.375,280.5234 132.375,281.0625 Q132.375,281.5781 131.8594,282.1875 Q131.1094,283.0781 129.9141,283.5703 Q128.3438,284.25 126.4219,284.25 Q124.1719,284.25 122.3672,283.3594 Q120.9141,282.6563 119.8828,281.1328 Q118.875,279.6094 118.875,277.8047 L118.875,276.1641 Q118.875,274.2891 119.7656,272.6484 Q120.6797,271.0078 122.25,270.1406 Q123.8438,269.25 125.625,269.25 Q126.7031,269.25 127.6406,269.625 Q128.5781,270 129.375,270.75 Z "/><text fill="#000000" font-family="sans-serif" font-size="18" lengthAdjust="spacingAndGlyphs" textLength="268.5" x="157.125" y="283.3652">AmiazonDeploymentPlanCreator</text><line style="stroke: #A80036; stroke-width: 2.25;" x1="58.5" x2="475.5" y1="300" y2="300"/><rect fill="none" height="9" style="stroke: #C82930; stroke-width: 1.5;" width="9" x="69" y="312"/><text fill="#000000" font-family="sans-serif" font-size="16.5" lengthAdjust="spacingAndGlyphs" textLength="319.5" x="87" y="323.1284">INSTANCE : AmiazonDeploymentPlanCreator</text><rect fill="none" height="9" style="stroke: #C82930; stroke-width: 1.5;" width="9" x="69" y="332.7539"/><text fill="#000000" font-family="sans-serif" font-size="16.5" lengthAdjust="spacingAndGlyphs" textLength="196.5" x="87" y="343.8823">DEFAULT_APACHE : String</text><rect fill="none" height="9" style="stroke: #C82930; stroke-width: 1.5;" width="9" x="69" y="353.5078"/><text fill="#000000" font-family="sans-serif" font-size="16.5" lengthAdjust="spacingAndGlyphs" textLength="180" x="87" y="364.6362">DEFAULT_NGINX : String</text><rect fill="none" height="9" style="stroke: #C82930; stroke-width: 1.5;" width="9" x="69" y="374.2617"/><text fill="#000000" font-family="sans-serif" font-size="16.5" lengthAdjust="spacingAndGlyphs" textLength="198" x="87" y="385.3901">DEFAULT_TOMCAT : String</text><rect fill="none" height="9" style="stroke: #C82930; stroke-width: 1.5;" width="9" x="69" y="395.0156"/><text fill="#000000" font-family="sans-serif" font-size="16.5" lengthAdjust="spacingAndGlyphs" textLength="189" x="87" y="406.144">DEFAULT_MYSQL : String</text><rect fill="none" height="9" style="stroke: #C82930; stroke-width: 1.5;" width="9" x="69" y="415.7695"/><text fill="#000000" font-family="sans-serif" font-size="16.5" lengthAdjust="spacingAndGlyphs" textLength="213" x="87" y="426.8979">DEFAULT_MONGODB : String</text><rect fill="none" height="9" style="stroke: #C82930; stroke-width: 1.5;" width="9" x="69" y="436.5234"/><text fill="#000000" font-family="sans-serif" font-size="16.5" lengthAdjust="spacingAndGlyphs" textLength="183" x="87" y="447.6519">DEFAULT_FLUME : String</text><rect fill="none" height="9" style="stroke: #C82930; stroke-width: 1.5;" width="9" x="69" y="457.2773"/><text fill="#000000" font-family="sans-serif" font-size="16.5" lengthAdjust="spacingAndGlyphs" textLength="231" x="87" y="468.4058">DEFAULT_PROMETHEUS :String</text><rect fill="none" height="9" style="stroke: #C82930; stroke-width: 1.5;" width="9" x="69" y="478.0313"/><text fill="#000000" font-family="sans-serif" font-size="16.5" lengthAdjust="spacingAndGlyphs" textLength="312" x="87" y="489.1597">DEFAULT_WEB_SERVER_SERVICE : String</text><rect fill="none" height="9" style="stroke: #C82930; stroke-width: 1.5;" width="9" x="69" y="498.7852"/><text fill="#000000" font-family="sans-serif" font-size="16.5" lengthAdjust="spacingAndGlyphs" textLength="307.5" x="87" y="509.9136">DEFAULT_APP_SERVER_SERVICE : String</text><rect fill="none" height="9" style="stroke: #C82930; stroke-width: 1.5;" width="9" x="69" y="519.5391"/><text fill="#000000" font-family="sans-serif" font-size="16.5" lengthAdjust="spacingAndGlyphs" textLength="352.5" x="87" y="530.6675">DEFAULT_STORAGE_SERVER_SERVICE : String</text><rect fill="none" height="9" style="stroke: #C82930; stroke-width: 1.5;" width="9" x="69" y="540.293"/><text fill="#000000" font-family="sans-serif" font-size="16.5" lengthAdjust="spacingAndGlyphs" textLength="348" x="87" y="551.4214">DEFAULT_LOGGING_SERVER_SERVICE : String</text><rect fill="none" height="9" style="stroke: #C82930; stroke-width: 1.5;" width="9" x="69" y="561.0469"/><text fill="#000000" font-family="sans-serif" font-size="16.5" lengthAdjust="spacingAndGlyphs" textLength="372" x="87" y="572.1753">DEFAULT_MONITORING_SERVER_SERVICE : String</text><line style="stroke: #A80036; stroke-width: 2.25;" x1="58.5" x2="475.5" y1="581.8008" y2="581.8008"/><ellipse cx="73.5" cy="598.3008" fill="#84BE84" rx="4.5" ry="4.5" style="stroke: #038048; stroke-width: 1.5;"/><text fill="#000000" font-family="sans-serif" font-size="16.5" lengthAdjust="spacingAndGlyphs" textLength="243" x="87" y="604.9292">AmiazonDeploymentPlanCreator()</text><ellipse cx="73.5" cy="619.0547" fill="#84BE84" rx="4.5" ry="4.5" style="stroke: #038048; stroke-width: 1.5;"/><text fill="#000000" font-family="sans-serif" font-size="16.5" lengthAdjust="spacingAndGlyphs" textLength="309" x="87" y="625.6831">instance():AmiazonDeploymentPlanCreator</text><ellipse cx="73.5" cy="639.8086" fill="#84BE84" rx="4.5" ry="4.5" style="stroke: #038048; stroke-width: 1.5;"/><text fill="#000000" font-family="sans-serif" font-size="16.5" lengthAdjust="spacingAndGlyphs" textLength="381" x="87" y="646.437">createDeploymentPlan(String name) :DeploymentPlan</text><!--MD5=[808d3dcea1bdbabebb31b4561f9730bf]
class DeploymentPlanCreator--><rect fill="#FEFECE" filter="url(#f1box59b4v2gcp)" height="72" id="DeploymentPlanCreator" style="stroke: #A80036; stroke-width: 2.25;" width="247.5" x="143.25" y="90"/><ellipse cx="165.75" cy="114" fill="#B4A7E5" rx="16.5" ry="16.5" style="stroke: #A80036; stroke-width: 1.5;"/><path d="M167.25,109.5 L167.25,118.5 L170.25,118.5 L170.9766,118.5 L171.75,119.4375 L171.75,120 L171.75,120.5625 L170.9766,121.5 L170.25,121.5 L161.25,121.5 L160.5234,121.5 L159.75,120.5625 L159.75,120 L159.75,119.4375 L160.5234,118.5 L161.25,118.5 L164.25,118.5 L164.25,109.5 L161.25,109.5 L160.5234,109.5 L159.75,108.5625 L159.75,108 L159.75,107.4375 L160.5234,106.5 L161.25,106.5 L170.25,106.5 L170.9766,106.5 L171.75,107.4375 L171.75,108 L171.75,108.5625 L170.9766,109.5 L170.25,109.5 L167.25,109.5 Z "/><text fill="#000000" font-family="sans-serif" font-size="18" font-style="italic" lengthAdjust="spacingAndGlyphs" textLength="199.5" x="186.75" y="121.3652">DeploymentPlanCreator</text><line style="stroke: #A80036; stroke-width: 2.25;" x1="144.75" x2="389.25" y1="138" y2="138"/><line style="stroke: #A80036; stroke-width: 2.25;" x1="144.75" x2="389.25" y1="150" y2="150"/><!--MD5=[06d561a0eeb9b26fa847ef5839552ac1]
reverse link CloudImpl to creation.cloudproviders.amiazon.AmiazonCloud--><path d="M1122,192.645 C1122,256.17 1122,351.135 1122,406.875 " fill="none" id="CloudImpl&lt;-creation.cloudproviders.amiazon.AmiazonCloud" style="stroke: #A80036; stroke-width: 1.5;"/><polygon fill="none" points="1111.5,192.255,1122,162.255,1132.5,192.255,1111.5,192.255" style="stroke: #A80036; stroke-width: 1.5;"/><!--MD5=[c7c01af27c2dd4c08670576d6eb1b1de]
reverse link CloudProvider to creation.cloudproviders.amiazon.AmiazonCloudProvider--><path d="M739.5,192.39 C739.5,245.37 739.5,320.325 739.5,376.14 " fill="none" id="CloudProvider&lt;-creation.cloudproviders.amiazon.AmiazonCloudProvider" style="stroke: #A80036; stroke-width: 1.5; stroke-dasharray: 7.0,7.0;"/><polygon fill="none" points="729,192.255,739.5,162.255,750,192.255,729,192.255" style="stroke: #A80036; stroke-width: 1.5;"/><!--MD5=[0f754f9a4e39ba23cf70157ce9728e82]
reverse link DeploymentPlanCreator to creation.cloudproviders.amiazon.AmiazonDeploymentPlanCreator--><path d="M267,192.885 C267,210.585 267,230.7 267,251.715 " fill="none" id="DeploymentPlanCreator&lt;-creation.cloudproviders.amiazon.AmiazonDeploymentPlanCreator" style="stroke: #A80036; stroke-width: 1.5; stroke-dasharray: 7.0,7.0;"/><polygon fill="none" points="256.5,192.255,267,162.255,277.5,192.255,256.5,192.255" style="stroke: #A80036; stroke-width: 1.5;"/><!--MD5=[4845b93678141e84d57ae46b310ea84f]
@startuml

Package creation.cloudproviders.amiazon{

    class creation.cloudproviders.amiazon.AmiazonCloud extends CloudImpl {
        + AmiazonCloud(String name)
    }




    class creation.cloudproviders.amiazon.AmiazonCloudProvider implements CloudProvider{
        - AMIAZON : String
        + createCloud(String name) :Cloud
        + createDeploymentPlan(String name) :DeploymentPlan
        + getName() :String
    }




    class creation.cloudproviders.amiazon.AmiazonDeploymentPlanCreator implements DeploymentPlanCreator{
         - INSTANCE : AmiazonDeploymentPlanCreator
         - DEFAULT_APACHE : String
         - DEFAULT_NGINX : String
         - DEFAULT_TOMCAT : String
         - DEFAULT_MYSQL : String
         - DEFAULT_MONGODB : String
         - DEFAULT_FLUME : String
         - DEFAULT_PROMETHEUS :String
         - DEFAULT_WEB_SERVER_SERVICE : String
         - DEFAULT_APP_SERVER_SERVICE : String
         - DEFAULT_STORAGE_SERVER_SERVICE : String
         - DEFAULT_LOGGING_SERVER_SERVICE : String
         - DEFAULT_MONITORING_SERVER_SERVICE : String
         + AmiazonDeploymentPlanCreator()
         + instance():AmiazonDeploymentPlanCreator
         + createDeploymentPlan(String name) :DeploymentPlan
  }
}

@enduml

PlantUML version 1.2020.09(Sun May 10 12:51:06 CEST 2020)
(GPL source distribution)
Java Runtime: OpenJDK Runtime Environment
JVM: OpenJDK 64-Bit Server VM
Java Version: 11.0.8+10-b944.31
Operating System: Windows 10
Default Encoding: Cp1252
Language: fr
Country: FR
--></g></svg>