<?xml version="1.0" encoding="UTF-8" standalone="no"?><svg xmlns="http://www.w3.org/2000/svg" xmlns:xlink="http://www.w3.org/1999/xlink" contentScriptType="application/ecmascript" contentStyleType="text/css" height="267px" preserveAspectRatio="none" style="width:525px;height:267px;" version="1.1" viewBox="0 0 525 267" width="525px" zoomAndPan="magnify"><defs><filter height="300%" id="f19s2tt1sh4tre" width="300%" x="-1" y="-1"><feGaussianBlur result="blurOut" stdDeviation="3.0"/><feColorMatrix in="blurOut" result="blurOut2" type="matrix" values="0 0 0 0 0 0 0 0 0 0 0 0 0 0 0 0 0 0 .4 0"/><feOffset dx="6.0" dy="6.0" in="blurOut2" result="blurOut3"/><feBlend in="SourceGraphic" in2="blurOut3" mode="normal"/></filter></defs><g><!--MD5=[01b87d6cde06d96eeb963f905a578cc4]
cluster creationImpl--><polygon fill="#FFFFFF" filter="url(#f19s2tt1sh4tre)" points="33,36,172.5,36,183,71.4141,492,71.4141,492,249,33,249,33,36" style="stroke: #000000; stroke-width: 2.25;"/><line style="stroke: #000000; stroke-width: 2.25;" x1="33" x2="183" y1="71.4141" y2="71.4141"/><text fill="#000000" font-family="sans-serif" font-size="21" font-weight="bold" lengthAdjust="spacingAndGlyphs" textLength="130.5" x="39" y="60.7998">creationImpl</text><!--MD5=[955265bfc50435dc04706fc68a8e1a5a]
class creationImpl.CloudProviderLoader--><rect fill="#FEFECE" filter="url(#f19s2tt1sh4tre)" height="134.2617" id="creationImpl.CloudProviderLoader" style="stroke: #A80036; stroke-width: 2.25;" width="409.5" x="57.75" y="90"/><ellipse cx="168.375" cy="114" fill="#ADD1B2" rx="16.5" ry="16.5" style="stroke: #A80036; stroke-width: 1.5;"/><path d="M171.375,108.75 Q171.6797,108 172.0313,107.625 Q172.3828,107.25 172.7813,107.25 Q173.4844,107.25 173.9297,107.6719 Q174.375,108.0938 174.375,109.0781 L174.375,111.4219 Q174.375,112.4063 173.9531,112.8281 Q173.5313,113.25 172.875,113.25 Q172.2891,113.25 171.9141,112.9922 Q171.5391,112.7344 171.375,112.0547 Q171.3047,111.5859 171.0469,111.3281 Q170.5781,110.8359 169.7344,110.5547 Q168.8906,110.25 168.0469,110.25 Q166.9922,110.25 166.1016,110.6719 Q165.2344,111.0938 164.5547,112.0313 Q163.875,112.9688 163.875,114.2578 L163.875,115.6406 Q163.875,117.1875 165.1406,118.2188 Q166.4063,119.25 168.6563,119.25 Q169.9922,119.25 170.9297,118.9453 Q171.4688,118.7813 172.0781,118.2422 Q172.4766,117.9375 172.6875,117.8438 Q172.8984,117.75 173.1563,117.75 Q173.6484,117.75 174,118.1484 Q174.375,118.5234 174.375,119.0625 Q174.375,119.5781 173.8594,120.1875 Q173.1094,121.0781 171.9141,121.5703 Q170.3438,122.25 168.4219,122.25 Q166.1719,122.25 164.3672,121.3594 Q162.9141,120.6563 161.8828,119.1328 Q160.875,117.6094 160.875,115.8047 L160.875,114.1641 Q160.875,112.2891 161.7656,110.6484 Q162.6797,109.0078 164.25,108.1406 Q165.8438,107.25 167.625,107.25 Q168.7031,107.25 169.6406,107.625 Q170.5781,108 171.375,108.75 Z "/><text fill="#000000" font-family="sans-serif" font-size="18" lengthAdjust="spacingAndGlyphs" textLength="175.5" x="199.125" y="121.3652">CloudProviderLoader</text><line style="stroke: #A80036; stroke-width: 2.25;" x1="59.25" x2="465.75" y1="138" y2="138"/><rect fill="none" height="9" style="stroke: #C82930; stroke-width: 1.5;" width="9" x="69.75" y="150"/><text fill="#000000" font-family="sans-serif" font-size="16.5" lengthAdjust="spacingAndGlyphs" textLength="301.5" x="87.75" y="161.1284">LOADER : ServiceLoader&lt;CloudProvider&gt;</text><line style="stroke: #A80036; stroke-width: 2.25;" x1="59.25" x2="465.75" y1="170.7539" y2="170.7539"/><ellipse cx="74.25" cy="187.2539" fill="#84BE84" rx="4.5" ry="4.5" style="stroke: #038048; stroke-width: 1.5;"/><text fill="#000000" font-family="sans-serif" font-size="16.5" lengthAdjust="spacingAndGlyphs" textLength="370.5" x="87.75" y="193.8823">providers(boolean refresh):Iterator&lt;CloudProvider&gt;</text><ellipse cx="74.25" cy="208.0078" fill="#84BE84" rx="4.5" ry="4.5" style="stroke: #038048; stroke-width: 1.5;"/><text fill="#000000" font-family="sans-serif" font-size="16.5" lengthAdjust="spacingAndGlyphs" textLength="163.5" x="87.75" y="214.6362">CloudProviderLoader()</text><!--MD5=[145ed17608eaca677b736527308915c3]
@startuml

 package creationImpl {
    class creationImpl.CloudProviderLoader {
         - LOADER : ServiceLoader<CloudProvider>
         + providers(boolean refresh):Iterator<CloudProvider>
         + CloudProviderLoader()
    }
}

@enduml

PlantUML version 1.2020.09(Sun May 10 12:51:06 CEST 2020)
(GPL source distribution)
Java Runtime: OpenJDK Runtime Environment
JVM: OpenJDK 64-Bit Server VM
Java Version: 11.0.8+10-b944.31
Operating System: Windows 10
Default Encoding: Cp1252
Language: fr
Country: FR
--></g></svg>