<?xml version="1.0" encoding="UTF-8" standalone="no"?><svg xmlns="http://www.w3.org/2000/svg" xmlns:xlink="http://www.w3.org/1999/xlink" contentScriptType="application/ecmascript" contentStyleType="text/css" height="267px" preserveAspectRatio="none" style="width:657px;height:267px;" version="1.1" viewBox="0 0 657 267" width="657px" zoomAndPan="magnify"><defs><filter height="300%" id="fs84u9w1s6qg6" width="300%" x="-1" y="-1"><feGaussianBlur result="blurOut" stdDeviation="3.0"/><feColorMatrix in="blurOut" result="blurOut2" type="matrix" values="0 0 0 0 0 0 0 0 0 0 0 0 0 0 0 0 0 0 .4 0"/><feOffset dx="6.0" dy="6.0" in="blurOut2" result="blurOut3"/><feBlend in="SourceGraphic" in2="blurOut3" mode="normal"/></filter></defs><g><!--MD5=[11f03a07a4422c8eb8f650dbf201ac41]
cluster exception--><polygon fill="#FFFFFF" filter="url(#fs84u9w1s6qg6)" points="33,36,147,36,157.5,71.4141,624,71.4141,624,249,33,249,33,36" style="stroke: #000000; stroke-width: 2.25;"/><line style="stroke: #000000; stroke-width: 2.25;" x1="33" x2="157.5" y1="71.4141" y2="71.4141"/><text fill="#000000" font-family="sans-serif" font-size="21" font-weight="bold" lengthAdjust="spacingAndGlyphs" textLength="105" x="39" y="60.7998">exception</text><!--MD5=[935cd337d304cfd545854f693c9eeb52]
class exception.ResourceAlreadyExistsException--><rect fill="#FEFECE" filter="url(#fs84u9w1s6qg6)" height="134.2617" id="exception.ResourceAlreadyExistsException" style="stroke: #A80036; stroke-width: 2.25;" width="541.5" x="57.75" y="90"/><ellipse cx="187.125" cy="114" fill="#ADD1B2" rx="16.5" ry="16.5" style="stroke: #A80036; stroke-width: 1.5;"/><path d="M190.125,108.75 Q190.4297,108 190.7813,107.625 Q191.1328,107.25 191.5313,107.25 Q192.2344,107.25 192.6797,107.6719 Q193.125,108.0938 193.125,109.0781 L193.125,111.4219 Q193.125,112.4063 192.7031,112.8281 Q192.2813,113.25 191.625,113.25 Q191.0391,113.25 190.6641,112.9922 Q190.2891,112.7344 190.125,112.0547 Q190.0547,111.5859 189.7969,111.3281 Q189.3281,110.8359 188.4844,110.5547 Q187.6406,110.25 186.7969,110.25 Q185.7422,110.25 184.8516,110.6719 Q183.9844,111.0938 183.3047,112.0313 Q182.625,112.9688 182.625,114.2578 L182.625,115.6406 Q182.625,117.1875 183.8906,118.2188 Q185.1563,119.25 187.4063,119.25 Q188.7422,119.25 189.6797,118.9453 Q190.2188,118.7813 190.8281,118.2422 Q191.2266,117.9375 191.4375,117.8438 Q191.6484,117.75 191.9063,117.75 Q192.3984,117.75 192.75,118.1484 Q193.125,118.5234 193.125,119.0625 Q193.125,119.5781 192.6094,120.1875 Q191.8594,121.0781 190.6641,121.5703 Q189.0938,122.25 187.1719,122.25 Q184.9219,122.25 183.1172,121.3594 Q181.6641,120.6563 180.6328,119.1328 Q179.625,117.6094 179.625,115.8047 L179.625,114.1641 Q179.625,112.2891 180.5156,110.6484 Q181.4297,109.0078 183,108.1406 Q184.5938,107.25 186.375,107.25 Q187.4531,107.25 188.3906,107.625 Q189.3281,108 190.125,108.75 Z "/><text fill="#000000" font-family="sans-serif" font-size="18" lengthAdjust="spacingAndGlyphs" textLength="270" x="217.875" y="121.3652">ResourceAlreadyExistsException</text><line style="stroke: #A80036; stroke-width: 2.25;" x1="59.25" x2="597.75" y1="138" y2="138"/><line style="stroke: #A80036; stroke-width: 2.25;" x1="59.25" x2="597.75" y1="150" y2="150"/><ellipse cx="74.25" cy="166.5" fill="#84BE84" rx="4.5" ry="4.5" style="stroke: #038048; stroke-width: 1.5;"/><text fill="#000000" font-family="sans-serif" font-size="16.5" lengthAdjust="spacingAndGlyphs" textLength="309" x="87.75" y="173.1284">ResourceAlreadyExistsException(String s)</text><ellipse cx="74.25" cy="187.2539" fill="#84BE84" rx="4.5" ry="4.5" style="stroke: #038048; stroke-width: 1.5;"/><text fill="#000000" font-family="sans-serif" font-size="16.5" lengthAdjust="spacingAndGlyphs" textLength="253.5" x="87.75" y="193.8823">ResourceAlreadyExistsException()</text><ellipse cx="74.25" cy="208.0078" fill="#84BE84" rx="4.5" ry="4.5" style="stroke: #038048; stroke-width: 1.5;"/><text fill="#000000" font-family="sans-serif" font-size="16.5" lengthAdjust="spacingAndGlyphs" textLength="502.5" x="87.75" y="214.6362">ResourceAlreadyExistsException(String message, Throwable cause)</text><!--MD5=[6bf2fe5a96fa81e646d48e7b5b1fd341]
@startuml

 class exception.ResourceAlreadyExistsException {
        + ResourceAlreadyExistsException(String s)
        + ResourceAlreadyExistsException()
        + ResourceAlreadyExistsException(String message, Throwable cause)
    }
@enduml

PlantUML version 1.2020.09(Sun May 10 12:51:06 CEST 2020)
(GPL source distribution)
Java Runtime: OpenJDK Runtime Environment
JVM: OpenJDK 64-Bit Server VM
Java Version: 11.0.8+10-b944.31
Operating System: Windows 10
Default Encoding: Cp1252
Language: fr
Country: FR
--></g></svg>