<?xml version="1.0" encoding="UTF-8" standalone="no"?><svg xmlns="http://www.w3.org/2000/svg" xmlns:xlink="http://www.w3.org/1999/xlink" contentScriptType="application/ecmascript" contentStyleType="text/css" height="349.5px" preserveAspectRatio="none" style="width:1099px;height:349px;" version="1.1" viewBox="0 0 1099 349" width="1099.5px" zoomAndPan="magnify"><defs><filter height="300%" id="f1lftxigvug41y" width="300%" x="-1" y="-1"><feGaussianBlur result="blurOut" stdDeviation="3.0"/><feColorMatrix in="blurOut" result="blurOut2" type="matrix" values="0 0 0 0 0 0 0 0 0 0 0 0 0 0 0 0 0 0 .4 0"/><feOffset dx="6.0" dy="6.0" in="blurOut2" result="blurOut3"/><feBlend in="SourceGraphic" in2="blurOut3" mode="normal"/></filter></defs><g><!--MD5=[272379cf1f80536b6294ad33393ecec2]
cluster registry--><polygon fill="#FFFFFF" filter="url(#f1lftxigvug41y)" points="33,36,123,36,133.5,71.4141,1066.5,71.4141,1066.5,331.5,33,331.5,33,36" style="stroke: #000000; stroke-width: 2.25;"/><line style="stroke: #000000; stroke-width: 2.25;" x1="33" x2="133.5" y1="71.4141" y2="71.4141"/><text fill="#000000" font-family="sans-serif" font-size="21" font-weight="bold" lengthAdjust="spacingAndGlyphs" textLength="81" x="39" y="60.7998">registry</text><!--MD5=[4fd50dce29b4cfeb56fb0adaf75f7699]
class registry.ComponentTypeRegistry--><rect fill="#FEFECE" filter="url(#f1lftxigvug41y)" height="217.2773" id="registry.ComponentTypeRegistry" style="stroke: #A80036; stroke-width: 2.25;" width="499.5" x="542.25" y="90"/><ellipse cx="683.625" cy="114" fill="#ADD1B2" rx="16.5" ry="16.5" style="stroke: #A80036; stroke-width: 1.5;"/><path d="M686.625,108.75 Q686.9297,108 687.2813,107.625 Q687.6328,107.25 688.0313,107.25 Q688.7344,107.25 689.1797,107.6719 Q689.625,108.0938 689.625,109.0781 L689.625,111.4219 Q689.625,112.4063 689.2031,112.8281 Q688.7813,113.25 688.125,113.25 Q687.5391,113.25 687.1641,112.9922 Q686.7891,112.7344 686.625,112.0547 Q686.5547,111.5859 686.2969,111.3281 Q685.8281,110.8359 684.9844,110.5547 Q684.1406,110.25 683.2969,110.25 Q682.2422,110.25 681.3516,110.6719 Q680.4844,111.0938 679.8047,112.0313 Q679.125,112.9688 679.125,114.2578 L679.125,115.6406 Q679.125,117.1875 680.3906,118.2188 Q681.6563,119.25 683.9063,119.25 Q685.2422,119.25 686.1797,118.9453 Q686.7188,118.7813 687.3281,118.2422 Q687.7266,117.9375 687.9375,117.8438 Q688.1484,117.75 688.4063,117.75 Q688.8984,117.75 689.25,118.1484 Q689.625,118.5234 689.625,119.0625 Q689.625,119.5781 689.1094,120.1875 Q688.3594,121.0781 687.1641,121.5703 Q685.5938,122.25 683.6719,122.25 Q681.4219,122.25 679.6172,121.3594 Q678.1641,120.6563 677.1328,119.1328 Q676.125,117.6094 676.125,115.8047 L676.125,114.1641 Q676.125,112.2891 677.0156,110.6484 Q677.9297,109.0078 679.5,108.1406 Q681.0938,107.25 682.875,107.25 Q683.9531,107.25 684.8906,107.625 Q685.8281,108 686.625,108.75 Z "/><text fill="#000000" font-family="sans-serif" font-size="18" lengthAdjust="spacingAndGlyphs" textLength="204" x="714.375" y="121.3652">ComponentTypeRegistry</text><line style="stroke: #A80036; stroke-width: 2.25;" x1="543.75" x2="1040.25" y1="138" y2="138"/><rect fill="none" height="9" style="stroke: #C82930; stroke-width: 1.5;" width="9" x="554.25" y="150"/><text fill="#000000" font-family="sans-serif" font-size="16.5" lengthAdjust="spacingAndGlyphs" textLength="265.5" x="572.25" y="161.1284">INSTANCE : ComponentTypeRegistry</text><rect fill="none" height="9" style="stroke: #C82930; stroke-width: 1.5;" width="9" x="554.25" y="170.7539"/><text fill="#000000" font-family="sans-serif" font-size="16.5" lengthAdjust="spacingAndGlyphs" textLength="334.5" x="572.25" y="181.8823">cTypeRegistry : Map&lt;String, ComponentType&gt;</text><rect fill="none" height="9" style="stroke: #C82930; stroke-width: 1.5;" width="9" x="554.25" y="191.5078"/><text fill="#000000" font-family="sans-serif" font-size="16.5" lengthAdjust="spacingAndGlyphs" textLength="430.5" x="572.25" y="202.6362">cTypeSTypeRegistry : Map&lt;ComponentType, ServiceType&gt;</text><line style="stroke: #A80036; stroke-width: 2.25;" x1="543.75" x2="1040.25" y1="212.2617" y2="212.2617"/><ellipse cx="558.75" cy="228.7617" fill="#84BE84" rx="4.5" ry="4.5" style="stroke: #038048; stroke-width: 1.5;"/><text fill="#000000" font-family="sans-serif" font-size="16.5" lengthAdjust="spacingAndGlyphs" textLength="444" x="572.25" y="235.3901">getComponentTypeOf(String key) :Optional&lt;ComponentType&gt;</text><ellipse cx="558.75" cy="249.5156" fill="#84BE84" rx="4.5" ry="4.5" style="stroke: #038048; stroke-width: 1.5;"/><text fill="#000000" font-family="sans-serif" font-size="16.5" lengthAdjust="spacingAndGlyphs" textLength="307.5" x="572.25" y="256.144">instance() :ComponentTypeRegistry :static</text><ellipse cx="558.75" cy="270.2695" fill="#84BE84" rx="4.5" ry="4.5" style="stroke: #038048; stroke-width: 1.5;"/><text fill="#000000" font-family="sans-serif" font-size="16.5" lengthAdjust="spacingAndGlyphs" textLength="460.5" x="572.25" y="276.8979">registerComponentType(ComponentType componentType) :void</text><ellipse cx="558.75" cy="291.0234" fill="#84BE84" rx="4.5" ry="4.5" style="stroke: #038048; stroke-width: 1.5;"/><text fill="#000000" font-family="sans-serif" font-size="16.5" lengthAdjust="spacingAndGlyphs" textLength="189" x="572.25" y="297.6519">ComponentTypeRegistry()</text><!--MD5=[f553c8be3bc03c3ce478401cac6d8c1d]
class registry.ServiceTypeRegistry--><rect fill="#FEFECE" filter="url(#f1lftxigvug41y)" height="217.2773" id="registry.ServiceTypeRegistry" style="stroke: #A80036; stroke-width: 2.25;" width="432" x="57" y="90"/><ellipse cx="183.375" cy="114" fill="#ADD1B2" rx="16.5" ry="16.5" style="stroke: #A80036; stroke-width: 1.5;"/><path d="M186.375,108.75 Q186.6797,108 187.0313,107.625 Q187.3828,107.25 187.7813,107.25 Q188.4844,107.25 188.9297,107.6719 Q189.375,108.0938 189.375,109.0781 L189.375,111.4219 Q189.375,112.4063 188.9531,112.8281 Q188.5313,113.25 187.875,113.25 Q187.2891,113.25 186.9141,112.9922 Q186.5391,112.7344 186.375,112.0547 Q186.3047,111.5859 186.0469,111.3281 Q185.5781,110.8359 184.7344,110.5547 Q183.8906,110.25 183.0469,110.25 Q181.9922,110.25 181.1016,110.6719 Q180.2344,111.0938 179.5547,112.0313 Q178.875,112.9688 178.875,114.2578 L178.875,115.6406 Q178.875,117.1875 180.1406,118.2188 Q181.4063,119.25 183.6563,119.25 Q184.9922,119.25 185.9297,118.9453 Q186.4688,118.7813 187.0781,118.2422 Q187.4766,117.9375 187.6875,117.8438 Q187.8984,117.75 188.1563,117.75 Q188.6484,117.75 189,118.1484 Q189.375,118.5234 189.375,119.0625 Q189.375,119.5781 188.8594,120.1875 Q188.1094,121.0781 186.9141,121.5703 Q185.3438,122.25 183.4219,122.25 Q181.1719,122.25 179.3672,121.3594 Q177.9141,120.6563 176.8828,119.1328 Q175.875,117.6094 175.875,115.8047 L175.875,114.1641 Q175.875,112.2891 176.7656,110.6484 Q177.6797,109.0078 179.25,108.1406 Q180.8438,107.25 182.625,107.25 Q183.7031,107.25 184.6406,107.625 Q185.5781,108 186.375,108.75 Z "/><text fill="#000000" font-family="sans-serif" font-size="18" lengthAdjust="spacingAndGlyphs" textLength="166.5" x="214.125" y="121.3652">ServiceTypeRegistry</text><line style="stroke: #A80036; stroke-width: 2.25;" x1="58.5" x2="487.5" y1="138" y2="138"/><rect fill="none" height="9" style="stroke: #C82930; stroke-width: 1.5;" width="9" x="69" y="150"/><text fill="#000000" font-family="sans-serif" font-size="16.5" lengthAdjust="spacingAndGlyphs" textLength="240" x="87" y="161.1284">INSTANCE : ServiceTypeRegistry</text><rect fill="none" height="9" style="stroke: #C82930; stroke-width: 1.5;" width="9" x="69" y="170.7539"/><text fill="#000000" font-family="sans-serif" font-size="16.5" lengthAdjust="spacingAndGlyphs" textLength="259.5" x="87" y="181.8823">registry : Map&lt;String, ServiceType&gt;</text><line style="stroke: #A80036; stroke-width: 2.25;" x1="58.5" x2="487.5" y1="191.5078" y2="191.5078"/><ellipse cx="73.5" cy="208.0078" fill="#84BE84" rx="4.5" ry="4.5" style="stroke: #038048; stroke-width: 1.5;"/><text fill="#000000" font-family="sans-serif" font-size="16.5" lengthAdjust="spacingAndGlyphs" textLength="234" x="87" y="214.6362">instance() :ServiceTypeRegistry</text><ellipse cx="73.5" cy="228.7617" fill="#84BE84" rx="4.5" ry="4.5" style="stroke: #038048; stroke-width: 1.5;"/><text fill="#000000" font-family="sans-serif" font-size="16.5" lengthAdjust="spacingAndGlyphs" textLength="384" x="87" y="235.3901">ServiceTypeRegistry(ServiceType serviceType):void</text><ellipse cx="73.5" cy="249.5156" fill="#84BE84" rx="4.5" ry="4.5" style="stroke: #038048; stroke-width: 1.5;"/><text fill="#000000" font-family="sans-serif" font-size="16.5" lengthAdjust="spacingAndGlyphs" textLength="393" x="87" y="256.144">getServiceTypeOf(String key) :Optional&lt;ServiceType&gt;</text><ellipse cx="73.5" cy="270.2695" fill="#84BE84" rx="4.5" ry="4.5" style="stroke: #038048; stroke-width: 1.5;"/><text fill="#000000" font-family="sans-serif" font-size="16.5" lengthAdjust="spacingAndGlyphs" textLength="355.5" x="87" y="276.8979">getServiceTypes() :Optional&lt;List&lt;ServiceType&gt;&gt;</text><ellipse cx="73.5" cy="291.0234" fill="#84BE84" rx="4.5" ry="4.5" style="stroke: #038048; stroke-width: 1.5;"/><text fill="#000000" font-family="sans-serif" font-size="16.5" lengthAdjust="spacingAndGlyphs" textLength="345" x="87" y="297.6519">registerServiceType(ServiceType serviceType)</text><!--MD5=[b0e24406e1c9e33d641ed8819ef592fc]
@startuml

package registry{
 
    class registry.ComponentTypeRegistry {
        - INSTANCE : ComponentTypeRegistry
        - cTypeRegistry : Map<String, ComponentType>
        - cTypeSTypeRegistry : Map<ComponentType, ServiceType>
        
        + getComponentTypeOf(String key) :Optional<ComponentType>
        + instance() :ComponentTypeRegistry :static
        + registerComponentType(ComponentType componentType) :void
        + ComponentTypeRegistry()
    }
   
  

 
    class registry.ServiceTypeRegistry {
        - INSTANCE : ServiceTypeRegistry
        - registry : Map<String, ServiceType> 
        + instance() :ServiceTypeRegistry
        + ServiceTypeRegistry(ServiceType serviceType):void
        + getServiceTypeOf(String key) :Optional<ServiceType>
        + getServiceTypes() :Optional<List<ServiceType>>
        + registerServiceType(ServiceType serviceType)
        
   
  }
  

}
@enduml

PlantUML version 1.2020.09(Sun May 10 12:51:06 CEST 2020)
(GPL source distribution)
Java Runtime: OpenJDK Runtime Environment
JVM: OpenJDK 64-Bit Server VM
Java Version: 11.0.8+10-b944.31
Operating System: Windows 10
Default Encoding: Cp1252
Language: fr
Country: FR
--></g></svg>