<?xml version="1.0" encoding="UTF-8" standalone="no"?><svg xmlns="http://www.w3.org/2000/svg" xmlns:xlink="http://www.w3.org/1999/xlink" contentScriptType="application/ecmascript" contentStyleType="text/css" height="408px" preserveAspectRatio="none" style="width:1941px;height:408px;" version="1.1" viewBox="0 0 1941 408" width="1941px" zoomAndPan="magnify"><defs><filter height="300%" id="f3d2jtj00lrg2" width="300%" x="-1" y="-1"><feGaussianBlur result="blurOut" stdDeviation="3.0"/><feColorMatrix in="blurOut" result="blurOut2" type="matrix" values="0 0 0 0 0 0 0 0 0 0 0 0 0 0 0 0 0 0 .4 0"/><feOffset dx="6.0" dy="6.0" in="blurOut2" result="blurOut3"/><feBlend in="SourceGraphic" in2="blurOut3" mode="normal"/></filter></defs><g><!--MD5=[c83e022f9a8a1a581c4e6566c91f4a56]
cluster serviceprovider.impl--><polygon fill="#FFFFFF" filter="url(#f3d2jtj00lrg2)" points="33,36,262.5,36,273,71.4141,1908,71.4141,1908,390,33,390,33,36" style="stroke: #000000; stroke-width: 2.25;"/><line style="stroke: #000000; stroke-width: 2.25;" x1="33" x2="273" y1="71.4141" y2="71.4141"/><text fill="#000000" font-family="sans-serif" font-size="21" font-weight="bold" lengthAdjust="spacingAndGlyphs" textLength="220.5" x="39" y="60.7998">serviceprovider.impl</text><!--MD5=[070b0c720c0bb0e5189b894b803a6d91]
class serviceprovider.impl.DefaultAppServerService--><rect fill="#FEFECE" filter="url(#f3d2jtj00lrg2)" height="113.5078" id="serviceprovider.impl.DefaultAppServerService" style="stroke: #A80036; stroke-width: 2.25;" width="322.5" x="1560.75" y="252"/><ellipse cx="1615.65" cy="276" fill="#ADD1B2" rx="16.5" ry="16.5" style="stroke: #A80036; stroke-width: 1.5;"/><path d="M1618.65,270.75 Q1618.9547,270 1619.3062,269.625 Q1619.6578,269.25 1620.0562,269.25 Q1620.7594,269.25 1621.2047,269.6719 Q1621.65,270.0938 1621.65,271.0781 L1621.65,273.4219 Q1621.65,274.4063 1621.2281,274.8281 Q1620.8062,275.25 1620.15,275.25 Q1619.5641,275.25 1619.1891,274.9922 Q1618.8141,274.7344 1618.65,274.0547 Q1618.5797,273.5859 1618.3219,273.3281 Q1617.8531,272.8359 1617.0094,272.5547 Q1616.1656,272.25 1615.3219,272.25 Q1614.2672,272.25 1613.3766,272.6719 Q1612.5094,273.0938 1611.8297,274.0313 Q1611.15,274.9688 1611.15,276.2578 L1611.15,277.6406 Q1611.15,279.1875 1612.4156,280.2188 Q1613.6812,281.25 1615.9312,281.25 Q1617.2672,281.25 1618.2047,280.9453 Q1618.7437,280.7813 1619.3531,280.2422 Q1619.7516,279.9375 1619.9625,279.8438 Q1620.1734,279.75 1620.4312,279.75 Q1620.9234,279.75 1621.275,280.1484 Q1621.65,280.5234 1621.65,281.0625 Q1621.65,281.5781 1621.1344,282.1875 Q1620.3844,283.0781 1619.1891,283.5703 Q1617.6187,284.25 1615.6969,284.25 Q1613.4469,284.25 1611.6422,283.3594 Q1610.1891,282.6563 1609.1578,281.1328 Q1608.15,279.6094 1608.15,277.8047 L1608.15,276.1641 Q1608.15,274.2891 1609.0406,272.6484 Q1609.9547,271.0078 1611.525,270.1406 Q1613.1187,269.25 1614.9,269.25 Q1615.9781,269.25 1616.9156,269.625 Q1617.8531,270 1618.65,270.75 Z "/><text fill="#000000" font-family="sans-serif" font-size="18" lengthAdjust="spacingAndGlyphs" textLength="202.5" x="1643.85" y="283.3652">DefaultAppServerService</text><line style="stroke: #A80036; stroke-width: 2.25;" x1="1562.25" x2="1881.75" y1="300" y2="300"/><line style="stroke: #A80036; stroke-width: 2.25;" x1="1562.25" x2="1881.75" y1="312" y2="312"/><ellipse cx="1577.25" cy="328.5" fill="#84BE84" rx="4.5" ry="4.5" style="stroke: #038048; stroke-width: 1.5;"/><text fill="#000000" font-family="sans-serif" font-size="16.5" lengthAdjust="spacingAndGlyphs" textLength="283.5" x="1590.75" y="335.1284">DefaultAppServerService(String name)</text><ellipse cx="1577.25" cy="349.2539" fill="#84BE84" rx="4.5" ry="4.5" style="stroke: #038048; stroke-width: 1.5;"/><text fill="#000000" font-family="sans-serif" font-size="16.5" lengthAdjust="spacingAndGlyphs" textLength="226.5" x="1590.75" y="355.8823">getServiceType() :ServiceType</text><!--MD5=[01f87f91652b59e920f4687773dc8bc7]
class ServiceImpl--><rect fill="#FEFECE" filter="url(#f3d2jtj00lrg2)" height="72" id="ServiceImpl" style="stroke: #A80036; stroke-width: 2.25;" width="144" x="1068" y="90"/><ellipse cx="1090.5" cy="114" fill="#ADD1B2" rx="16.5" ry="16.5" style="stroke: #A80036; stroke-width: 1.5;"/><path d="M1093.5,108.75 Q1093.8047,108 1094.1563,107.625 Q1094.5078,107.25 1094.9063,107.25 Q1095.6094,107.25 1096.0547,107.6719 Q1096.5,108.0938 1096.5,109.0781 L1096.5,111.4219 Q1096.5,112.4063 1096.0781,112.8281 Q1095.6563,113.25 1095,113.25 Q1094.4141,113.25 1094.0391,112.9922 Q1093.6641,112.7344 1093.5,112.0547 Q1093.4297,111.5859 1093.1719,111.3281 Q1092.7031,110.8359 1091.8594,110.5547 Q1091.0156,110.25 1090.1719,110.25 Q1089.1172,110.25 1088.2266,110.6719 Q1087.3594,111.0938 1086.6797,112.0313 Q1086,112.9688 1086,114.2578 L1086,115.6406 Q1086,117.1875 1087.2656,118.2188 Q1088.5313,119.25 1090.7813,119.25 Q1092.1172,119.25 1093.0547,118.9453 Q1093.5938,118.7813 1094.2031,118.2422 Q1094.6016,117.9375 1094.8125,117.8438 Q1095.0234,117.75 1095.2813,117.75 Q1095.7734,117.75 1096.125,118.1484 Q1096.5,118.5234 1096.5,119.0625 Q1096.5,119.5781 1095.9844,120.1875 Q1095.2344,121.0781 1094.0391,121.5703 Q1092.4688,122.25 1090.5469,122.25 Q1088.2969,122.25 1086.4922,121.3594 Q1085.0391,120.6563 1084.0078,119.1328 Q1083,117.6094 1083,115.8047 L1083,114.1641 Q1083,112.2891 1083.8906,110.6484 Q1084.8047,109.0078 1086.375,108.1406 Q1087.9688,107.25 1089.75,107.25 Q1090.8281,107.25 1091.7656,107.625 Q1092.7031,108 1093.5,108.75 Z "/><text fill="#000000" font-family="sans-serif" font-size="18" lengthAdjust="spacingAndGlyphs" textLength="96" x="1111.5" y="121.3652">ServiceImpl</text><line style="stroke: #A80036; stroke-width: 2.25;" x1="1069.5" x2="1210.5" y1="138" y2="138"/><line style="stroke: #A80036; stroke-width: 2.25;" x1="1069.5" x2="1210.5" y1="150" y2="150"/><!--MD5=[e7e11c7ff8892a35fe4f6269f442cfdb]
class AppServerServiceType--><rect fill="#FEFECE" filter="url(#f3d2jtj00lrg2)" height="72" id="AppServerServiceType" style="stroke: #A80036; stroke-width: 2.25;" width="237" x="1603.5" y="90"/><ellipse cx="1626" cy="114" fill="#B4A7E5" rx="16.5" ry="16.5" style="stroke: #A80036; stroke-width: 1.5;"/><path d="M1627.5,109.5 L1627.5,118.5 L1630.5,118.5 L1631.2266,118.5 L1632,119.4375 L1632,120 L1632,120.5625 L1631.2266,121.5 L1630.5,121.5 L1621.5,121.5 L1620.7734,121.5 L1620,120.5625 L1620,120 L1620,119.4375 L1620.7734,118.5 L1621.5,118.5 L1624.5,118.5 L1624.5,109.5 L1621.5,109.5 L1620.7734,109.5 L1620,108.5625 L1620,108 L1620,107.4375 L1620.7734,106.5 L1621.5,106.5 L1630.5,106.5 L1631.2266,106.5 L1632,107.4375 L1632,108 L1632,108.5625 L1631.2266,109.5 L1630.5,109.5 L1627.5,109.5 Z "/><text fill="#000000" font-family="sans-serif" font-size="18" font-style="italic" lengthAdjust="spacingAndGlyphs" textLength="189" x="1647" y="121.3652">AppServerServiceType</text><line style="stroke: #A80036; stroke-width: 2.25;" x1="1605" x2="1839" y1="138" y2="138"/><line style="stroke: #A80036; stroke-width: 2.25;" x1="1605" x2="1839" y1="150" y2="150"/><!--MD5=[e46c8c84cdf16ed29b46dc2d4525de9e]
class serviceprovider.impl.DefaultLoggingService--><rect fill="#FEFECE" filter="url(#f3d2jtj00lrg2)" height="113.5078" id="serviceprovider.impl.DefaultLoggingService" style="stroke: #A80036; stroke-width: 2.25;" width="300" x="1207.5" y="252"/><ellipse cx="1259.7" cy="276" fill="#ADD1B2" rx="16.5" ry="16.5" style="stroke: #A80036; stroke-width: 1.5;"/><path d="M1262.7,270.75 Q1263.0047,270 1263.3562,269.625 Q1263.7078,269.25 1264.1062,269.25 Q1264.8094,269.25 1265.2547,269.6719 Q1265.7,270.0938 1265.7,271.0781 L1265.7,273.4219 Q1265.7,274.4063 1265.2781,274.8281 Q1264.8562,275.25 1264.2,275.25 Q1263.6141,275.25 1263.2391,274.9922 Q1262.8641,274.7344 1262.7,274.0547 Q1262.6297,273.5859 1262.3719,273.3281 Q1261.9031,272.8359 1261.0594,272.5547 Q1260.2156,272.25 1259.3719,272.25 Q1258.3172,272.25 1257.4266,272.6719 Q1256.5594,273.0938 1255.8797,274.0313 Q1255.2,274.9688 1255.2,276.2578 L1255.2,277.6406 Q1255.2,279.1875 1256.4656,280.2188 Q1257.7312,281.25 1259.9812,281.25 Q1261.3172,281.25 1262.2547,280.9453 Q1262.7937,280.7813 1263.4031,280.2422 Q1263.8016,279.9375 1264.0125,279.8438 Q1264.2234,279.75 1264.4812,279.75 Q1264.9734,279.75 1265.325,280.1484 Q1265.7,280.5234 1265.7,281.0625 Q1265.7,281.5781 1265.1844,282.1875 Q1264.4344,283.0781 1263.2391,283.5703 Q1261.6687,284.25 1259.7469,284.25 Q1257.4969,284.25 1255.6922,283.3594 Q1254.2391,282.6563 1253.2078,281.1328 Q1252.2,279.6094 1252.2,277.8047 L1252.2,276.1641 Q1252.2,274.2891 1253.0906,272.6484 Q1254.0047,271.0078 1255.575,270.1406 Q1257.1687,269.25 1258.95,269.25 Q1260.0281,269.25 1260.9656,269.625 Q1261.9031,270 1262.7,270.75 Z "/><text fill="#000000" font-family="sans-serif" font-size="18" lengthAdjust="spacingAndGlyphs" textLength="186" x="1287.3" y="283.3652">DefaultLoggingService</text><line style="stroke: #A80036; stroke-width: 2.25;" x1="1209" x2="1506" y1="300" y2="300"/><line style="stroke: #A80036; stroke-width: 2.25;" x1="1209" x2="1506" y1="312" y2="312"/><ellipse cx="1224" cy="328.5" fill="#84BE84" rx="4.5" ry="4.5" style="stroke: #038048; stroke-width: 1.5;"/><text fill="#000000" font-family="sans-serif" font-size="16.5" lengthAdjust="spacingAndGlyphs" textLength="261" x="1237.5" y="335.1284">DefaultLoggingService(String name)</text><ellipse cx="1224" cy="349.2539" fill="#84BE84" rx="4.5" ry="4.5" style="stroke: #038048; stroke-width: 1.5;"/><text fill="#000000" font-family="sans-serif" font-size="16.5" lengthAdjust="spacingAndGlyphs" textLength="226.5" x="1237.5" y="355.8823">getServiceType() :ServiceType</text><!--MD5=[da6368bbe7854bdc2d89dda6c3712501]
class LoggingServiceType--><rect fill="#FEFECE" filter="url(#f3d2jtj00lrg2)" height="72" id="LoggingServiceType" style="stroke: #A80036; stroke-width: 2.25;" width="217.5" x="1265.25" y="90"/><ellipse cx="1287.75" cy="114" fill="#B4A7E5" rx="16.5" ry="16.5" style="stroke: #A80036; stroke-width: 1.5;"/><path d="M1289.25,109.5 L1289.25,118.5 L1292.25,118.5 L1292.9766,118.5 L1293.75,119.4375 L1293.75,120 L1293.75,120.5625 L1292.9766,121.5 L1292.25,121.5 L1283.25,121.5 L1282.5234,121.5 L1281.75,120.5625 L1281.75,120 L1281.75,119.4375 L1282.5234,118.5 L1283.25,118.5 L1286.25,118.5 L1286.25,109.5 L1283.25,109.5 L1282.5234,109.5 L1281.75,108.5625 L1281.75,108 L1281.75,107.4375 L1282.5234,106.5 L1283.25,106.5 L1292.25,106.5 L1292.9766,106.5 L1293.75,107.4375 L1293.75,108 L1293.75,108.5625 L1292.9766,109.5 L1292.25,109.5 L1289.25,109.5 Z "/><text fill="#000000" font-family="sans-serif" font-size="18" font-style="italic" lengthAdjust="spacingAndGlyphs" textLength="169.5" x="1308.75" y="121.3652">LoggingServiceType</text><line style="stroke: #A80036; stroke-width: 2.25;" x1="1266.75" x2="1481.25" y1="138" y2="138"/><line style="stroke: #A80036; stroke-width: 2.25;" x1="1266.75" x2="1481.25" y1="150" y2="150"/><!--MD5=[c43a7418fe7e06dd7758adf05ba7c9a0]
class serviceprovider.impl.DefaultMonitoringService--><rect fill="#FEFECE" filter="url(#f3d2jtj00lrg2)" height="113.5078" id="serviceprovider.impl.DefaultMonitoringService" style="stroke: #A80036; stroke-width: 2.25;" width="316.5" x="837.75" y="252"/><ellipse cx="889.275" cy="276" fill="#ADD1B2" rx="16.5" ry="16.5" style="stroke: #A80036; stroke-width: 1.5;"/><path d="M892.275,270.75 Q892.5797,270 892.9313,269.625 Q893.2828,269.25 893.6813,269.25 Q894.3844,269.25 894.8297,269.6719 Q895.275,270.0938 895.275,271.0781 L895.275,273.4219 Q895.275,274.4063 894.8531,274.8281 Q894.4313,275.25 893.775,275.25 Q893.1891,275.25 892.8141,274.9922 Q892.4391,274.7344 892.275,274.0547 Q892.2047,273.5859 891.9469,273.3281 Q891.4781,272.8359 890.6344,272.5547 Q889.7906,272.25 888.9469,272.25 Q887.8922,272.25 887.0016,272.6719 Q886.1344,273.0938 885.4547,274.0313 Q884.775,274.9688 884.775,276.2578 L884.775,277.6406 Q884.775,279.1875 886.0406,280.2188 Q887.3063,281.25 889.5563,281.25 Q890.8922,281.25 891.8297,280.9453 Q892.3688,280.7813 892.9781,280.2422 Q893.3766,279.9375 893.5875,279.8438 Q893.7984,279.75 894.0563,279.75 Q894.5484,279.75 894.9,280.1484 Q895.275,280.5234 895.275,281.0625 Q895.275,281.5781 894.7594,282.1875 Q894.0094,283.0781 892.8141,283.5703 Q891.2438,284.25 889.3219,284.25 Q887.0719,284.25 885.2672,283.3594 Q883.8141,282.6563 882.7828,281.1328 Q881.775,279.6094 881.775,277.8047 L881.775,276.1641 Q881.775,274.2891 882.6656,272.6484 Q883.5797,271.0078 885.15,270.1406 Q886.7438,269.25 888.525,269.25 Q889.6031,269.25 890.5406,269.625 Q891.4781,270 892.275,270.75 Z "/><text fill="#000000" font-family="sans-serif" font-size="18" lengthAdjust="spacingAndGlyphs" textLength="204" x="916.725" y="283.3652">DefaultMonitoringService</text><line style="stroke: #A80036; stroke-width: 2.25;" x1="839.25" x2="1152.75" y1="300" y2="300"/><line style="stroke: #A80036; stroke-width: 2.25;" x1="839.25" x2="1152.75" y1="312" y2="312"/><ellipse cx="854.25" cy="328.5" fill="#84BE84" rx="4.5" ry="4.5" style="stroke: #038048; stroke-width: 1.5;"/><text fill="#000000" font-family="sans-serif" font-size="16.5" lengthAdjust="spacingAndGlyphs" textLength="277.5" x="867.75" y="335.1284">DefaultMonitoringService(String name)</text><ellipse cx="854.25" cy="349.2539" fill="#84BE84" rx="4.5" ry="4.5" style="stroke: #038048; stroke-width: 1.5;"/><text fill="#000000" font-family="sans-serif" font-size="16.5" lengthAdjust="spacingAndGlyphs" textLength="226.5" x="867.75" y="355.8823">getServiceType() :ServiceType</text><!--MD5=[584f1bd5663f55f857b6f92282f4c4dc]
class MonitoringServiceType--><rect fill="#FEFECE" filter="url(#f3d2jtj00lrg2)" height="72" id="MonitoringServiceType" style="stroke: #A80036; stroke-width: 2.25;" width="235.5" x="779.25" y="90"/><ellipse cx="801.75" cy="114" fill="#B4A7E5" rx="16.5" ry="16.5" style="stroke: #A80036; stroke-width: 1.5;"/><path d="M803.25,109.5 L803.25,118.5 L806.25,118.5 L806.9766,118.5 L807.75,119.4375 L807.75,120 L807.75,120.5625 L806.9766,121.5 L806.25,121.5 L797.25,121.5 L796.5234,121.5 L795.75,120.5625 L795.75,120 L795.75,119.4375 L796.5234,118.5 L797.25,118.5 L800.25,118.5 L800.25,109.5 L797.25,109.5 L796.5234,109.5 L795.75,108.5625 L795.75,108 L795.75,107.4375 L796.5234,106.5 L797.25,106.5 L806.25,106.5 L806.9766,106.5 L807.75,107.4375 L807.75,108 L807.75,108.5625 L806.9766,109.5 L806.25,109.5 L803.25,109.5 Z "/><text fill="#000000" font-family="sans-serif" font-size="18" font-style="italic" lengthAdjust="spacingAndGlyphs" textLength="187.5" x="822.75" y="121.3652">MonitoringServiceType</text><line style="stroke: #A80036; stroke-width: 2.25;" x1="780.75" x2="1013.25" y1="138" y2="138"/><line style="stroke: #A80036; stroke-width: 2.25;" x1="780.75" x2="1013.25" y1="150" y2="150"/><!--MD5=[d3ace49c3b7418af124182153f55ce64]
class serviceprovider.impl.DefaultStorageServerService--><rect fill="#FEFECE" filter="url(#f3d2jtj00lrg2)" height="113.5078" id="serviceprovider.impl.DefaultStorageServerService" style="stroke: #A80036; stroke-width: 2.25;" width="349.5" x="435.75" y="252"/><ellipse cx="487.95" cy="276" fill="#ADD1B2" rx="16.5" ry="16.5" style="stroke: #A80036; stroke-width: 1.5;"/><path d="M490.95,270.75 Q491.2547,270 491.6063,269.625 Q491.9578,269.25 492.3563,269.25 Q493.0594,269.25 493.5047,269.6719 Q493.95,270.0938 493.95,271.0781 L493.95,273.4219 Q493.95,274.4063 493.5281,274.8281 Q493.1063,275.25 492.45,275.25 Q491.8641,275.25 491.4891,274.9922 Q491.1141,274.7344 490.95,274.0547 Q490.8797,273.5859 490.6219,273.3281 Q490.1531,272.8359 489.3094,272.5547 Q488.4656,272.25 487.6219,272.25 Q486.5672,272.25 485.6766,272.6719 Q484.8094,273.0938 484.1297,274.0313 Q483.45,274.9688 483.45,276.2578 L483.45,277.6406 Q483.45,279.1875 484.7156,280.2188 Q485.9813,281.25 488.2313,281.25 Q489.5672,281.25 490.5047,280.9453 Q491.0438,280.7813 491.6531,280.2422 Q492.0516,279.9375 492.2625,279.8438 Q492.4734,279.75 492.7313,279.75 Q493.2234,279.75 493.575,280.1484 Q493.95,280.5234 493.95,281.0625 Q493.95,281.5781 493.4344,282.1875 Q492.6844,283.0781 491.4891,283.5703 Q489.9188,284.25 487.9969,284.25 Q485.7469,284.25 483.9422,283.3594 Q482.4891,282.6563 481.4578,281.1328 Q480.45,279.6094 480.45,277.8047 L480.45,276.1641 Q480.45,274.2891 481.3406,272.6484 Q482.2547,271.0078 483.825,270.1406 Q485.4188,269.25 487.2,269.25 Q488.2781,269.25 489.2156,269.625 Q490.1531,270 490.95,270.75 Z "/><text fill="#000000" font-family="sans-serif" font-size="18" lengthAdjust="spacingAndGlyphs" textLength="235.5" x="515.55" y="283.3652">DefaultStorageServerService</text><line style="stroke: #A80036; stroke-width: 2.25;" x1="437.25" x2="783.75" y1="300" y2="300"/><line style="stroke: #A80036; stroke-width: 2.25;" x1="437.25" x2="783.75" y1="312" y2="312"/><ellipse cx="452.25" cy="328.5" fill="#84BE84" rx="4.5" ry="4.5" style="stroke: #038048; stroke-width: 1.5;"/><text fill="#000000" font-family="sans-serif" font-size="16.5" lengthAdjust="spacingAndGlyphs" textLength="310.5" x="465.75" y="335.1284">DefaultStorageServerService(String name)</text><ellipse cx="452.25" cy="349.2539" fill="#84BE84" rx="4.5" ry="4.5" style="stroke: #038048; stroke-width: 1.5;"/><text fill="#000000" font-family="sans-serif" font-size="16.5" lengthAdjust="spacingAndGlyphs" textLength="226.5" x="465.75" y="355.8823">getServiceType() :ServiceType</text><!--MD5=[e418ea072c60b2bf484f59fc42cd1cc0]
class StorageServerServiceType--><rect fill="#FEFECE" filter="url(#f3d2jtj00lrg2)" height="72" id="StorageServerServiceType" style="stroke: #A80036; stroke-width: 2.25;" width="268.5" x="458.25" y="90"/><ellipse cx="480.75" cy="114" fill="#B4A7E5" rx="16.5" ry="16.5" style="stroke: #A80036; stroke-width: 1.5;"/><path d="M482.25,109.5 L482.25,118.5 L485.25,118.5 L485.9766,118.5 L486.75,119.4375 L486.75,120 L486.75,120.5625 L485.9766,121.5 L485.25,121.5 L476.25,121.5 L475.5234,121.5 L474.75,120.5625 L474.75,120 L474.75,119.4375 L475.5234,118.5 L476.25,118.5 L479.25,118.5 L479.25,109.5 L476.25,109.5 L475.5234,109.5 L474.75,108.5625 L474.75,108 L474.75,107.4375 L475.5234,106.5 L476.25,106.5 L485.25,106.5 L485.9766,106.5 L486.75,107.4375 L486.75,108 L486.75,108.5625 L485.9766,109.5 L485.25,109.5 L482.25,109.5 Z "/><text fill="#000000" font-family="sans-serif" font-size="18" font-style="italic" lengthAdjust="spacingAndGlyphs" textLength="220.5" x="501.75" y="121.3652">StorageServerServiceType</text><line style="stroke: #A80036; stroke-width: 2.25;" x1="459.75" x2="725.25" y1="138" y2="138"/><line style="stroke: #A80036; stroke-width: 2.25;" x1="459.75" x2="725.25" y1="150" y2="150"/><!--MD5=[79c541a8a554c92155a76d624e4012d7]
class serviceprovider.impl.DefaultWebServerService--><rect fill="#FEFECE" filter="url(#f3d2jtj00lrg2)" height="113.5078" id="serviceprovider.impl.DefaultWebServerService" style="stroke: #A80036; stroke-width: 2.25;" width="325.5" x="57.75" y="252"/><ellipse cx="111.3" cy="276" fill="#ADD1B2" rx="16.5" ry="16.5" style="stroke: #A80036; stroke-width: 1.5;"/><path d="M114.3,270.75 Q114.6047,270 114.9563,269.625 Q115.3078,269.25 115.7063,269.25 Q116.4094,269.25 116.8547,269.6719 Q117.3,270.0938 117.3,271.0781 L117.3,273.4219 Q117.3,274.4063 116.8781,274.8281 Q116.4563,275.25 115.8,275.25 Q115.2141,275.25 114.8391,274.9922 Q114.4641,274.7344 114.3,274.0547 Q114.2297,273.5859 113.9719,273.3281 Q113.5031,272.8359 112.6594,272.5547 Q111.8156,272.25 110.9719,272.25 Q109.9172,272.25 109.0266,272.6719 Q108.1594,273.0938 107.4797,274.0313 Q106.8,274.9688 106.8,276.2578 L106.8,277.6406 Q106.8,279.1875 108.0656,280.2188 Q109.3313,281.25 111.5813,281.25 Q112.9172,281.25 113.8547,280.9453 Q114.3938,280.7813 115.0031,280.2422 Q115.4016,279.9375 115.6125,279.8438 Q115.8234,279.75 116.0813,279.75 Q116.5734,279.75 116.925,280.1484 Q117.3,280.5234 117.3,281.0625 Q117.3,281.5781 116.7844,282.1875 Q116.0344,283.0781 114.8391,283.5703 Q113.2688,284.25 111.3469,284.25 Q109.0969,284.25 107.2922,283.3594 Q105.8391,282.6563 104.8078,281.1328 Q103.8,279.6094 103.8,277.8047 L103.8,276.1641 Q103.8,274.2891 104.6906,272.6484 Q105.6047,271.0078 107.175,270.1406 Q108.7688,269.25 110.55,269.25 Q111.6281,269.25 112.5656,269.625 Q113.5031,270 114.3,270.75 Z "/><text fill="#000000" font-family="sans-serif" font-size="18" lengthAdjust="spacingAndGlyphs" textLength="208.5" x="139.2" y="283.3652">DefaultWebServerService</text><line style="stroke: #A80036; stroke-width: 2.25;" x1="59.25" x2="381.75" y1="300" y2="300"/><line style="stroke: #A80036; stroke-width: 2.25;" x1="59.25" x2="381.75" y1="312" y2="312"/><ellipse cx="74.25" cy="328.5" fill="#84BE84" rx="4.5" ry="4.5" style="stroke: #038048; stroke-width: 1.5;"/><text fill="#000000" font-family="sans-serif" font-size="16.5" lengthAdjust="spacingAndGlyphs" textLength="286.5" x="87.75" y="335.1284">DefaultWebServerService(String name)</text><ellipse cx="74.25" cy="349.2539" fill="#84BE84" rx="4.5" ry="4.5" style="stroke: #038048; stroke-width: 1.5;"/><text fill="#000000" font-family="sans-serif" font-size="16.5" lengthAdjust="spacingAndGlyphs" textLength="226.5" x="87.75" y="355.8823">getServiceType() :ServiceType</text><!--MD5=[dd008a8062b30ad95da89f4ba84d5a0a]
class WebServerServiceType--><rect fill="#FEFECE" filter="url(#f3d2jtj00lrg2)" height="72" id="WebServerServiceType" style="stroke: #A80036; stroke-width: 2.25;" width="243" x="99" y="90"/><ellipse cx="121.5" cy="114" fill="#B4A7E5" rx="16.5" ry="16.5" style="stroke: #A80036; stroke-width: 1.5;"/><path d="M123,109.5 L123,118.5 L126,118.5 L126.7266,118.5 L127.5,119.4375 L127.5,120 L127.5,120.5625 L126.7266,121.5 L126,121.5 L117,121.5 L116.2734,121.5 L115.5,120.5625 L115.5,120 L115.5,119.4375 L116.2734,118.5 L117,118.5 L120,118.5 L120,109.5 L117,109.5 L116.2734,109.5 L115.5,108.5625 L115.5,108 L115.5,107.4375 L116.2734,106.5 L117,106.5 L126,106.5 L126.7266,106.5 L127.5,107.4375 L127.5,108 L127.5,108.5625 L126.7266,109.5 L126,109.5 L123,109.5 Z "/><text fill="#000000" font-family="sans-serif" font-size="18" font-style="italic" lengthAdjust="spacingAndGlyphs" textLength="195" x="142.5" y="121.3652">WebServerServiceType</text><line style="stroke: #A80036; stroke-width: 2.25;" x1="100.5" x2="340.5" y1="138" y2="138"/><line style="stroke: #A80036; stroke-width: 2.25;" x1="100.5" x2="340.5" y1="150" y2="150"/><!--MD5=[72e4f207d4c9336605d97dff6b57ff82]
reverse link ServiceImpl to serviceprovider.impl.DefaultAppServerService--><path d="M1241.07,162.39 C1328.925,190.455 1456.785,228.795 1560.585,259.68 " fill="none" id="ServiceImpl&lt;-serviceprovider.impl.DefaultAppServerService" style="stroke: #A80036; stroke-width: 1.5;"/><polygon fill="none" points="1237.65,172.32,1212.33,153.105,1244.1,152.34,1237.65,172.32" style="stroke: #A80036; stroke-width: 1.5;"/><!--MD5=[81f18a2b5449fa0e2285a1eb914014ad]
reverse link AppServerServiceType to serviceprovider.impl.DefaultAppServerService--><path d="M1722,192.51 C1722,211.89 1722,232.935 1722,251.655 " fill="none" id="AppServerServiceType&lt;-serviceprovider.impl.DefaultAppServerService" style="stroke: #A80036; stroke-width: 1.5; stroke-dasharray: 7.0,7.0;"/><polygon fill="none" points="1711.5,192.21,1722,162.21,1732.5,192.21,1711.5,192.21" style="stroke: #A80036; stroke-width: 1.5;"/><!--MD5=[56a77972f107d9826982dca913790d04]
reverse link ServiceImpl to serviceprovider.impl.DefaultLoggingService--><path d="M1205.13,181.395 C1231.935,203.58 1262.97,229.275 1290.03,251.655 " fill="none" id="ServiceImpl&lt;-serviceprovider.impl.DefaultLoggingService" style="stroke: #A80036; stroke-width: 1.5;"/><polygon fill="none" points="1198.35,189.42,1181.94,162.21,1211.745,173.25,1198.35,189.42" style="stroke: #A80036; stroke-width: 1.5;"/><!--MD5=[7373a2ff0a80a95e9f1e8d152dff4859]
reverse link LoggingServiceType to serviceprovider.impl.DefaultLoggingService--><path d="M1368.045,192.51 C1366.26,211.89 1364.34,232.935 1362.615,251.655 " fill="none" id="LoggingServiceType&lt;-serviceprovider.impl.DefaultLoggingService" style="stroke: #A80036; stroke-width: 1.5; stroke-dasharray: 7.0,7.0;"/><polygon fill="none" points="1357.62,191.115,1370.82,162.21,1378.53,193.035,1357.62,191.115" style="stroke: #A80036; stroke-width: 1.5;"/><!--MD5=[f6c2e854708ac31db2f93c66ddf43fb8]
reverse link ServiceImpl to serviceprovider.impl.DefaultMonitoringService--><path d="M1093.035,186.195 C1076.205,207.24 1057.305,230.88 1040.67,251.655 " fill="none" id="ServiceImpl&lt;-serviceprovider.impl.DefaultMonitoringService" style="stroke: #A80036; stroke-width: 1.5;"/><polygon fill="none" points="1085.295,179.07,1112.235,162.21,1101.69,192.195,1085.295,179.07" style="stroke: #A80036; stroke-width: 1.5;"/><!--MD5=[298a40a6964400c416205e0d80648c38]
reverse link MonitoringServiceType to serviceprovider.impl.DefaultMonitoringService--><path d="M930.825,188.985 C942,209.31 954.36,231.78 965.28,251.655 " fill="none" id="MonitoringServiceType&lt;-serviceprovider.impl.DefaultMonitoringService" style="stroke: #A80036; stroke-width: 1.5; stroke-dasharray: 7.0,7.0;"/><polygon fill="none" points="921.345,193.545,916.095,162.21,939.75,183.435,921.345,193.545" style="stroke: #A80036; stroke-width: 1.5;"/><!--MD5=[765d38495a6df13b0d27d437691320c1]
reverse link ServiceImpl to serviceprovider.impl.DefaultStorageServerService--><path d="M1038.585,162.78 C937.08,197.58 849.39,227.25 776.205,251.895 " fill="none" id="ServiceImpl&lt;-serviceprovider.impl.DefaultStorageServerService" style="stroke: #A80036; stroke-width: 1.5;"/><polygon fill="none" points="1035.795,152.64,1067.58,152.82,1042.605,172.5,1035.795,152.64" style="stroke: #A80036; stroke-width: 1.5;"/><!--MD5=[904f759a96231a3e87655da34ef19dbb]
reverse link StorageServerServiceType to serviceprovider.impl.DefaultStorageServerService--><path d="M598.995,192.51 C600.945,211.89 603.045,232.935 604.92,251.655 " fill="none" id="StorageServerServiceType&lt;-serviceprovider.impl.DefaultStorageServerService" style="stroke: #A80036; stroke-width: 1.5; stroke-dasharray: 7.0,7.0;"/><polygon fill="none" points="588.51,193.095,595.965,162.21,609.405,191.01,588.51,193.095" style="stroke: #A80036; stroke-width: 1.5;"/><!--MD5=[d86a80948440b3262018617d6f9bd6ff]
reverse link ServiceImpl to serviceprovider.impl.DefaultWebServerService--><path d="M1038.135,161.61 C760.05,226.605 677.355,193.905 409.5,252 C400.98,253.845 392.28,255.885 383.52,258.045 " fill="none" id="ServiceImpl&lt;-serviceprovider.impl.DefaultWebServerService" style="stroke: #A80036; stroke-width: 1.5;"/><polygon fill="none" points="1035.87,151.35,1067.49,154.56,1040.775,171.78,1035.87,151.35" style="stroke: #A80036; stroke-width: 1.5;"/><!--MD5=[4934b4d394278a608030e6e5f83e0c84]
reverse link WebServerServiceType to serviceprovider.impl.DefaultWebServerService--><path d="M220.5,192.51 C220.5,211.89 220.5,232.935 220.5,251.655 " fill="none" id="WebServerServiceType&lt;-serviceprovider.impl.DefaultWebServerService" style="stroke: #A80036; stroke-width: 1.5; stroke-dasharray: 7.0,7.0;"/><polygon fill="none" points="210,192.21,220.5,162.21,231,192.21,210,192.21" style="stroke: #A80036; stroke-width: 1.5;"/><!--MD5=[a884e2396db8a8bdcad6273af3fd2bca]
@startuml

package serviceprovider.impl{


    class serviceprovider.impl.DefaultAppServerService extends ServiceImpl implements AppServerServiceType  {
        + DefaultAppServerService(String name)
        + getServiceType() :ServiceType
    }




    class serviceprovider.impl.DefaultLoggingService extends ServiceImpl implements LoggingServiceType  {
        + DefaultLoggingService(String name)
        + getServiceType() :ServiceType
    }




    class serviceprovider.impl.DefaultMonitoringService extends ServiceImpl implements MonitoringServiceType {
        + DefaultMonitoringService(String name)
        + getServiceType() :ServiceType

  }



    class serviceprovider.impl.DefaultStorageServerService extends ServiceImpl implements StorageServerServiceType {
        + DefaultStorageServerService(String name)
        + getServiceType() :ServiceType
    }




    class serviceprovider.impl.DefaultWebServerService extends ServiceImpl implements WebServerServiceType{
        + DefaultWebServerService(String name)
        + getServiceType() :ServiceType

  }


}

@enduml

PlantUML version 1.2020.09(Sun May 10 12:51:06 CEST 2020)
(GPL source distribution)
Java Runtime: OpenJDK Runtime Environment
JVM: OpenJDK 64-Bit Server VM
Java Version: 11.0.8+10-b944.31
Operating System: Windows 10
Default Encoding: Cp1252
Language: fr
Country: FR
--></g></svg>