<?xml version="1.0" encoding="UTF-8" standalone="no"?><svg xmlns="http://www.w3.org/2000/svg" xmlns:xlink="http://www.w3.org/1999/xlink" contentScriptType="application/ecmascript" contentStyleType="text/css" height="573px" preserveAspectRatio="none" style="width:2424px;height:573px;" version="1.1" viewBox="0 0 2424 573" width="2424px" zoomAndPan="magnify"><defs><filter height="300%" id="f112mm92rumv82" width="300%" x="-1" y="-1"><feGaussianBlur result="blurOut" stdDeviation="3.0"/><feColorMatrix in="blurOut" result="blurOut2" type="matrix" values="0 0 0 0 0 0 0 0 0 0 0 0 0 0 0 0 0 0 .4 0"/><feOffset dx="6.0" dy="6.0" in="blurOut2" result="blurOut3"/><feBlend in="SourceGraphic" in2="blurOut3" mode="normal"/></filter></defs><g><!--MD5=[b81118c9eb9ae0d3ab743f46019641e1]
cluster serviceprovider.api--><polygon fill="#FFFFFF" filter="url(#f112mm92rumv82)" points="33,36,250.5,36,261,71.4141,2391,71.4141,2391,555,33,555,33,36" style="stroke: #000000; stroke-width: 2.25;"/><line style="stroke: #000000; stroke-width: 2.25;" x1="33" x2="261" y1="71.4141" y2="71.4141"/><text fill="#000000" font-family="sans-serif" font-size="21" font-weight="bold" lengthAdjust="spacingAndGlyphs" textLength="208.5" x="39" y="60.7998">serviceprovider.api</text><!--MD5=[1925ffaf716cf0d70e09ee6e79498970]
class serviceprovider.api.AppServerServiceType--><rect fill="#FEFECE" filter="url(#f112mm92rumv82)" height="113.5078" id="serviceprovider.api.AppServerServiceType" style="stroke: #A80036; stroke-width: 2.25;" width="303" x="382.5" y="334.5"/><ellipse cx="434.7" cy="358.5" fill="#B4A7E5" rx="16.5" ry="16.5" style="stroke: #A80036; stroke-width: 1.5;"/><path d="M436.2,354 L436.2,363 L439.2,363 L439.9266,363 L440.7,363.9375 L440.7,364.5 L440.7,365.0625 L439.9266,366 L439.2,366 L430.2,366 L429.4734,366 L428.7,365.0625 L428.7,364.5 L428.7,363.9375 L429.4734,363 L430.2,363 L433.2,363 L433.2,354 L430.2,354 L429.4734,354 L428.7,353.0625 L428.7,352.5 L428.7,351.9375 L429.4734,351 L430.2,351 L439.2,351 L439.9266,351 L440.7,351.9375 L440.7,352.5 L440.7,353.0625 L439.9266,354 L439.2,354 L436.2,354 Z "/><text fill="#000000" font-family="sans-serif" font-size="18" font-style="italic" lengthAdjust="spacingAndGlyphs" textLength="189" x="462.3" y="365.8652">AppServerServiceType</text><line style="stroke: #A80036; stroke-width: 2.25;" x1="384" x2="684" y1="382.5" y2="382.5"/><line style="stroke: #A80036; stroke-width: 2.25;" x1="384" x2="684" y1="394.5" y2="394.5"/><ellipse cx="399" cy="411" fill="#84BE84" rx="4.5" ry="4.5" style="stroke: #038048; stroke-width: 1.5;"/><text fill="#000000" font-family="sans-serif" font-size="16.5" lengthAdjust="spacingAndGlyphs" textLength="264" x="412.5" y="417.6284">createService(String name) :Service</text><ellipse cx="399" cy="431.7539" fill="#84BE84" rx="4.5" ry="4.5" style="stroke: #038048; stroke-width: 1.5;"/><text fill="#000000" font-family="sans-serif" font-size="16.5" lengthAdjust="spacingAndGlyphs" textLength="181.5" x="412.5" y="438.3823">serviceTypeKey() :String</text><!--MD5=[cd5d975a9ec97ea64af0f79792a3b3d9]
class ServiceType--><rect fill="#FEFECE" filter="url(#f112mm92rumv82)" height="72" id="ServiceType" style="stroke: #A80036; stroke-width: 2.25;" width="150" x="1321.5" y="90"/><ellipse cx="1344" cy="114" fill="#B4A7E5" rx="16.5" ry="16.5" style="stroke: #A80036; stroke-width: 1.5;"/><path d="M1345.5,109.5 L1345.5,118.5 L1348.5,118.5 L1349.2266,118.5 L1350,119.4375 L1350,120 L1350,120.5625 L1349.2266,121.5 L1348.5,121.5 L1339.5,121.5 L1338.7734,121.5 L1338,120.5625 L1338,120 L1338,119.4375 L1338.7734,118.5 L1339.5,118.5 L1342.5,118.5 L1342.5,109.5 L1339.5,109.5 L1338.7734,109.5 L1338,108.5625 L1338,108 L1338,107.4375 L1338.7734,106.5 L1339.5,106.5 L1348.5,106.5 L1349.2266,106.5 L1350,107.4375 L1350,108 L1350,108.5625 L1349.2266,109.5 L1348.5,109.5 L1345.5,109.5 Z "/><text fill="#000000" font-family="sans-serif" font-size="18" font-style="italic" lengthAdjust="spacingAndGlyphs" textLength="102" x="1365" y="121.3652">ServiceType</text><line style="stroke: #A80036; stroke-width: 2.25;" x1="1323" x2="1470" y1="138" y2="138"/><line style="stroke: #A80036; stroke-width: 2.25;" x1="1323" x2="1470" y1="150" y2="150"/><!--MD5=[0320db8b429fe9688e520efe00e4b3a6]
class BasicServiceTypeNames--><rect fill="#FEFECE" filter="url(#f112mm92rumv82)" height="279.5391" id="BasicServiceTypeNames" style="stroke: #A80036; stroke-width: 2.25;" width="273" x="57" y="252"/><ellipse cx="87.6" cy="276" fill="#EB937F" rx="16.5" ry="16.5" style="stroke: #A80036; stroke-width: 1.5;"/><path d="M85.35,277.5 L85.35,280.5 L91.35,280.5 L91.35,279 L91.35,278.2734 L92.2875,277.5 L92.85,277.5 L93.4125,277.5 L94.35,278.2734 L94.35,279 L94.35,283.5 L82.35,283.5 L81.6234,283.5 L80.85,282.5625 L80.85,282 L80.85,281.4375 L81.6234,280.5 L82.35,280.5 L82.35,280.5 L82.35,271.5 L82.35,271.5 L81.6234,271.5 L80.85,270.5625 L80.85,270 L80.85,269.4375 L81.6234,268.5 L82.35,268.5 L94.35,268.5 L94.35,273 L94.35,273.7266 L93.4125,274.5 L92.85,274.5 L92.2875,274.5 L91.35,273.7266 L91.35,273 L91.35,271.5 L85.35,271.5 L85.35,274.5 L86.85,274.5 L86.85,273.7734 L86.85,273.7734 L87.7875,273 L88.35,273 L88.9125,273 L89.85,273.7734 L89.85,274.5 L89.85,277.5 L89.85,278.2266 L88.9125,279 L88.9125,279 L88.35,279 L87.7875,279 L86.85,278.2266 L86.85,278.2266 L86.85,277.5 L85.35,277.5 Z "/><text fill="#000000" font-family="sans-serif" font-size="18" lengthAdjust="spacingAndGlyphs" textLength="207" x="110.4" y="283.3652">BasicServiceTypeNames</text><line style="stroke: #A80036; stroke-width: 2.25;" x1="58.5" x2="328.5" y1="300" y2="300"/><text fill="#000000" font-family="sans-serif" font-size="16.5" lengthAdjust="spacingAndGlyphs" textLength="100.5" x="66" y="323.1284">APP_SERVER</text><text fill="#000000" font-family="sans-serif" font-size="16.5" lengthAdjust="spacingAndGlyphs" textLength="70.5" x="66" y="343.8823">LOGGING</text><text fill="#000000" font-family="sans-serif" font-size="16.5" lengthAdjust="spacingAndGlyphs" textLength="94.5" x="66" y="364.6362">MONITORING</text><text fill="#000000" font-family="sans-serif" font-size="16.5" lengthAdjust="spacingAndGlyphs" textLength="145.5" x="66" y="385.3901">STORAGE_SERVER</text><text fill="#000000" font-family="sans-serif" font-size="16.5" lengthAdjust="spacingAndGlyphs" textLength="105" x="66" y="406.144">WEB_SERVER</text><line style="stroke: #A80036; stroke-width: 2.25;" x1="58.5" x2="328.5" y1="415.7695" y2="415.7695"/><ellipse cx="73.5" cy="432.2695" fill="#84BE84" rx="4.5" ry="4.5" style="stroke: #038048; stroke-width: 1.5;"/><text fill="#000000" font-family="sans-serif" font-size="16.5" lengthAdjust="spacingAndGlyphs" textLength="184.5" x="87" y="438.8979">getName() :APP_SERVER</text><ellipse cx="73.5" cy="453.0234" fill="#84BE84" rx="4.5" ry="4.5" style="stroke: #038048; stroke-width: 1.5;"/><text fill="#000000" font-family="sans-serif" font-size="16.5" lengthAdjust="spacingAndGlyphs" textLength="159" x="87" y="459.6519">getName() : LOGGING</text><ellipse cx="73.5" cy="473.7773" fill="#84BE84" rx="4.5" ry="4.5" style="stroke: #038048; stroke-width: 1.5;"/><text fill="#000000" font-family="sans-serif" font-size="16.5" lengthAdjust="spacingAndGlyphs" textLength="183" x="87" y="480.4058">getName() : MONITORING</text><ellipse cx="73.5" cy="494.5313" fill="#84BE84" rx="4.5" ry="4.5" style="stroke: #038048; stroke-width: 1.5;"/><text fill="#000000" font-family="sans-serif" font-size="16.5" lengthAdjust="spacingAndGlyphs" textLength="234" x="87" y="501.1597">getName() : STORAGE_SERVER</text><ellipse cx="73.5" cy="515.2852" fill="#84BE84" rx="4.5" ry="4.5" style="stroke: #038048; stroke-width: 1.5;"/><text fill="#000000" font-family="sans-serif" font-size="16.5" lengthAdjust="spacingAndGlyphs" textLength="193.5" x="87" y="521.9136">getName() : WEB_SERVER</text><!--MD5=[ccbfb8a93587fcbd3b3559fd4c1e2a0d]
class ServiceTypeName--><rect fill="#FEFECE" filter="url(#f112mm92rumv82)" height="72" id="ServiceTypeName" style="stroke: #A80036; stroke-width: 2.25;" width="201" x="93" y="90"/><ellipse cx="115.5" cy="114" fill="#B4A7E5" rx="16.5" ry="16.5" style="stroke: #A80036; stroke-width: 1.5;"/><path d="M117,109.5 L117,118.5 L120,118.5 L120.7266,118.5 L121.5,119.4375 L121.5,120 L121.5,120.5625 L120.7266,121.5 L120,121.5 L111,121.5 L110.2734,121.5 L109.5,120.5625 L109.5,120 L109.5,119.4375 L110.2734,118.5 L111,118.5 L114,118.5 L114,109.5 L111,109.5 L110.2734,109.5 L109.5,108.5625 L109.5,108 L109.5,107.4375 L110.2734,106.5 L111,106.5 L120,106.5 L120.7266,106.5 L121.5,107.4375 L121.5,108 L121.5,108.5625 L120.7266,109.5 L120,109.5 L117,109.5 Z "/><text fill="#000000" font-family="sans-serif" font-size="18" font-style="italic" lengthAdjust="spacingAndGlyphs" textLength="153" x="136.5" y="121.3652">ServiceTypeName</text><line style="stroke: #A80036; stroke-width: 2.25;" x1="94.5" x2="292.5" y1="138" y2="138"/><line style="stroke: #A80036; stroke-width: 2.25;" x1="94.5" x2="292.5" y1="150" y2="150"/><!--MD5=[48201b37ae5d0b23ba41303c0af3da4e]
class serviceprovider.api.LoggingServiceType--><rect fill="#FEFECE" filter="url(#f112mm92rumv82)" height="113.5078" id="serviceprovider.api.LoggingServiceType" style="stroke: #A80036; stroke-width: 2.25;" width="303" x="738" y="334.5"/><ellipse cx="798.975" cy="358.5" fill="#B4A7E5" rx="16.5" ry="16.5" style="stroke: #A80036; stroke-width: 1.5;"/><path d="M800.475,354 L800.475,363 L803.475,363 L804.2016,363 L804.975,363.9375 L804.975,364.5 L804.975,365.0625 L804.2016,366 L803.475,366 L794.475,366 L793.7484,366 L792.975,365.0625 L792.975,364.5 L792.975,363.9375 L793.7484,363 L794.475,363 L797.475,363 L797.475,354 L794.475,354 L793.7484,354 L792.975,353.0625 L792.975,352.5 L792.975,351.9375 L793.7484,351 L794.475,351 L803.475,351 L804.2016,351 L804.975,351.9375 L804.975,352.5 L804.975,353.0625 L804.2016,354 L803.475,354 L800.475,354 Z "/><text fill="#000000" font-family="sans-serif" font-size="18" font-style="italic" lengthAdjust="spacingAndGlyphs" textLength="169.5" x="828.525" y="365.8652">LoggingServiceType</text><line style="stroke: #A80036; stroke-width: 2.25;" x1="739.5" x2="1039.5" y1="382.5" y2="382.5"/><line style="stroke: #A80036; stroke-width: 2.25;" x1="739.5" x2="1039.5" y1="394.5" y2="394.5"/><ellipse cx="754.5" cy="411" fill="#84BE84" rx="4.5" ry="4.5" style="stroke: #038048; stroke-width: 1.5;"/><text fill="#000000" font-family="sans-serif" font-size="16.5" lengthAdjust="spacingAndGlyphs" textLength="264" x="768" y="417.6284">createService(String name) :Service</text><ellipse cx="754.5" cy="431.7539" fill="#84BE84" rx="4.5" ry="4.5" style="stroke: #038048; stroke-width: 1.5;"/><text fill="#000000" font-family="sans-serif" font-size="16.5" lengthAdjust="spacingAndGlyphs" textLength="181.5" x="768" y="438.3823">serviceTypeKey() :String</text><!--MD5=[4a4d4511d9d207c1475512e1c4a18e03]
class serviceprovider.api.MonitoringServiceType--><rect fill="#FEFECE" filter="url(#f112mm92rumv82)" height="113.5078" id="serviceprovider.api.MonitoringServiceType" style="stroke: #A80036; stroke-width: 2.25;" width="303" x="1093.5" y="334.5"/><ellipse cx="1146.375" cy="358.5" fill="#B4A7E5" rx="16.5" ry="16.5" style="stroke: #A80036; stroke-width: 1.5;"/><path d="M1147.875,354 L1147.875,363 L1150.875,363 L1151.6016,363 L1152.375,363.9375 L1152.375,364.5 L1152.375,365.0625 L1151.6016,366 L1150.875,366 L1141.875,366 L1141.1484,366 L1140.375,365.0625 L1140.375,364.5 L1140.375,363.9375 L1141.1484,363 L1141.875,363 L1144.875,363 L1144.875,354 L1141.875,354 L1141.1484,354 L1140.375,353.0625 L1140.375,352.5 L1140.375,351.9375 L1141.1484,351 L1141.875,351 L1150.875,351 L1151.6016,351 L1152.375,351.9375 L1152.375,352.5 L1152.375,353.0625 L1151.6016,354 L1150.875,354 L1147.875,354 Z "/><text fill="#000000" font-family="sans-serif" font-size="18" font-style="italic" lengthAdjust="spacingAndGlyphs" textLength="187.5" x="1174.125" y="365.8652">MonitoringServiceType</text><line style="stroke: #A80036; stroke-width: 2.25;" x1="1095" x2="1395" y1="382.5" y2="382.5"/><line style="stroke: #A80036; stroke-width: 2.25;" x1="1095" x2="1395" y1="394.5" y2="394.5"/><ellipse cx="1110" cy="411" fill="#84BE84" rx="4.5" ry="4.5" style="stroke: #038048; stroke-width: 1.5;"/><text fill="#000000" font-family="sans-serif" font-size="16.5" lengthAdjust="spacingAndGlyphs" textLength="264" x="1123.5" y="417.6284">createService(String name) :Service</text><ellipse cx="1110" cy="431.7539" fill="#84BE84" rx="4.5" ry="4.5" style="stroke: #038048; stroke-width: 1.5;"/><text fill="#000000" font-family="sans-serif" font-size="16.5" lengthAdjust="spacingAndGlyphs" textLength="181.5" x="1123.5" y="438.3823">serviceTypeKey() :String</text><!--MD5=[e6a95ab62e23176a01964d1752e38668]
class serviceprovider.api.ServiceTypeName--><rect fill="#FEFECE" filter="url(#f112mm92rumv82)" height="92.7539" id="serviceprovider.api.ServiceTypeName" style="stroke: #A80036; stroke-width: 2.25;" width="201" x="1449" y="345"/><ellipse cx="1471.5" cy="369" fill="#B4A7E5" rx="16.5" ry="16.5" style="stroke: #A80036; stroke-width: 1.5;"/><path d="M1473,364.5 L1473,373.5 L1476,373.5 L1476.7266,373.5 L1477.5,374.4375 L1477.5,375 L1477.5,375.5625 L1476.7266,376.5 L1476,376.5 L1467,376.5 L1466.2734,376.5 L1465.5,375.5625 L1465.5,375 L1465.5,374.4375 L1466.2734,373.5 L1467,373.5 L1470,373.5 L1470,364.5 L1467,364.5 L1466.2734,364.5 L1465.5,363.5625 L1465.5,363 L1465.5,362.4375 L1466.2734,361.5 L1467,361.5 L1476,361.5 L1476.7266,361.5 L1477.5,362.4375 L1477.5,363 L1477.5,363.5625 L1476.7266,364.5 L1476,364.5 L1473,364.5 Z "/><text fill="#000000" font-family="sans-serif" font-size="18" font-style="italic" lengthAdjust="spacingAndGlyphs" textLength="153" x="1492.5" y="376.3652">ServiceTypeName</text><line style="stroke: #A80036; stroke-width: 2.25;" x1="1450.5" x2="1648.5" y1="393" y2="393"/><line style="stroke: #A80036; stroke-width: 2.25;" x1="1450.5" x2="1648.5" y1="405" y2="405"/><ellipse cx="1465.5" cy="421.5" fill="#84BE84" rx="4.5" ry="4.5" style="stroke: #038048; stroke-width: 1.5;"/><text fill="#000000" font-family="sans-serif" font-size="16.5" lengthAdjust="spacingAndGlyphs" textLength="126" x="1479" y="428.1284">getName() :String</text><!--MD5=[afa0c28936958e05fbd53da53e61269f]
class serviceprovider.api.StorageServerServiceType--><rect fill="#FEFECE" filter="url(#f112mm92rumv82)" height="113.5078" id="serviceprovider.api.StorageServerServiceType" style="stroke: #A80036; stroke-width: 2.25;" width="307.5" x="1703.25" y="334.5"/><ellipse cx="1743.3" cy="358.5" fill="#B4A7E5" rx="16.5" ry="16.5" style="stroke: #A80036; stroke-width: 1.5;"/><path d="M1744.8,354 L1744.8,363 L1747.8,363 L1748.5266,363 L1749.3,363.9375 L1749.3,364.5 L1749.3,365.0625 L1748.5266,366 L1747.8,366 L1738.8,366 L1738.0734,366 L1737.3,365.0625 L1737.3,364.5 L1737.3,363.9375 L1738.0734,363 L1738.8,363 L1741.8,363 L1741.8,354 L1738.8,354 L1738.0734,354 L1737.3,353.0625 L1737.3,352.5 L1737.3,351.9375 L1738.0734,351 L1738.8,351 L1747.8,351 L1748.5266,351 L1749.3,351.9375 L1749.3,352.5 L1749.3,353.0625 L1748.5266,354 L1747.8,354 L1744.8,354 Z "/><text fill="#000000" font-family="sans-serif" font-size="18" font-style="italic" lengthAdjust="spacingAndGlyphs" textLength="220.5" x="1768.2" y="365.8652">StorageServerServiceType</text><line style="stroke: #A80036; stroke-width: 2.25;" x1="1704.75" x2="2009.25" y1="382.5" y2="382.5"/><line style="stroke: #A80036; stroke-width: 2.25;" x1="1704.75" x2="2009.25" y1="394.5" y2="394.5"/><ellipse cx="1719.75" cy="411" fill="#84BE84" rx="4.5" ry="4.5" style="stroke: #038048; stroke-width: 1.5;"/><text fill="#000000" font-family="sans-serif" font-size="16.5" lengthAdjust="spacingAndGlyphs" textLength="268.5" x="1733.25" y="417.6284">createService(String name) : Service</text><ellipse cx="1719.75" cy="431.7539" fill="#84BE84" rx="4.5" ry="4.5" style="stroke: #038048; stroke-width: 1.5;"/><text fill="#000000" font-family="sans-serif" font-size="16.5" lengthAdjust="spacingAndGlyphs" textLength="181.5" x="1733.25" y="438.3823">serviceTypeKey(): String</text><!--MD5=[b27d4817340e6e784206b41ef7fbea8c]
class serviceprovider.api.WebServerServiceType--><rect fill="#FEFECE" filter="url(#f112mm92rumv82)" height="113.5078" id="serviceprovider.api.WebServerServiceType" style="stroke: #A80036; stroke-width: 2.25;" width="303" x="2064" y="334.5"/><ellipse cx="2113.5" cy="358.5" fill="#B4A7E5" rx="16.5" ry="16.5" style="stroke: #A80036; stroke-width: 1.5;"/><path d="M2115,354 L2115,363 L2118,363 L2118.7266,363 L2119.5,363.9375 L2119.5,364.5 L2119.5,365.0625 L2118.7266,366 L2118,366 L2109,366 L2108.2734,366 L2107.5,365.0625 L2107.5,364.5 L2107.5,363.9375 L2108.2734,363 L2109,363 L2112,363 L2112,354 L2109,354 L2108.2734,354 L2107.5,353.0625 L2107.5,352.5 L2107.5,351.9375 L2108.2734,351 L2109,351 L2118,351 L2118.7266,351 L2119.5,351.9375 L2119.5,352.5 L2119.5,353.0625 L2118.7266,354 L2118,354 L2115,354 Z "/><text fill="#000000" font-family="sans-serif" font-size="18" font-style="italic" lengthAdjust="spacingAndGlyphs" textLength="195" x="2140.5" y="365.8652">WebServerServiceType</text><line style="stroke: #A80036; stroke-width: 2.25;" x1="2065.5" x2="2365.5" y1="382.5" y2="382.5"/><line style="stroke: #A80036; stroke-width: 2.25;" x1="2065.5" x2="2365.5" y1="394.5" y2="394.5"/><ellipse cx="2080.5" cy="411" fill="#84BE84" rx="4.5" ry="4.5" style="stroke: #038048; stroke-width: 1.5;"/><text fill="#000000" font-family="sans-serif" font-size="16.5" lengthAdjust="spacingAndGlyphs" textLength="264" x="2094" y="417.6284">createService(String name) :Service</text><ellipse cx="2080.5" cy="431.7539" fill="#84BE84" rx="4.5" ry="4.5" style="stroke: #038048; stroke-width: 1.5;"/><text fill="#000000" font-family="sans-serif" font-size="16.5" lengthAdjust="spacingAndGlyphs" textLength="181.5" x="2094" y="438.3823">serviceTypeKey() :String</text><!--MD5=[462111914da83f07af310fe0dc055e2e]
reverse link ServiceType to serviceprovider.api.AppServerServiceType--><path d="M1290.96,131.28 C1152.57,139.605 904.8,166.335 712.5,252 C667.77,271.92 624.165,305.295 591.255,334.23 " fill="none" id="ServiceType&lt;-serviceprovider.api.AppServerServiceType" style="stroke: #A80036; stroke-width: 1.5;"/><polygon fill="none" points="1290.705,120.765,1321.23,129.645,1291.845,141.735,1290.705,120.765" style="stroke: #A80036; stroke-width: 1.5;"/><!--MD5=[84a8fe64c861c3c1e0c9f5e9fb40ccf1]
reverse link ServiceTypeName to BasicServiceTypeNames--><path d="M193.5,192.81 C193.5,210.81 193.5,231.06 193.5,251.535 " fill="none" id="ServiceTypeName&lt;-BasicServiceTypeNames" style="stroke: #A80036; stroke-width: 1.5; stroke-dasharray: 7.0,7.0;"/><polygon fill="none" points="183,192.36,193.5,162.36,204,192.36,183,192.36" style="stroke: #A80036; stroke-width: 1.5;"/><!--MD5=[996091cc81747f504ec11b602310dac0]
reverse link ServiceType to serviceprovider.api.LoggingServiceType--><path d="M1292.355,158.19 C1225.95,179.865 1139.31,212.1 1068,252 C1026.81,275.055 984.855,306.975 951.96,334.32 " fill="none" id="ServiceType&lt;-serviceprovider.api.LoggingServiceType" style="stroke: #A80036; stroke-width: 1.5;"/><polygon fill="none" points="1289.535,148.065,1321.305,148.995,1295.895,168.09,1289.535,148.065" style="stroke: #A80036; stroke-width: 1.5;"/><!--MD5=[2668d9bffc978b74702d122dc563340b]
reverse link ServiceType to serviceprovider.api.MonitoringServiceType--><path d="M1361.1,188.82 C1335.705,232.845 1301.745,291.675 1277.13,334.335 " fill="none" id="ServiceType&lt;-serviceprovider.api.MonitoringServiceType" style="stroke: #A80036; stroke-width: 1.5;"/><polygon fill="none" points="1352.295,183.09,1376.385,162.36,1370.475,193.59,1352.295,183.09" style="stroke: #A80036; stroke-width: 1.5;"/><!--MD5=[aec8993b64b88be7c5e4aa14e47fa97e]
reverse link ServiceType to serviceprovider.api.ServiceTypeName--><path d="M1432.245,188.82 C1460.085,236.595 1498.095,301.8 1523.19,344.865 " fill="none" id="ServiceType&lt;-serviceprovider.api.ServiceTypeName" style="stroke: #A80036; stroke-width: 1.5;"/><polygon fill="none" points="1422.855,193.56,1416.81,162.36,1440.99,182.985,1422.855,193.56" style="stroke: #A80036; stroke-width: 1.5;"/><!--MD5=[afffd1be60fcd079b10b515df1460e90]
reverse link ServiceType to serviceprovider.api.StorageServerServiceType--><path d="M1499.46,166.35 C1553.79,188.535 1620.69,218.565 1677,252 C1717.29,275.925 1759.02,307.425 1792.14,334.29 " fill="none" id="ServiceType&lt;-serviceprovider.api.StorageServerServiceType" style="stroke: #A80036; stroke-width: 1.5;"/><polygon fill="none" points="1495.47,176.055,1471.515,155.175,1503.27,156.555,1495.47,176.055" style="stroke: #A80036; stroke-width: 1.5;"/><!--MD5=[1c641e01c7b64fb904a7ad7e10d57990]
reverse link ServiceType to serviceprovider.api.WebServerServiceType--><path d="M1502.235,133.08 C1633.05,143.28 1860.15,171.945 2037,252 C2081.61,272.19 2125.215,305.565 2158.155,334.44 " fill="none" id="ServiceType&lt;-serviceprovider.api.WebServerServiceType" style="stroke: #A80036; stroke-width: 1.5;"/><polygon fill="none" points="1501.095,143.52,1471.92,130.905,1502.595,122.58,1501.095,143.52" style="stroke: #A80036; stroke-width: 1.5;"/><!--MD5=[123a2964bed2242e2800c76c4c266b2a]
@startuml

package serviceprovider.api{

 
    interface serviceprovider.api.AppServerServiceType extends ServiceType{
        + createService(String name) :Service
        + serviceTypeKey() :String
    }
 
  

  
    enum BasicServiceTypeNames implements ServiceTypeName  {
      APP_SERVER
      LOGGING
      MONITORING
      STORAGE_SERVER
      WEB_SERVER
      +getName() :APP_SERVER
      +getName() : LOGGING
      +getName() : MONITORING
      +getName() : STORAGE_SERVER
      +getName() : WEB_SERVER
      
    }
 
  

 
    interface serviceprovider.api.LoggingServiceType extends ServiceType {
        + createService(String name) :Service
        + serviceTypeKey() :String
    }
 
  

 
    interface serviceprovider.api.MonitoringServiceType extends ServiceType {
        + createService(String name) :Service
        + serviceTypeKey() :String
    }
 
  

   
    interface serviceprovider.api.ServiceTypeName  extends ServiceType {
       + getName() :String
   
  }
  

 
    interface serviceprovider.api.StorageServerServiceType extends ServiceType {
        + createService(String name) : Service
        + serviceTypeKey(): String
 }
  

 
    interface serviceprovider.api.WebServerServiceType extends ServiceType{
        + createService(String name) :Service
        + serviceTypeKey() :String
  }
}

@enduml

PlantUML version 1.2020.09(Sun May 10 12:51:06 CEST 2020)
(GPL source distribution)
Java Runtime: OpenJDK Runtime Environment
JVM: OpenJDK 64-Bit Server VM
Java Version: 11.0.8+10-b944.31
Operating System: Windows 10
Default Encoding: Cp1252
Language: fr
Country: FR
--></g></svg>