<?xml version="1.0" encoding="UTF-8" standalone="no"?><svg xmlns="http://www.w3.org/2000/svg" xmlns:xlink="http://www.w3.org/1999/xlink" contentScriptType="application/ecmascript" contentStyleType="text/css" height="453px" preserveAspectRatio="none" style="width:2232px;height:453px;" version="1.1" viewBox="0 0 2232 453" width="2232px" zoomAndPan="magnify"><defs><filter height="300%" id="f14r181ncmwi8k" width="300%" x="-1" y="-1"><feGaussianBlur result="blurOut" stdDeviation="3.0"/><feColorMatrix in="blurOut" result="blurOut2" type="matrix" values="0 0 0 0 0 0 0 0 0 0 0 0 0 0 0 0 0 0 .4 0"/><feOffset dx="6.0" dy="6.0" in="blurOut2" result="blurOut3"/><feBlend in="SourceGraphic" in2="blurOut3" mode="normal"/></filter></defs><g><!--MD5=[43799bf08f981550d9b22a6b20d6dff0]
cluster shutdown--><polygon fill="#FFFFFF" filter="url(#f14r181ncmwi8k)" points="648,36,760.5,36,771,71.4141,1243.5,71.4141,1243.5,186,648,186,648,36" style="stroke: #000000; stroke-width: 2.25;"/><line style="stroke: #000000; stroke-width: 2.25;" x1="648" x2="771" y1="71.4141" y2="71.4141"/><text fill="#000000" font-family="sans-serif" font-size="21" font-weight="bold" lengthAdjust="spacingAndGlyphs" textLength="103.5" x="654" y="60.7998">shutdown</text><!--MD5=[e4a0856b0ceae0a57661f7b5db0cc256]
cluster cloud.impl.shutdown--><polygon fill="#FFFFFF" filter="url(#f14r181ncmwi8k)" points="33,222,259.5,222,270,257.4141,2199,257.4141,2199,435,33,435,33,222" style="stroke: #000000; stroke-width: 2.25;"/><line style="stroke: #000000; stroke-width: 2.25;" x1="33" x2="270" y1="257.4141" y2="257.4141"/><text fill="#000000" font-family="sans-serif" font-size="21" font-weight="bold" lengthAdjust="spacingAndGlyphs" textLength="217.5" x="39" y="246.7998">cloud.impl.shutdown</text><!--MD5=[11f109ffe2c9c06085f5947abd672123]
class ServiceShutdown--><rect fill="#FEFECE" filter="url(#f14r181ncmwi8k)" height="72" id="ServiceShutdown" style="stroke: #A80036; stroke-width: 2.25;" width="190.5" x="1028.25" y="90"/><ellipse cx="1050.75" cy="114" fill="#ADD1B2" rx="16.5" ry="16.5" style="stroke: #A80036; stroke-width: 1.5;"/><path d="M1053.75,108.75 Q1054.0547,108 1054.4063,107.625 Q1054.7578,107.25 1055.1563,107.25 Q1055.8594,107.25 1056.3047,107.6719 Q1056.75,108.0938 1056.75,109.0781 L1056.75,111.4219 Q1056.75,112.4063 1056.3281,112.8281 Q1055.9063,113.25 1055.25,113.25 Q1054.6641,113.25 1054.2891,112.9922 Q1053.9141,112.7344 1053.75,112.0547 Q1053.6797,111.5859 1053.4219,111.3281 Q1052.9531,110.8359 1052.1094,110.5547 Q1051.2656,110.25 1050.4219,110.25 Q1049.3672,110.25 1048.4766,110.6719 Q1047.6094,111.0938 1046.9297,112.0313 Q1046.25,112.9688 1046.25,114.2578 L1046.25,115.6406 Q1046.25,117.1875 1047.5156,118.2188 Q1048.7813,119.25 1051.0313,119.25 Q1052.3672,119.25 1053.3047,118.9453 Q1053.8438,118.7813 1054.4531,118.2422 Q1054.8516,117.9375 1055.0625,117.8438 Q1055.2734,117.75 1055.5313,117.75 Q1056.0234,117.75 1056.375,118.1484 Q1056.75,118.5234 1056.75,119.0625 Q1056.75,119.5781 1056.2344,120.1875 Q1055.4844,121.0781 1054.2891,121.5703 Q1052.7188,122.25 1050.7969,122.25 Q1048.5469,122.25 1046.7422,121.3594 Q1045.2891,120.6563 1044.2578,119.1328 Q1043.25,117.6094 1043.25,115.8047 L1043.25,114.1641 Q1043.25,112.2891 1044.1406,110.6484 Q1045.0547,109.0078 1046.625,108.1406 Q1048.2188,107.25 1050,107.25 Q1051.0781,107.25 1052.0156,107.625 Q1052.9531,108 1053.75,108.75 Z "/><text fill="#000000" font-family="sans-serif" font-size="18" lengthAdjust="spacingAndGlyphs" textLength="142.5" x="1071.75" y="121.3652">ServiceShutdown</text><line style="stroke: #A80036; stroke-width: 2.25;" x1="1029.75" x2="1217.25" y1="138" y2="138"/><line style="stroke: #A80036; stroke-width: 2.25;" x1="1029.75" x2="1217.25" y1="150" y2="150"/><!--MD5=[7c030ed7561a306f736aeab85becb436]
class DeploymentPlanShutdownImpl--><rect fill="#FEFECE" filter="url(#f14r181ncmwi8k)" height="72" id="DeploymentPlanShutdownImpl" style="stroke: #A80036; stroke-width: 2.25;" width="303" x="672" y="90"/><ellipse cx="694.5" cy="114" fill="#ADD1B2" rx="16.5" ry="16.5" style="stroke: #A80036; stroke-width: 1.5;"/><path d="M697.5,108.75 Q697.8047,108 698.1563,107.625 Q698.5078,107.25 698.9063,107.25 Q699.6094,107.25 700.0547,107.6719 Q700.5,108.0938 700.5,109.0781 L700.5,111.4219 Q700.5,112.4063 700.0781,112.8281 Q699.6563,113.25 699,113.25 Q698.4141,113.25 698.0391,112.9922 Q697.6641,112.7344 697.5,112.0547 Q697.4297,111.5859 697.1719,111.3281 Q696.7031,110.8359 695.8594,110.5547 Q695.0156,110.25 694.1719,110.25 Q693.1172,110.25 692.2266,110.6719 Q691.3594,111.0938 690.6797,112.0313 Q690,112.9688 690,114.2578 L690,115.6406 Q690,117.1875 691.2656,118.2188 Q692.5313,119.25 694.7813,119.25 Q696.1172,119.25 697.0547,118.9453 Q697.5938,118.7813 698.2031,118.2422 Q698.6016,117.9375 698.8125,117.8438 Q699.0234,117.75 699.2813,117.75 Q699.7734,117.75 700.125,118.1484 Q700.5,118.5234 700.5,119.0625 Q700.5,119.5781 699.9844,120.1875 Q699.2344,121.0781 698.0391,121.5703 Q696.4688,122.25 694.5469,122.25 Q692.2969,122.25 690.4922,121.3594 Q689.0391,120.6563 688.0078,119.1328 Q687,117.6094 687,115.8047 L687,114.1641 Q687,112.2891 687.8906,110.6484 Q688.8047,109.0078 690.375,108.1406 Q691.9688,107.25 693.75,107.25 Q694.8281,107.25 695.7656,107.625 Q696.7031,108 697.5,108.75 Z "/><text fill="#000000" font-family="sans-serif" font-size="18" lengthAdjust="spacingAndGlyphs" textLength="255" x="715.5" y="121.3652">DeploymentPlanShutdownImpl</text><line style="stroke: #A80036; stroke-width: 2.25;" x1="673.5" x2="973.5" y1="138" y2="138"/><line style="stroke: #A80036; stroke-width: 2.25;" x1="673.5" x2="973.5" y1="150" y2="150"/><!--MD5=[abc9a529a11449317f57e81c91e19f95]
class cloud.impl.shutdown.ApplicationServiceShutdown--><rect fill="#FEFECE" filter="url(#f14r181ncmwi8k)" height="92.7539" id="cloud.impl.shutdown.ApplicationServiceShutdown" style="stroke: #A80036; stroke-width: 2.25;" width="280.5" x="1305.75" y="297"/><ellipse cx="1328.25" cy="321" fill="#ADD1B2" rx="16.5" ry="16.5" style="stroke: #A80036; stroke-width: 1.5;"/><path d="M1331.25,315.75 Q1331.5547,315 1331.9063,314.625 Q1332.2578,314.25 1332.6563,314.25 Q1333.3594,314.25 1333.8047,314.6719 Q1334.25,315.0938 1334.25,316.0781 L1334.25,318.4219 Q1334.25,319.4063 1333.8281,319.8281 Q1333.4063,320.25 1332.75,320.25 Q1332.1641,320.25 1331.7891,319.9922 Q1331.4141,319.7344 1331.25,319.0547 Q1331.1797,318.5859 1330.9219,318.3281 Q1330.4531,317.8359 1329.6094,317.5547 Q1328.7656,317.25 1327.9219,317.25 Q1326.8672,317.25 1325.9766,317.6719 Q1325.1094,318.0938 1324.4297,319.0313 Q1323.75,319.9688 1323.75,321.2578 L1323.75,322.6406 Q1323.75,324.1875 1325.0156,325.2188 Q1326.2813,326.25 1328.5313,326.25 Q1329.8672,326.25 1330.8047,325.9453 Q1331.3438,325.7813 1331.9531,325.2422 Q1332.3516,324.9375 1332.5625,324.8438 Q1332.7734,324.75 1333.0313,324.75 Q1333.5234,324.75 1333.875,325.1484 Q1334.25,325.5234 1334.25,326.0625 Q1334.25,326.5781 1333.7344,327.1875 Q1332.9844,328.0781 1331.7891,328.5703 Q1330.2188,329.25 1328.2969,329.25 Q1326.0469,329.25 1324.2422,328.3594 Q1322.7891,327.6563 1321.7578,326.1328 Q1320.75,324.6094 1320.75,322.8047 L1320.75,321.1641 Q1320.75,319.2891 1321.6406,317.6484 Q1322.5547,316.0078 1324.125,315.1406 Q1325.7188,314.25 1327.5,314.25 Q1328.5781,314.25 1329.5156,314.625 Q1330.4531,315 1331.25,315.75 Z "/><text fill="#000000" font-family="sans-serif" font-size="18" lengthAdjust="spacingAndGlyphs" textLength="232.5" x="1349.25" y="328.3652">ApplicationServiceShutdown</text><line style="stroke: #A80036; stroke-width: 2.25;" x1="1307.25" x2="1584.75" y1="345" y2="345"/><line style="stroke: #A80036; stroke-width: 2.25;" x1="1307.25" x2="1584.75" y1="357" y2="357"/><ellipse cx="1322.25" cy="373.5" fill="#84BE84" rx="4.5" ry="4.5" style="stroke: #038048; stroke-width: 1.5;"/><text fill="#000000" font-family="sans-serif" font-size="16.5" lengthAdjust="spacingAndGlyphs" textLength="222" x="1335.75" y="380.1284">ApplicationServiceShutdown()</text><!--MD5=[993c2bff254eeabe77a303415d09c9be]
class cloud.impl.shutdown.ComputeNodeShutdown--><rect fill="#FEFECE" filter="url(#f14r181ncmwi8k)" height="134.2617" id="cloud.impl.shutdown.ComputeNodeShutdown" style="stroke: #A80036; stroke-width: 2.25;" width="252" x="57" y="276"/><ellipse cx="79.5" cy="300" fill="#ADD1B2" rx="16.5" ry="16.5" style="stroke: #A80036; stroke-width: 1.5;"/><path d="M82.5,294.75 Q82.8047,294 83.1563,293.625 Q83.5078,293.25 83.9063,293.25 Q84.6094,293.25 85.0547,293.6719 Q85.5,294.0938 85.5,295.0781 L85.5,297.4219 Q85.5,298.4063 85.0781,298.8281 Q84.6563,299.25 84,299.25 Q83.4141,299.25 83.0391,298.9922 Q82.6641,298.7344 82.5,298.0547 Q82.4297,297.5859 82.1719,297.3281 Q81.7031,296.8359 80.8594,296.5547 Q80.0156,296.25 79.1719,296.25 Q78.1172,296.25 77.2266,296.6719 Q76.3594,297.0938 75.6797,298.0313 Q75,298.9688 75,300.2578 L75,301.6406 Q75,303.1875 76.2656,304.2188 Q77.5313,305.25 79.7813,305.25 Q81.1172,305.25 82.0547,304.9453 Q82.5938,304.7813 83.2031,304.2422 Q83.6016,303.9375 83.8125,303.8438 Q84.0234,303.75 84.2813,303.75 Q84.7734,303.75 85.125,304.1484 Q85.5,304.5234 85.5,305.0625 Q85.5,305.5781 84.9844,306.1875 Q84.2344,307.0781 83.0391,307.5703 Q81.4688,308.25 79.5469,308.25 Q77.2969,308.25 75.4922,307.3594 Q74.0391,306.6563 73.0078,305.1328 Q72,303.6094 72,301.8047 L72,300.1641 Q72,298.2891 72.8906,296.6484 Q73.8047,295.0078 75.375,294.1406 Q76.9688,293.25 78.75,293.25 Q79.8281,293.25 80.7656,293.625 Q81.7031,294 82.5,294.75 Z "/><text fill="#000000" font-family="sans-serif" font-size="18" lengthAdjust="spacingAndGlyphs" textLength="204" x="100.5" y="307.3652">ComputeNodeShutdown</text><line style="stroke: #A80036; stroke-width: 2.25;" x1="58.5" x2="307.5" y1="324" y2="324"/><rect fill="none" height="9" style="stroke: #C82930; stroke-width: 1.5;" width="9" x="69" y="336"/><text fill="#000000" font-family="sans-serif" font-size="16.5" lengthAdjust="spacingAndGlyphs" textLength="160.5" x="87" y="347.1284">allShutdown : boolean</text><line style="stroke: #A80036; stroke-width: 2.25;" x1="58.5" x2="307.5" y1="356.7539" y2="356.7539"/><ellipse cx="73.5" cy="373.2539" fill="#84BE84" rx="4.5" ry="4.5" style="stroke: #038048; stroke-width: 1.5;"/><text fill="#000000" font-family="sans-serif" font-size="16.5" lengthAdjust="spacingAndGlyphs" textLength="187.5" x="87" y="379.8823">ComputeNodeShutdown()</text><ellipse cx="73.5" cy="394.0078" fill="#84BE84" rx="4.5" ry="4.5" style="stroke: #038048; stroke-width: 1.5;"/><text fill="#000000" font-family="sans-serif" font-size="16.5" lengthAdjust="spacingAndGlyphs" textLength="43.5" x="87" y="400.6362">stop()</text><!--MD5=[988ee03158adfbff494ea69795cb0086]
class cloud.impl.shutdown.LoggingServiceShutdown--><rect fill="#FEFECE" filter="url(#f14r181ncmwi8k)" height="92.7539" id="cloud.impl.shutdown.LoggingServiceShutdown" style="stroke: #A80036; stroke-width: 2.25;" width="258" x="994.5" y="297"/><ellipse cx="1017" cy="321" fill="#ADD1B2" rx="16.5" ry="16.5" style="stroke: #A80036; stroke-width: 1.5;"/><path d="M1020,315.75 Q1020.3047,315 1020.6563,314.625 Q1021.0078,314.25 1021.4063,314.25 Q1022.1094,314.25 1022.5547,314.6719 Q1023,315.0938 1023,316.0781 L1023,318.4219 Q1023,319.4063 1022.5781,319.8281 Q1022.1563,320.25 1021.5,320.25 Q1020.9141,320.25 1020.5391,319.9922 Q1020.1641,319.7344 1020,319.0547 Q1019.9297,318.5859 1019.6719,318.3281 Q1019.2031,317.8359 1018.3594,317.5547 Q1017.5156,317.25 1016.6719,317.25 Q1015.6172,317.25 1014.7266,317.6719 Q1013.8594,318.0938 1013.1797,319.0313 Q1012.5,319.9688 1012.5,321.2578 L1012.5,322.6406 Q1012.5,324.1875 1013.7656,325.2188 Q1015.0313,326.25 1017.2813,326.25 Q1018.6172,326.25 1019.5547,325.9453 Q1020.0938,325.7813 1020.7031,325.2422 Q1021.1016,324.9375 1021.3125,324.8438 Q1021.5234,324.75 1021.7813,324.75 Q1022.2734,324.75 1022.625,325.1484 Q1023,325.5234 1023,326.0625 Q1023,326.5781 1022.4844,327.1875 Q1021.7344,328.0781 1020.5391,328.5703 Q1018.9688,329.25 1017.0469,329.25 Q1014.7969,329.25 1012.9922,328.3594 Q1011.5391,327.6563 1010.5078,326.1328 Q1009.5,324.6094 1009.5,322.8047 L1009.5,321.1641 Q1009.5,319.2891 1010.3906,317.6484 Q1011.3047,316.0078 1012.875,315.1406 Q1014.4688,314.25 1016.25,314.25 Q1017.3281,314.25 1018.2656,314.625 Q1019.2031,315 1020,315.75 Z "/><text fill="#000000" font-family="sans-serif" font-size="18" lengthAdjust="spacingAndGlyphs" textLength="210" x="1038" y="328.3652">LoggingServiceShutdown</text><line style="stroke: #A80036; stroke-width: 2.25;" x1="996" x2="1251" y1="345" y2="345"/><line style="stroke: #A80036; stroke-width: 2.25;" x1="996" x2="1251" y1="357" y2="357"/><ellipse cx="1011" cy="373.5" fill="#84BE84" rx="4.5" ry="4.5" style="stroke: #038048; stroke-width: 1.5;"/><text fill="#000000" font-family="sans-serif" font-size="16.5" lengthAdjust="spacingAndGlyphs" textLength="199.5" x="1024.5" y="380.1284">LoggingServiceShutdown()</text><!--MD5=[b663450e057b3f385273975738dd6cc3]
class cloud.impl.shutdown.MonitoringServiceShutdown--><rect fill="#FEFECE" filter="url(#f14r181ncmwi8k)" height="92.7539" id="cloud.impl.shutdown.MonitoringServiceShutdown" style="stroke: #A80036; stroke-width: 2.25;" width="276" x="666" y="297"/><ellipse cx="688.5" cy="321" fill="#ADD1B2" rx="16.5" ry="16.5" style="stroke: #A80036; stroke-width: 1.5;"/><path d="M691.5,315.75 Q691.8047,315 692.1563,314.625 Q692.5078,314.25 692.9063,314.25 Q693.6094,314.25 694.0547,314.6719 Q694.5,315.0938 694.5,316.0781 L694.5,318.4219 Q694.5,319.4063 694.0781,319.8281 Q693.6563,320.25 693,320.25 Q692.4141,320.25 692.0391,319.9922 Q691.6641,319.7344 691.5,319.0547 Q691.4297,318.5859 691.1719,318.3281 Q690.7031,317.8359 689.8594,317.5547 Q689.0156,317.25 688.1719,317.25 Q687.1172,317.25 686.2266,317.6719 Q685.3594,318.0938 684.6797,319.0313 Q684,319.9688 684,321.2578 L684,322.6406 Q684,324.1875 685.2656,325.2188 Q686.5313,326.25 688.7813,326.25 Q690.1172,326.25 691.0547,325.9453 Q691.5938,325.7813 692.2031,325.2422 Q692.6016,324.9375 692.8125,324.8438 Q693.0234,324.75 693.2813,324.75 Q693.7734,324.75 694.125,325.1484 Q694.5,325.5234 694.5,326.0625 Q694.5,326.5781 693.9844,327.1875 Q693.2344,328.0781 692.0391,328.5703 Q690.4688,329.25 688.5469,329.25 Q686.2969,329.25 684.4922,328.3594 Q683.0391,327.6563 682.0078,326.1328 Q681,324.6094 681,322.8047 L681,321.1641 Q681,319.2891 681.8906,317.6484 Q682.8047,316.0078 684.375,315.1406 Q685.9688,314.25 687.75,314.25 Q688.8281,314.25 689.7656,314.625 Q690.7031,315 691.5,315.75 Z "/><text fill="#000000" font-family="sans-serif" font-size="18" lengthAdjust="spacingAndGlyphs" textLength="228" x="709.5" y="328.3652">MonitoringServiceShutdown</text><line style="stroke: #A80036; stroke-width: 2.25;" x1="667.5" x2="940.5" y1="345" y2="345"/><line style="stroke: #A80036; stroke-width: 2.25;" x1="667.5" x2="940.5" y1="357" y2="357"/><ellipse cx="682.5" cy="373.5" fill="#84BE84" rx="4.5" ry="4.5" style="stroke: #038048; stroke-width: 1.5;"/><text fill="#000000" font-family="sans-serif" font-size="16.5" lengthAdjust="spacingAndGlyphs" textLength="216" x="696" y="380.1284">MonitoringServiceShutdown()</text><!--MD5=[ef56e293fb011260502fe81439aec05c]
class cloud.impl.shutdown.StorageServiceShutdown--><rect fill="#FEFECE" filter="url(#f14r181ncmwi8k)" height="92.7539" id="cloud.impl.shutdown.StorageServiceShutdown" style="stroke: #A80036; stroke-width: 2.25;" width="255" x="1920" y="297"/><ellipse cx="1942.5" cy="321" fill="#ADD1B2" rx="16.5" ry="16.5" style="stroke: #A80036; stroke-width: 1.5;"/><path d="M1945.5,315.75 Q1945.8047,315 1946.1563,314.625 Q1946.5078,314.25 1946.9063,314.25 Q1947.6094,314.25 1948.0547,314.6719 Q1948.5,315.0938 1948.5,316.0781 L1948.5,318.4219 Q1948.5,319.4063 1948.0781,319.8281 Q1947.6563,320.25 1947,320.25 Q1946.4141,320.25 1946.0391,319.9922 Q1945.6641,319.7344 1945.5,319.0547 Q1945.4297,318.5859 1945.1719,318.3281 Q1944.7031,317.8359 1943.8594,317.5547 Q1943.0156,317.25 1942.1719,317.25 Q1941.1172,317.25 1940.2266,317.6719 Q1939.3594,318.0938 1938.6797,319.0313 Q1938,319.9688 1938,321.2578 L1938,322.6406 Q1938,324.1875 1939.2656,325.2188 Q1940.5313,326.25 1942.7813,326.25 Q1944.1172,326.25 1945.0547,325.9453 Q1945.5938,325.7813 1946.2031,325.2422 Q1946.6016,324.9375 1946.8125,324.8438 Q1947.0234,324.75 1947.2813,324.75 Q1947.7734,324.75 1948.125,325.1484 Q1948.5,325.5234 1948.5,326.0625 Q1948.5,326.5781 1947.9844,327.1875 Q1947.2344,328.0781 1946.0391,328.5703 Q1944.4688,329.25 1942.5469,329.25 Q1940.2969,329.25 1938.4922,328.3594 Q1937.0391,327.6563 1936.0078,326.1328 Q1935,324.6094 1935,322.8047 L1935,321.1641 Q1935,319.2891 1935.8906,317.6484 Q1936.8047,316.0078 1938.375,315.1406 Q1939.9688,314.25 1941.75,314.25 Q1942.8281,314.25 1943.7656,314.625 Q1944.7031,315 1945.5,315.75 Z "/><text fill="#000000" font-family="sans-serif" font-size="18" lengthAdjust="spacingAndGlyphs" textLength="207" x="1963.5" y="328.3652">StorageServiceShutdown</text><line style="stroke: #A80036; stroke-width: 2.25;" x1="1921.5" x2="2173.5" y1="345" y2="345"/><line style="stroke: #A80036; stroke-width: 2.25;" x1="1921.5" x2="2173.5" y1="357" y2="357"/><ellipse cx="1936.5" cy="373.5" fill="#84BE84" rx="4.5" ry="4.5" style="stroke: #038048; stroke-width: 1.5;"/><text fill="#000000" font-family="sans-serif" font-size="16.5" lengthAdjust="spacingAndGlyphs" textLength="199.5" x="1950" y="380.1284">StorageServiceShutdown()</text><!--MD5=[471567727bb5528a1c11a277dec8696b]
class cloud.impl.shutdown.VirtualMachineShutdown--><rect fill="#FEFECE" filter="url(#f14r181ncmwi8k)" height="134.2617" id="cloud.impl.shutdown.VirtualMachineShutdown" style="stroke: #A80036; stroke-width: 2.25;" width="250.5" x="362.25" y="276"/><ellipse cx="384.75" cy="300" fill="#ADD1B2" rx="16.5" ry="16.5" style="stroke: #A80036; stroke-width: 1.5;"/><path d="M387.75,294.75 Q388.0547,294 388.4063,293.625 Q388.7578,293.25 389.1563,293.25 Q389.8594,293.25 390.3047,293.6719 Q390.75,294.0938 390.75,295.0781 L390.75,297.4219 Q390.75,298.4063 390.3281,298.8281 Q389.9063,299.25 389.25,299.25 Q388.6641,299.25 388.2891,298.9922 Q387.9141,298.7344 387.75,298.0547 Q387.6797,297.5859 387.4219,297.3281 Q386.9531,296.8359 386.1094,296.5547 Q385.2656,296.25 384.4219,296.25 Q383.3672,296.25 382.4766,296.6719 Q381.6094,297.0938 380.9297,298.0313 Q380.25,298.9688 380.25,300.2578 L380.25,301.6406 Q380.25,303.1875 381.5156,304.2188 Q382.7813,305.25 385.0313,305.25 Q386.3672,305.25 387.3047,304.9453 Q387.8438,304.7813 388.4531,304.2422 Q388.8516,303.9375 389.0625,303.8438 Q389.2734,303.75 389.5313,303.75 Q390.0234,303.75 390.375,304.1484 Q390.75,304.5234 390.75,305.0625 Q390.75,305.5781 390.2344,306.1875 Q389.4844,307.0781 388.2891,307.5703 Q386.7188,308.25 384.7969,308.25 Q382.5469,308.25 380.7422,307.3594 Q379.2891,306.6563 378.2578,305.1328 Q377.25,303.6094 377.25,301.8047 L377.25,300.1641 Q377.25,298.2891 378.1406,296.6484 Q379.0547,295.0078 380.625,294.1406 Q382.2188,293.25 384,293.25 Q385.0781,293.25 386.0156,293.625 Q386.9531,294 387.75,294.75 Z "/><text fill="#000000" font-family="sans-serif" font-size="18" lengthAdjust="spacingAndGlyphs" textLength="202.5" x="405.75" y="307.3652">VirtualMachineShutdown</text><line style="stroke: #A80036; stroke-width: 2.25;" x1="363.75" x2="611.25" y1="324" y2="324"/><rect fill="none" height="9" style="stroke: #C82930; stroke-width: 1.5;" width="9" x="374.25" y="336"/><text fill="#000000" font-family="sans-serif" font-size="16.5" lengthAdjust="spacingAndGlyphs" textLength="160.5" x="392.25" y="347.1284">allShutdown : boolean</text><line style="stroke: #A80036; stroke-width: 2.25;" x1="363.75" x2="611.25" y1="356.7539" y2="356.7539"/><ellipse cx="378.75" cy="373.2539" fill="#84BE84" rx="4.5" ry="4.5" style="stroke: #038048; stroke-width: 1.5;"/><text fill="#000000" font-family="sans-serif" font-size="16.5" lengthAdjust="spacingAndGlyphs" textLength="193.5" x="392.25" y="379.8823">VirtualMachineShutdown()</text><ellipse cx="378.75" cy="394.0078" fill="#84BE84" rx="4.5" ry="4.5" style="stroke: #038048; stroke-width: 1.5;"/><text fill="#000000" font-family="sans-serif" font-size="16.5" lengthAdjust="spacingAndGlyphs" textLength="43.5" x="392.25" y="400.6362">stop()</text><!--MD5=[0c10b2dd0707bfd8e6de6bdc14967c9e]
class cloud.impl.shutdown.WebServiceShutdown--><rect fill="#FEFECE" filter="url(#f14r181ncmwi8k)" height="92.7539" id="cloud.impl.shutdown.WebServiceShutdown" style="stroke: #A80036; stroke-width: 2.25;" width="228" x="1639.5" y="297"/><ellipse cx="1662" cy="321" fill="#ADD1B2" rx="16.5" ry="16.5" style="stroke: #A80036; stroke-width: 1.5;"/><path d="M1665,315.75 Q1665.3047,315 1665.6563,314.625 Q1666.0078,314.25 1666.4063,314.25 Q1667.1094,314.25 1667.5547,314.6719 Q1668,315.0938 1668,316.0781 L1668,318.4219 Q1668,319.4063 1667.5781,319.8281 Q1667.1563,320.25 1666.5,320.25 Q1665.9141,320.25 1665.5391,319.9922 Q1665.1641,319.7344 1665,319.0547 Q1664.9297,318.5859 1664.6719,318.3281 Q1664.2031,317.8359 1663.3594,317.5547 Q1662.5156,317.25 1661.6719,317.25 Q1660.6172,317.25 1659.7266,317.6719 Q1658.8594,318.0938 1658.1797,319.0313 Q1657.5,319.9688 1657.5,321.2578 L1657.5,322.6406 Q1657.5,324.1875 1658.7656,325.2188 Q1660.0313,326.25 1662.2813,326.25 Q1663.6172,326.25 1664.5547,325.9453 Q1665.0938,325.7813 1665.7031,325.2422 Q1666.1016,324.9375 1666.3125,324.8438 Q1666.5234,324.75 1666.7813,324.75 Q1667.2734,324.75 1667.625,325.1484 Q1668,325.5234 1668,326.0625 Q1668,326.5781 1667.4844,327.1875 Q1666.7344,328.0781 1665.5391,328.5703 Q1663.9688,329.25 1662.0469,329.25 Q1659.7969,329.25 1657.9922,328.3594 Q1656.5391,327.6563 1655.5078,326.1328 Q1654.5,324.6094 1654.5,322.8047 L1654.5,321.1641 Q1654.5,319.2891 1655.3906,317.6484 Q1656.3047,316.0078 1657.875,315.1406 Q1659.4688,314.25 1661.25,314.25 Q1662.3281,314.25 1663.2656,314.625 Q1664.2031,315 1665,315.75 Z "/><text fill="#000000" font-family="sans-serif" font-size="18" lengthAdjust="spacingAndGlyphs" textLength="180" x="1683" y="328.3652">WebServiceShutdown</text><line style="stroke: #A80036; stroke-width: 2.25;" x1="1641" x2="1866" y1="345" y2="345"/><line style="stroke: #A80036; stroke-width: 2.25;" x1="1641" x2="1866" y1="357" y2="357"/><ellipse cx="1656" cy="373.5" fill="#84BE84" rx="4.5" ry="4.5" style="stroke: #038048; stroke-width: 1.5;"/><text fill="#000000" font-family="sans-serif" font-size="16.5" lengthAdjust="spacingAndGlyphs" textLength="175.5" x="1669.5" y="380.1284">WebServiceShutdown()</text><!--MD5=[ac3cbb3d90672fd2718c49a6cb946cfe]
reverse link ServiceShutdown to cloud.impl.shutdown.ApplicationServiceShutdown--><path d="M1222.44,176.295 C1241.73,186.795 1261.545,198.27 1279.5,210 C1319.655,236.22 1361.97,269.85 1393.89,296.595 " fill="none" id="ServiceShutdown&lt;-cloud.impl.shutdown.ApplicationServiceShutdown" style="stroke: #A80036; stroke-width: 1.5;"/><polygon fill="none" points="1217.37,185.49,1195.74,162.195,1227.18,166.92,1217.37,185.49" style="stroke: #A80036; stroke-width: 1.5;"/><!--MD5=[2c4f1d3eb6dfa8cca778d0bc666dafd0]
reverse link DeploymentPlanShutdownImpl to cloud.impl.shutdown.ComputeNodeShutdown--><path d="M641.655,134.895 C546.855,144.42 431.145,165.24 336,210 C302.355,225.825 270.33,251.19 244.365,275.46 " fill="none" id="DeploymentPlanShutdownImpl&lt;-cloud.impl.shutdown.ComputeNodeShutdown" style="stroke: #A80036; stroke-width: 1.5;"/><polygon fill="none" points="640.83,124.425,671.655,132.165,642.72,145.335,640.83,124.425" style="stroke: #A80036; stroke-width: 1.5;"/><!--MD5=[d8ec5cf7001663b0d0aab37fb8af8b98]
reverse link ServiceShutdown to cloud.impl.shutdown.LoggingServiceShutdown--><path d="M1123.5,192.675 C1123.5,226.275 1123.5,266.415 1123.5,296.61 " fill="none" id="ServiceShutdown&lt;-cloud.impl.shutdown.LoggingServiceShutdown" style="stroke: #A80036; stroke-width: 1.5;"/><polygon fill="none" points="1113,192.435,1123.5,162.435,1134,192.435,1113,192.435" style="stroke: #A80036; stroke-width: 1.5;"/><!--MD5=[4ebd5a14a2bddb0ebd86a32e5e98b195]
reverse link ServiceShutdown to cloud.impl.shutdown.MonitoringServiceShutdown--><path d="M1042.185,177.315 C1028.955,184.65 1015.245,191.805 1002,198 C987.855,204.615 982.605,202.35 969,210 C926.46,233.895 883.59,268.59 852.21,296.415 " fill="none" id="ServiceShutdown&lt;-cloud.impl.shutdown.MonitoringServiceShutdown" style="stroke: #A80036; stroke-width: 1.5;"/><polygon fill="none" points="1037.115,168.12,1068.36,162.27,1047.585,186.315,1037.115,168.12" style="stroke: #A80036; stroke-width: 1.5;"/><!--MD5=[7644e560850bbb4f39464818447fd13d]
reverse link ServiceShutdown to cloud.impl.shutdown.StorageServiceShutdown--><path d="M1249.38,131.895 C1437.45,139.98 1781.715,161.085 1894.5,210 C1939.23,229.41 1980.495,266.655 2008.875,296.64 " fill="none" id="ServiceShutdown&lt;-cloud.impl.shutdown.StorageServiceShutdown" style="stroke: #A80036; stroke-width: 1.5;"/><polygon fill="none" points="1248.495,142.365,1218.945,130.635,1249.35,121.38,1248.495,142.365" style="stroke: #A80036; stroke-width: 1.5;"/><!--MD5=[1dd3cfefcaa88a45c28c198820354214]
reverse link DeploymentPlanShutdownImpl to cloud.impl.shutdown.VirtualMachineShutdown--><path d="M705.585,174.6 C683.355,185.145 660.75,197.085 640.5,210 C610.92,228.87 581.1,253.125 555.75,275.7 " fill="none" id="DeploymentPlanShutdownImpl&lt;-cloud.impl.shutdown.VirtualMachineShutdown" style="stroke: #A80036; stroke-width: 1.5;"/><polygon fill="none" points="701.67,164.835,733.335,162,710.355,183.96,701.67,164.835" style="stroke: #A80036; stroke-width: 1.5;"/><!--MD5=[fe71df6da8feb2e2a894583eeb7e882c]
reverse link ServiceShutdown to cloud.impl.shutdown.WebServiceShutdown--><path d="M1249.365,128.925 C1351.935,134.61 1498.005,153.3 1612.5,210 C1653.975,230.535 1691.7,267.285 1717.68,296.805 " fill="none" id="ServiceShutdown&lt;-cloud.impl.shutdown.WebServiceShutdown" style="stroke: #A80036; stroke-width: 1.5;"/><polygon fill="none" points="1248.51,139.395,1219.02,127.545,1249.455,118.41,1248.51,139.395" style="stroke: #A80036; stroke-width: 1.5;"/><!--MD5=[ef8470fb20a126574803c1a59a1bc5f0]
@startuml

package shutdown{
 
    class cloud.impl.shutdown.ApplicationServiceShutdown  extends ServiceShutdown{
        + ApplicationServiceShutdown()
    }
 
  

  
    class cloud.impl.shutdown.ComputeNodeShutdown extends DeploymentPlanShutdownImpl{
        - allShutdown : boolean
        + ComputeNodeShutdown()
        + stop()
    }
   
  

  
    class cloud.impl.shutdown.LoggingServiceShutdown extends ServiceShutdown{
        + LoggingServiceShutdown()
    }
 
  

 
    class cloud.impl.shutdown.MonitoringServiceShutdown  extends ServiceShutdown{
        + MonitoringServiceShutdown()
    }
  
  
 
    class cloud.impl.shutdown.StorageServiceShutdown extends ServiceShutdown{
        + StorageServiceShutdown()
    }
 
  

 
    class cloud.impl.shutdown.VirtualMachineShutdown extends DeploymentPlanShutdownImpl{
        - allShutdown : boolean
        + VirtualMachineShutdown()
        + stop()
    }
 
  

 
    class cloud.impl.shutdown.WebServiceShutdown extends ServiceShutdown{
        + WebServiceShutdown()
    }
  
}
@enduml

PlantUML version 1.2020.09(Sun May 10 12:51:06 CEST 2020)
(GPL source distribution)
Java Runtime: OpenJDK Runtime Environment
JVM: OpenJDK 64-Bit Server VM
Java Version: 11.0.8+10-b944.31
Operating System: Windows 10
Default Encoding: Cp1252
Language: fr
Country: FR
--></g></svg>