<?xml version="1.0" encoding="UTF-8" standalone="no"?><svg xmlns="http://www.w3.org/2000/svg" xmlns:xlink="http://www.w3.org/1999/xlink" contentScriptType="application/ecmascript" contentStyleType="text/css" height="225px" preserveAspectRatio="none" style="width:348px;height:225px;" version="1.1" viewBox="0 0 348 225" width="348px" zoomAndPan="magnify"><defs><filter height="300%" id="fg5rq6fnd54bu" width="300%" x="-1" y="-1"><feGaussianBlur result="blurOut" stdDeviation="3.0"/><feColorMatrix in="blurOut" result="blurOut2" type="matrix" values="0 0 0 0 0 0 0 0 0 0 0 0 0 0 0 0 0 0 .4 0"/><feOffset dx="6.0" dy="6.0" in="blurOut2" result="blurOut3"/><feBlend in="SourceGraphic" in2="blurOut3" mode="normal"/></filter></defs><g><!--MD5=[c1d22d3f2a8d15d75ff9d59e16385a1d]
cluster visitable.api--><polygon fill="#FFFFFF" filter="url(#fg5rq6fnd54bu)" points="33,36,169.5,36,180,71.4141,315,71.4141,315,207,33,207,33,36" style="stroke: #000000; stroke-width: 2.25;"/><line style="stroke: #000000; stroke-width: 2.25;" x1="33" x2="180" y1="71.4141" y2="71.4141"/><text fill="#000000" font-family="sans-serif" font-size="21" font-weight="bold" lengthAdjust="spacingAndGlyphs" textLength="127.5" x="39" y="60.7998">visitable.api</text><!--MD5=[a09383d7ca75255c5b4da83c1db9017c]
class visitable.api.Visitable--><rect fill="#FEFECE" filter="url(#fg5rq6fnd54bu)" height="92.7539" id="visitable.api.Visitable" style="stroke: #A80036; stroke-width: 2.25;" width="234" x="57" y="90"/><ellipse cx="131.625" cy="114" fill="#B4A7E5" rx="16.5" ry="16.5" style="stroke: #A80036; stroke-width: 1.5;"/><path d="M133.125,109.5 L133.125,118.5 L136.125,118.5 L136.8516,118.5 L137.625,119.4375 L137.625,120 L137.625,120.5625 L136.8516,121.5 L136.125,121.5 L127.125,121.5 L126.3984,121.5 L125.625,120.5625 L125.625,120 L125.625,119.4375 L126.3984,118.5 L127.125,118.5 L130.125,118.5 L130.125,109.5 L127.125,109.5 L126.3984,109.5 L125.625,108.5625 L125.625,108 L125.625,107.4375 L126.3984,106.5 L127.125,106.5 L136.125,106.5 L136.8516,106.5 L137.625,107.4375 L137.625,108 L137.625,108.5625 L136.8516,109.5 L136.125,109.5 L133.125,109.5 Z "/><text fill="#000000" font-family="sans-serif" font-size="18" font-style="italic" lengthAdjust="spacingAndGlyphs" textLength="72" x="162.375" y="121.3652">Visitable</text><line style="stroke: #A80036; stroke-width: 2.25;" x1="58.5" x2="289.5" y1="138" y2="138"/><line style="stroke: #A80036; stroke-width: 2.25;" x1="58.5" x2="289.5" y1="150" y2="150"/><ellipse cx="73.5" cy="166.5" fill="#84BE84" rx="4.5" ry="4.5" style="stroke: #038048; stroke-width: 1.5;"/><text fill="#000000" font-family="sans-serif" font-size="16.5" lengthAdjust="spacingAndGlyphs" textLength="195" x="87" y="173.1284">accept(Visitor visitor) :void</text><!--MD5=[ca584558a4e4cbf87b32331b4e6c5b66]
@startuml

package visitable.api{

interface visitable.api.Visitable {
        + accept(Visitor visitor) :void
    }
}

@enduml

PlantUML version 1.2020.09(Sun May 10 12:51:06 CEST 2020)
(GPL source distribution)
Java Runtime: OpenJDK Runtime Environment
JVM: OpenJDK 64-Bit Server VM
Java Version: 11.0.8+10-b944.31
Operating System: Windows 10
Default Encoding: Cp1252
Language: fr
Country: FR
--></g></svg>