<?xml version="1.0" encoding="UTF-8" standalone="no"?><svg xmlns="http://www.w3.org/2000/svg" xmlns:xlink="http://www.w3.org/1999/xlink" contentScriptType="application/ecmascript" contentStyleType="text/css" height="387px" preserveAspectRatio="none" style="width:348px;height:387px;" version="1.1" viewBox="0 0 348 387" width="348px" zoomAndPan="magnify"><defs><filter height="300%" id="f1ktnidmnqawt5" width="300%" x="-1" y="-1"><feGaussianBlur result="blurOut" stdDeviation="3.0"/><feColorMatrix in="blurOut" result="blurOut2" type="matrix" values="0 0 0 0 0 0 0 0 0 0 0 0 0 0 0 0 0 0 .4 0"/><feOffset dx="6.0" dy="6.0" in="blurOut2" result="blurOut3"/><feBlend in="SourceGraphic" in2="blurOut3" mode="normal"/></filter></defs><g><!--MD5=[68c4f50f1d8d151acf49e7d36d911ea4]
cluster visitable.impl--><polygon fill="#FFFFFF" filter="url(#f1ktnidmnqawt5)" points="33,36,181.5,36,192,71.4141,315,71.4141,315,369,33,369,33,36" style="stroke: #000000; stroke-width: 2.25;"/><line style="stroke: #000000; stroke-width: 2.25;" x1="33" x2="192" y1="71.4141" y2="71.4141"/><text fill="#000000" font-family="sans-serif" font-size="21" font-weight="bold" lengthAdjust="spacingAndGlyphs" textLength="139.5" x="39" y="60.7998">visitable.impl</text><!--MD5=[54bb8b079ddb5d75bd50d5c6c18cd47d]
class visitable.impl.VisitableImpl--><rect fill="#FEFECE" filter="url(#f1ktnidmnqawt5)" height="92.7539" id="visitable.impl.VisitableImpl" style="stroke: #A80036; stroke-width: 2.25;" width="234" x="57" y="252"/><ellipse cx="113.925" cy="276" fill="#A9DCDF" rx="16.5" ry="16.5" style="stroke: #A80036; stroke-width: 1.5;"/><path d="M116.55,278.25 L111.6047,278.25 L110.9484,279.75 L110.9484,279.75 L111.6516,279.75 L112.425,280.6875 L112.425,281.25 L112.425,281.8125 L111.6516,282.75 L110.9484,282.75 L108.1125,282.75 L107.1984,282.75 L106.425,281.8125 L106.425,281.25 L106.425,280.6875 L107.1984,279.75 L108.1125,279.75 L111.5813,270.75 L110.2688,270.75 L108.6984,270.75 L107.925,269.8125 L107.925,269.25 L107.925,268.6875 L108.6984,267.75 L110.2688,267.75 L115.7766,267.75 L119.8078,279.75 L120.6516,279.75 L120.6516,279.75 L121.425,280.6875 L121.425,281.25 L121.425,281.8125 L120.6516,282.75 L119.8078,282.75 L116.9719,282.75 L116.1984,282.75 L115.425,281.8125 L115.425,281.25 L115.425,280.6875 L116.1984,279.75 L116.9719,279.75 L116.9719,279.75 L116.55,278.25 Z M115.7297,275.25 L113.925,269.8828 L112.3781,275.25 L115.7297,275.25 Z "/><text fill="#000000" font-family="sans-serif" font-size="18" font-style="italic" lengthAdjust="spacingAndGlyphs" textLength="109.5" x="142.575" y="283.3652">VisitableImpl</text><line style="stroke: #A80036; stroke-width: 2.25;" x1="58.5" x2="289.5" y1="300" y2="300"/><line style="stroke: #A80036; stroke-width: 2.25;" x1="58.5" x2="289.5" y1="312" y2="312"/><ellipse cx="73.5" cy="328.5" fill="#84BE84" rx="4.5" ry="4.5" style="stroke: #038048; stroke-width: 1.5;"/><text fill="#000000" font-family="sans-serif" font-size="16.5" lengthAdjust="spacingAndGlyphs" textLength="195" x="87" y="335.1284">accept(Visitor visitor) :void</text><!--MD5=[f20ada3ca227c64212466c9d003cfe8d]
class Visitable--><rect fill="#FEFECE" filter="url(#f1ktnidmnqawt5)" height="72" id="Visitable" style="stroke: #A80036; stroke-width: 2.25;" width="120" x="114" y="90"/><ellipse cx="136.5" cy="114" fill="#B4A7E5" rx="16.5" ry="16.5" style="stroke: #A80036; stroke-width: 1.5;"/><path d="M138,109.5 L138,118.5 L141,118.5 L141.7266,118.5 L142.5,119.4375 L142.5,120 L142.5,120.5625 L141.7266,121.5 L141,121.5 L132,121.5 L131.2734,121.5 L130.5,120.5625 L130.5,120 L130.5,119.4375 L131.2734,118.5 L132,118.5 L135,118.5 L135,109.5 L132,109.5 L131.2734,109.5 L130.5,108.5625 L130.5,108 L130.5,107.4375 L131.2734,106.5 L132,106.5 L141,106.5 L141.7266,106.5 L142.5,107.4375 L142.5,108 L142.5,108.5625 L141.7266,109.5 L141,109.5 L138,109.5 Z "/><text fill="#000000" font-family="sans-serif" font-size="18" font-style="italic" lengthAdjust="spacingAndGlyphs" textLength="72" x="157.5" y="121.3652">Visitable</text><line style="stroke: #A80036; stroke-width: 2.25;" x1="115.5" x2="232.5" y1="138" y2="138"/><line style="stroke: #A80036; stroke-width: 2.25;" x1="115.5" x2="232.5" y1="150" y2="150"/><!--MD5=[34801db525d096b4685cb1ca462d3228]
reverse link Visitable to visitable.impl.VisitableImpl--><path d="M174,192.21 C174,211.935 174,233.205 174,251.4 " fill="none" id="Visitable&lt;-visitable.impl.VisitableImpl" style="stroke: #A80036; stroke-width: 1.5; stroke-dasharray: 7.0,7.0;"/><polygon fill="none" points="163.5,192.21,174,162.21,184.5,192.21,163.5,192.21" style="stroke: #A80036; stroke-width: 1.5;"/><!--MD5=[2b0e3cd8de62dfca476b95357dbbc50b]
@startuml

package visitable.impl {
    abstract class visitable.impl.VisitableImpl  implements Visitable {
        + accept(Visitor visitor) :void
    }
  }

@enduml

PlantUML version 1.2020.09(Sun May 10 12:51:06 CEST 2020)
(GPL source distribution)
Java Runtime: OpenJDK Runtime Environment
JVM: OpenJDK 64-Bit Server VM
Java Version: 11.0.8+10-b944.31
Operating System: Windows 10
Default Encoding: Cp1252
Language: fr
Country: FR
--></g></svg>