<?xml version="1.0" encoding="UTF-8" standalone="no"?><svg xmlns="http://www.w3.org/2000/svg" xmlns:xlink="http://www.w3.org/1999/xlink" contentScriptType="application/ecmascript" contentStyleType="text/css" height="225px" preserveAspectRatio="none" style="width:357px;height:225px;" version="1.1" viewBox="0 0 357 225" width="357px" zoomAndPan="magnify"><defs><filter height="300%" id="f1mlicgiyw0gi9" width="300%" x="-1" y="-1"><feGaussianBlur result="blurOut" stdDeviation="3.0"/><feColorMatrix in="blurOut" result="blurOut2" type="matrix" values="0 0 0 0 0 0 0 0 0 0 0 0 0 0 0 0 0 0 .4 0"/><feOffset dx="6.0" dy="6.0" in="blurOut2" result="blurOut3"/><feBlend in="SourceGraphic" in2="blurOut3" mode="normal"/></filter></defs><g><!--MD5=[37c7eae1a765ee531e0f2485e11319aa]
cluster visitor.api--><polygon fill="#FFFFFF" filter="url(#f1mlicgiyw0gi9)" points="33,36,147,36,157.5,71.4141,324,71.4141,324,207,33,207,33,36" style="stroke: #000000; stroke-width: 2.25;"/><line style="stroke: #000000; stroke-width: 2.25;" x1="33" x2="157.5" y1="71.4141" y2="71.4141"/><text fill="#000000" font-family="sans-serif" font-size="21" font-weight="bold" lengthAdjust="spacingAndGlyphs" textLength="105" x="39" y="60.7998">visitor.api</text><!--MD5=[62328d09920e8c493f009c8c73915506]
class visitor.api.Visitor--><rect fill="#FEFECE" filter="url(#f1mlicgiyw0gi9)" height="92.7539" id="visitor.api.Visitor" style="stroke: #A80036; stroke-width: 2.25;" width="243" x="57" y="90"/><ellipse cx="146.625" cy="114" fill="#B4A7E5" rx="16.5" ry="16.5" style="stroke: #A80036; stroke-width: 1.5;"/><path d="M148.125,109.5 L148.125,118.5 L151.125,118.5 L151.8516,118.5 L152.625,119.4375 L152.625,120 L152.625,120.5625 L151.8516,121.5 L151.125,121.5 L142.125,121.5 L141.3984,121.5 L140.625,120.5625 L140.625,120 L140.625,119.4375 L141.3984,118.5 L142.125,118.5 L145.125,118.5 L145.125,109.5 L142.125,109.5 L141.3984,109.5 L140.625,108.5625 L140.625,108 L140.625,107.4375 L141.3984,106.5 L142.125,106.5 L151.125,106.5 L151.8516,106.5 L152.625,107.4375 L152.625,108 L152.625,108.5625 L151.8516,109.5 L151.125,109.5 L148.125,109.5 Z "/><text fill="#000000" font-family="sans-serif" font-size="18" font-style="italic" lengthAdjust="spacingAndGlyphs" textLength="51" x="177.375" y="121.3652">Visitor</text><line style="stroke: #A80036; stroke-width: 2.25;" x1="58.5" x2="298.5" y1="138" y2="138"/><line style="stroke: #A80036; stroke-width: 2.25;" x1="58.5" x2="298.5" y1="150" y2="150"/><ellipse cx="73.5" cy="166.5" fill="#84BE84" rx="4.5" ry="4.5" style="stroke: #038048; stroke-width: 1.5;"/><text fill="#000000" font-family="sans-serif" font-size="16.5" lengthAdjust="spacingAndGlyphs" textLength="204" x="87" y="173.1284">visit(Visitable visitable) :void</text><!--MD5=[09b952e5b05014b5df7873258e049f5e]
@startuml

package visitor.api{
interface visitor.api.Visitor {
        + visit(Visitable visitable) :void
    }
}

@enduml

PlantUML version 1.2020.09(Sun May 10 12:51:06 CEST 2020)
(GPL source distribution)
Java Runtime: OpenJDK Runtime Environment
JVM: OpenJDK 64-Bit Server VM
Java Version: 11.0.8+10-b944.31
Operating System: Windows 10
Default Encoding: Cp1252
Language: fr
Country: FR
--></g></svg>