<?xml version="1.0" encoding="UTF-8" standalone="no"?><svg xmlns="http://www.w3.org/2000/svg" xmlns:xlink="http://www.w3.org/1999/xlink" contentScriptType="application/ecmascript" contentStyleType="text/css" height="553.5px" preserveAspectRatio="none" style="width:354px;height:553px;" version="1.1" viewBox="0 0 354 553" width="354px" zoomAndPan="magnify"><defs><filter height="300%" id="f1dspvnpeggs8y" width="300%" x="-1" y="-1"><feGaussianBlur result="blurOut" stdDeviation="3.0"/><feColorMatrix in="blurOut" result="blurOut2" type="matrix" values="0 0 0 0 0 0 0 0 0 0 0 0 0 0 0 0 0 0 .4 0"/><feOffset dx="6.0" dy="6.0" in="blurOut2" result="blurOut3"/><feBlend in="SourceGraphic" in2="blurOut3" mode="normal"/></filter></defs><g><!--MD5=[02d373002ff1119a9047eb4b8340cb1d]
cluster vmosprovider.api--><polygon fill="#FFFFFF" filter="url(#f1dspvnpeggs8y)" points="33,36,228,36,238.5,71.4141,321,71.4141,321,535.5,33,535.5,33,36" style="stroke: #000000; stroke-width: 2.25;"/><line style="stroke: #000000; stroke-width: 2.25;" x1="33" x2="238.5" y1="71.4141" y2="71.4141"/><text fill="#000000" font-family="sans-serif" font-size="21" font-weight="bold" lengthAdjust="spacingAndGlyphs" textLength="186" x="39" y="60.7998">vmosprovider.api</text><!--MD5=[ae099cb65b9bf5dd2b23f1386ce12f86]
class DefaultOSNames--><rect fill="#FEFECE" filter="url(#f1dspvnpeggs8y)" height="238.0313" id="DefaultOSNames" style="stroke: #A80036; stroke-width: 2.25;" width="238.5" x="57.75" y="273"/><ellipse cx="100.5" cy="297" fill="#EB937F" rx="16.5" ry="16.5" style="stroke: #A80036; stroke-width: 1.5;"/><path d="M98.25,298.5 L98.25,301.5 L104.25,301.5 L104.25,300 L104.25,299.2734 L105.1875,298.5 L105.75,298.5 L106.3125,298.5 L107.25,299.2734 L107.25,300 L107.25,304.5 L95.25,304.5 L94.5234,304.5 L93.75,303.5625 L93.75,303 L93.75,302.4375 L94.5234,301.5 L95.25,301.5 L95.25,301.5 L95.25,292.5 L95.25,292.5 L94.5234,292.5 L93.75,291.5625 L93.75,291 L93.75,290.4375 L94.5234,289.5 L95.25,289.5 L107.25,289.5 L107.25,294 L107.25,294.7266 L106.3125,295.5 L105.75,295.5 L105.1875,295.5 L104.25,294.7266 L104.25,294 L104.25,292.5 L98.25,292.5 L98.25,295.5 L99.75,295.5 L99.75,294.7734 L99.75,294.7734 L100.6875,294 L101.25,294 L101.8125,294 L102.75,294.7734 L102.75,295.5 L102.75,298.5 L102.75,299.2266 L101.8125,300 L101.8125,300 L101.25,300 L100.6875,300 L99.75,299.2266 L99.75,299.2266 L99.75,298.5 L98.25,298.5 Z "/><text fill="#000000" font-family="sans-serif" font-size="18" lengthAdjust="spacingAndGlyphs" textLength="145.5" x="126" y="304.3652">DefaultOSNames</text><line style="stroke: #A80036; stroke-width: 2.25;" x1="59.25" x2="294.75" y1="321" y2="321"/><text fill="#000000" font-family="sans-serif" font-size="16.5" lengthAdjust="spacingAndGlyphs" textLength="97.5" x="66.75" y="344.1284">CENTOS_8_1</text><text fill="#000000" font-family="sans-serif" font-size="16.5" lengthAdjust="spacingAndGlyphs" textLength="100.5" x="66.75" y="364.8823">DEBIAN_10_6</text><text fill="#000000" font-family="sans-serif" font-size="16.5" lengthAdjust="spacingAndGlyphs" textLength="90" x="66.75" y="385.6362">FEDORA_31</text><text fill="#000000" font-family="sans-serif" font-size="16.5" lengthAdjust="spacingAndGlyphs" textLength="115.5" x="66.75" y="406.3901">UBUNTU_18_10</text><line style="stroke: #A80036; stroke-width: 2.25;" x1="59.25" x2="294.75" y1="416.0156" y2="416.0156"/><ellipse cx="74.25" cy="432.5156" fill="#84BE84" rx="4.5" ry="4.5" style="stroke: #038048; stroke-width: 1.5;"/><text fill="#000000" font-family="sans-serif" font-size="16.5" lengthAdjust="spacingAndGlyphs" textLength="181.5" x="87.75" y="439.144">getName(): CENTOS_8_1</text><ellipse cx="74.25" cy="453.2695" fill="#84BE84" rx="4.5" ry="4.5" style="stroke: #038048; stroke-width: 1.5;"/><text fill="#000000" font-family="sans-serif" font-size="16.5" lengthAdjust="spacingAndGlyphs" textLength="184.5" x="87.75" y="459.8979">getName(): DEBIAN_10_6</text><ellipse cx="74.25" cy="474.0234" fill="#84BE84" rx="4.5" ry="4.5" style="stroke: #038048; stroke-width: 1.5;"/><text fill="#000000" font-family="sans-serif" font-size="16.5" lengthAdjust="spacingAndGlyphs" textLength="174" x="87.75" y="480.6519">getName(): FEDORA_31</text><ellipse cx="74.25" cy="494.7773" fill="#84BE84" rx="4.5" ry="4.5" style="stroke: #038048; stroke-width: 1.5;"/><text fill="#000000" font-family="sans-serif" font-size="16.5" lengthAdjust="spacingAndGlyphs" textLength="199.5" x="87.75" y="501.4058">getName(): UBUNTU_18_10</text><!--MD5=[e377bb0e064a037308e0c27794fd5507]
class vmosprovider.api.VmOSName--><rect fill="#FEFECE" filter="url(#f1dspvnpeggs8y)" height="92.7539" id="vmosprovider.api.VmOSName" style="stroke: #A80036; stroke-width: 2.25;" width="165" x="94.5" y="90"/><ellipse cx="122.4" cy="114" fill="#B4A7E5" rx="16.5" ry="16.5" style="stroke: #A80036; stroke-width: 1.5;"/><path d="M123.9,109.5 L123.9,118.5 L126.9,118.5 L127.6266,118.5 L128.4,119.4375 L128.4,120 L128.4,120.5625 L127.6266,121.5 L126.9,121.5 L117.9,121.5 L117.1734,121.5 L116.4,120.5625 L116.4,120 L116.4,119.4375 L117.1734,118.5 L117.9,118.5 L120.9,118.5 L120.9,109.5 L117.9,109.5 L117.1734,109.5 L116.4,108.5625 L116.4,108 L116.4,107.4375 L117.1734,106.5 L117.9,106.5 L126.9,106.5 L127.6266,106.5 L128.4,107.4375 L128.4,108 L128.4,108.5625 L127.6266,109.5 L126.9,109.5 L123.9,109.5 Z "/><text fill="#000000" font-family="sans-serif" font-size="18" font-style="italic" lengthAdjust="spacingAndGlyphs" textLength="105" x="144.6" y="121.3652">VmOSName</text><line style="stroke: #A80036; stroke-width: 2.25;" x1="96" x2="258" y1="138" y2="138"/><line style="stroke: #A80036; stroke-width: 2.25;" x1="96" x2="258" y1="150" y2="150"/><ellipse cx="111" cy="166.5" fill="#84BE84" rx="4.5" ry="4.5" style="stroke: #038048; stroke-width: 1.5;"/><text fill="#000000" font-family="sans-serif" font-size="16.5" lengthAdjust="spacingAndGlyphs" textLength="126" x="124.5" y="173.1284">getName() :String</text><!--MD5=[d2b91885ef772ea777161ab02ec5d5b4]
reverse link vmosprovider.api.VmOSName to DefaultOSNames--><path d="M177,213.48 C177,232.14 177,252.57 177,272.73 " fill="none" id="vmosprovider.api.VmOSName&lt;-DefaultOSNames" style="stroke: #A80036; stroke-width: 1.5; stroke-dasharray: 7.0,7.0;"/><polygon fill="none" points="166.5,213.18,177,183.18,187.5,213.18,166.5,213.18" style="stroke: #A80036; stroke-width: 1.5;"/><!--MD5=[6fb5968f7f94718cb4929a0036154c74]
@startuml

package vmosprovider.api  {
    enum DefaultOSNames implements vmosprovider.api.VmOSName{
      CENTOS_8_1
      DEBIAN_10_6
      FEDORA_31
      UBUNTU_18_10
      +getName(): CENTOS_8_1
      +getName(): DEBIAN_10_6
      +getName(): FEDORA_31
      +getName(): UBUNTU_18_10
    }
   
  

    interface vmosprovider.api.VmOSName {
       + getName() :String
    }
 

@enduml

PlantUML version 1.2020.09(Sun May 10 12:51:06 CEST 2020)
(GPL source distribution)
Java Runtime: OpenJDK Runtime Environment
JVM: OpenJDK 64-Bit Server VM
Java Version: 11.0.8+10-b944.31
Operating System: Windows 10
Default Encoding: Cp1252
Language: fr
Country: FR
--></g></svg>